<mxfile host="Electron" agent="Mozilla/5.0 (Windows NT 10.0; Win64; x64) AppleWebKit/537.36 (KHTML, like Gecko) draw.io/25.0.2 Chrome/128.0.6613.186 Electron/32.2.5 Safari/537.36" version="25.0.2">
  <diagram name="Page-1" id="y-vqSJgrPH5fruGVORdp">
    <mxGraphModel dx="3183" dy="1380" grid="1" gridSize="10" guides="1" tooltips="1" connect="1" arrows="1" fold="1" page="1" pageScale="1" pageWidth="850" pageHeight="1100" math="1" shadow="0">
      <root>
        <mxCell id="0" />
        <mxCell id="1" parent="0" />
        <mxCell id="t4ACVStrc7fiuCfUKFq2-67" value="" style="rounded=1;whiteSpace=wrap;html=1;dashed=1;fillStyle=hatch;fillColor=#B5B5B5;strokeWidth=3;strokeColor=#B5B5B5;arcSize=10;" parent="1" vertex="1">
          <mxGeometry x="-564" y="510" width="460" height="270" as="geometry" />
        </mxCell>
        <mxCell id="huw-fAoAILaJOdz1j0V9-20" value="" style="rounded=1;whiteSpace=wrap;html=1;dashed=1;fillStyle=solid;fillColor=#F5F5F0;fontColor=#333333;strokeColor=#666666;arcSize=8;" vertex="1" parent="1">
          <mxGeometry x="-87.44" y="804" width="422.88" height="213" as="geometry" />
        </mxCell>
        <mxCell id="t4ACVStrc7fiuCfUKFq2-68" value="" style="rounded=1;whiteSpace=wrap;html=1;dashed=1;fillStyle=hatch;fillColor=#B5B5B5;strokeWidth=3;strokeColor=#B5B5B5;arcSize=11;" parent="1" vertex="1">
          <mxGeometry x="372" y="510" width="460" height="270" as="geometry" />
        </mxCell>
        <mxCell id="xl2lfIINvYw0Gv0UvHsg-11" value="&lt;font face=&quot;Helvetica&quot; style=&quot;font-size: 16px;&quot;&gt;Forward diffusion process&lt;/font&gt;&lt;div&gt;&lt;font face=&quot;Helvetica&quot; style=&quot;font-size: 16px;&quot;&gt;(adding Gaussian noise)&lt;/font&gt;&lt;/div&gt;" style="text;html=1;align=center;verticalAlign=middle;whiteSpace=wrap;rounded=1;fontSize=20;fontFamily=Verdana;fontStyle=1;fillColor=#dae8fc;strokeColor=#6c8ebf;dashed=1;strokeWidth=1;" parent="1" vertex="1">
          <mxGeometry x="-10" y="425" width="280" height="60" as="geometry" />
        </mxCell>
        <mxCell id="xl2lfIINvYw0Gv0UvHsg-28" value="" style="shape=image;verticalLabelPosition=bottom;labelBackgroundColor=default;verticalAlign=top;aspect=fixed;imageAspect=0;image=data:image/png,iVBORw0KGgoAAAANSUhEUgAAAIAAAACACAAAAADmVT4XAAAoEklEQVR4nF27WY9u2ZEdtiJi73PON+d456pbxSqySHZT7Z7ctiGz0RIlyzIEyH6QG4bfDBjwX/KLnmzAsAwLMjyh3UBbsqlmj+ymWUV2Tbdu1R3y5vDNZ9h7R4Qfvry3yM6nTCATX2TsGNZaEUEMAI4gxBlBmYFRMUZAHU90V/M07ixt+wEQysoMRhH1EAhliESqJMzSQ0pxJrgRg9hYKSSTQtEBFwPMGAQlhlgqBIITiAFyIAiTBgOczIgdQSFM2YnJ4eoexN2cLMDIHeKAM6koCMYEzuxECjAcIHIHyAxgJzY2YjNxd7AFaFEnwMkD6PD7ZATAiCEgQBROSGIMwCEAuTFBmNgBYyIH4EwMyeZMRcWN4VATJjMmgxCcwQCYHSCAQE5GBAAA+dceCOwwF1YmcqizMcyIwRbJ1IjdiETMKDu7kzixA06AKTPcg7q7gAwgd3JCABUlMOtrj9z+EbQcTEA4fD4cDCOYsDEJoYAcEI+kBFZDNCNiFGMDizkTADOCuBmxO8QOzlIhJ3W4S3A1AOYgJceblwkZr7+IARAQycXYnd1YQAQpWQCrTJ3dCeShQGAwCkZuRGbsxhDPFMwgMHITcndiohzgDDK4QhysZAQHOdiISNMvesDJTRhRRdnBgJEDXCiwOhzu5LCiDIe7Jwi5OxxNVirODoe4EdhN2IkczkaheCSACICJRXU4CIpDCB9iIJA74E5M6mwOI3KCmYPYDUocLGQQkQopu7ODXQmg4EUKmII6A04EPySEGdhBxaEED3ADsx8eiuDizoZD+h88QE5kzgQmN4Ix+W1qiJkx1B1GUMAcwgBc3M3IIe5wV4DBzuRkDmMxwEDkcDDBCHA4wc0p0OGTv34CEMHd3YnYqOICJ3cnIVUKphSUHCB2Ahxk7kzqh5/J2TIH00JEdCgRxA6AjdmUwepgQDkUM3ZxP9gDcpAjOJwAEBFZcGeoMXB4tlC8MDHMARWIGZOwsjOUGPw6vtyNjcjskJTORAAClMwAgxM5efLIDgcJ+SEdyAE+OIQoELGbIKtZUefAcGPWRO7uMHIDwGyAupMQDARkd+fbIsbsBCLirMICdg6HgACKmxHU6db5an6b/wEEkLu7MeBCIPjhCRymXrlDncHEag4jGIGDKQxwZiW4UAGEyY25MBggRWBldkdwcXBmgMlU3JntEGJwABQcBICggJOQqYgyGYzI3EkBGEzghZzJipgxFQc51EFRyWEEoiLu7AAgAA5x6QQFE3F0EgUDQR3+phQDHm6tgaiLCrgqcHJyIyETgrOLw9VDVZgqoWK1qGYj9VIAVylBHEUMbEyM4lSIDcFZYMQFUojz4UOJASUKqrjtAX6bBYXoUEBYnZzc2Z0I7C7mxuOzdx8ONjudYrnVik181T+/Sjlld5AqCcic4SBxSDCwu5ISSlBXxAByA7sxMR8CCgCIxAmAx8CHUCAuICJ1gZGyM0PDvV/5LQn24smmL1a6JGE2GjeLOK3KPlxdPW13Kqp8SF5jwAsFcS0W2J2cRImMiYKaWoCB86EUE4gPzxHiISrcIUakAMGJyEmO7v3Wt05f/PDpdkMujSNnmCO7j0aLUX2fvkHbZ5991TqEEpF7IHWCMdwF7jCSkK3SQ46oEYw5pdtuTAxyEEJwOmAZY0XIcihd4MkHf/97X/3o5y8DjYLHwFE3gw8Scu8W1ItUo3tvf+/4w3/z1XAodszmEFVhFssKAojdHQGAknEojjDkgwOcxAGCRxEzUT6UPHMgcAbZnR/83qt/+yd2fH6er1/srJE+BS1GAuIwwrBVE45n736vfvnJ51fqDuEC5cpNjEgLOSNAzYkBN4GxOlOy2yAkBgHwUMOUiMkAFyoGEnb+9vd/7cN/tRqfPRy/fLXZJFANrRzi5qVAaFLnPJC7TO5+5xF+8vOrHVMBkROg4iJeDMLmhQOgBhAZmErxr4PwgAcqM3VhgomKuwMBzXf/yb1//X/M3tESX232Q6bahLsI4hBCgmQLWWlP0+xV1dTfeXv+9GdfbAYSVxAMAvFMTEZKTFQAUWcycpTXiIgYB9goBCJWA5OxVlBg9O/+4Px//9PF+dHu4+qqxARTM9EsNZgEoTEeGbqbBB5Vkzt5afffejs+/Zsv9+rOmY3J3CQowV/nGEEZIOR8AMWvDUAI5kxBYZBCYAef/9bv3f1ff3gyHS9fdqXkvuY4m9x00pkkdxGJ5NECMfkuDNXotJZtt/jmt4+vP/3waefm7E4mTkbkzpyJcNv2HSXf4qMDJHMKDGNxUnLm4gS6+3f/4/2//GR2P11vVrEphXp/8HhytbHLjRGZcyGj6BzJ5lXIqxLrWTweNnr273/n5kc/eZEV4uYsMDViNieAyCw4uVu6bUbEICcgOgk5cyF1UTA/+ve+v/7Dj+9P8+5yM0gz/8A/XD7+xvjLYXJ1U1XVbpWyBxACeyKK80jdYH56bMVz9fb38X//xcqLIbjDARdxN4abm8CJyiEN/VAJnVwC8QG9oDBo8uv/6MFX/8vzt05Ww+ZSpjE+Pr78ePsrd/FVmVJmR9e3Fz3LnPKukKgGCuMJb1IzXoRo6+oHv/nh//xMcwrupE5MMIAAgzEdDKCvnwDkEsiZQFRCMTn+3X9cP/2Xz48fr2j9ZTw59/3kne2fx+/W9rI+WuzJdsn98indGY3i5RWZkfRJQlNF2jbHYpPeH/+Hs//uw7aIgg7QzUBcREHOqlGLkwPkgQ4UiZlMg7sEZx/99g8mf/5Hn9Z0vVwjTOZxu82QuAiQNJKRrdvnzWKSTvKcKrl76tudD1xX3vcSCXsdAUc/++q/+G/+xx9dkx/yyt2dwRKyM7vz62aI4DhEIww1Jbg7T3/9nemP/2Q55nIxMHEza64uvqE2m5IZNuOtrr9K43rmeNYeBTRkqIJxVFtd9a5dqKSPWfb//B/+5+M/vAkFoGBmRDA4yIUKmTucyJ0C4IQDCM6oKanz+//R4q//4Pr+frB1TPlMu3qwo6r5ZhOHMm2xTbvVw7sBU+yHeVWitKGeUDKi6WS5G0LWEW/noeH/bfdPZ//nlbpbADkr4JyNzRygW06KgMN3pmTEZsT06D/41l/+wcWCaXJpKQeqUmLOu6OxRL4aQoiDVXdO9n01e1iOQtd3e5I+uEN9WlWlE902dRdtcvzD/p/e+x++6MkLuREImpyMiHHLzeEIdMtRKncILNj93/uNT/7oejLa79tcr93q2Wh68uxJN1ssOG26e3PzTTVZ4Es+mgTvuj17p/ZQXF+NFtNYbbq2tKGCpTL54/L78Z8/LcSubFABkTKZhHz77qBDDADwA2HP81//9u7/unxUvexWbv3o5DrH2UkON/v6wTDK6e59u3q5mnR08um+mzZ5ZasbYz4DheVWnOrjR7vn+9ZQCWt////773//n/23SxQmIjNhFzYc3HHgzwdOdQuMOBD4/neP/+3nYbQhCzbgve++2xem0dm02r9s805n5frjy8bL1XAu28svP/n8ZZlIH8fkN8/mI8vVEQ8B8KHdJNlfTv7mf/qdH4zMmZ1YlKAgI+ihBeMWJTg5CXkUgOa//t6XP9b5Mu8GLpMRTx+sL5rp4t1F3F0OWrGtv1zeOW63GJ8V5aWN6ym6Nh6H1ZeTu56W07jblFGTusJtPV7R459M/8mLHyrBDK7k5gx2c3pDTg8c0XIFzwx+7zfLH7Qf7Lq+q3Ynp9LvxrPLy3jn7sKXL5/6yYmvnoWTBzerlGb33GcxDrt9MwrVcJUelNXN8uxsOTSCgJKQrVodNz9+/z/76nNzFCCIC4O5gNQPhfBgAEDsiuA4+b3zf/XRu9MnO7pbyWg8Wvfzt+YhfTU/tWc2XVnaP0n3x6qxulhnoELu+zaOxCxX6DpvLla17IfZfDxs9lV/nK8epj/+/b/3L/YHLUwDqcIYVAjk/rVC4ooA0/jNuz/5UTjbghenaczTxWI0mZ/m8gWdb66PzoeLZ+H49CgobZdcpLiIpFKOPXCH4xk1nDdP1k05OYGPcx6CoVufPbv4+3/6oYGI1d1BICLz1/w43CYBCanTybf0h1enz2x9fD7plv3y5EgTpzIft8N0sZ1Or/D4eKMDnTYXLMSWcolR1xdhYiotN5jM6s/57EhSoroeiNR275Wf/Jfff7JzcSODOZEFt1tq5PT6CQCG+6Nvvvg8dBhKyXJ/tr354nRfxlf8q+dXnez3u/N727o+/8ogs+OqMk95s9NmlPfr6z6EbTKen3rgc1exXoyExsrd5G82/+D/+QkUREKukRWmrwHZ6xhwohwwPp/9RW1DG6qr4vWDdblabm2aJ+XuaX+d2t29xzdpWNxJVV01tbQYzc/a5WB5NDrZ912KbqvC0D6tRZAT626SaH9n8+EPfufnyUBRnQK56QEPOwAPt5/PDNX7j4cvtuF4RYtR+7OL7905b9t35r67rlt1qZtRPH+4stG5mXVW1lsqWWazUbXpU13r0I/rvLtaGp6AwmIypJ3xcpJv7saP/vF3Z5dsZg4jMwbjYANw+wSEwoT6wXtfvKAKrtV9WV1cT8/02cPToW8v40fRNkd3Tyo539tuyFpyXc3d+92zaiI6aOBQTZOFGdIu2fRsTO1+iA6blc128cX1228vDWJFohLI4AdV5E0aksOJRm/vfkLHcoECntf9er3Dw/GW+NFiy83owdm8WrfoU4qzhipiH3g0H5Yfp1jFRpJhwK6v7l1fWKmyd71Vwiuc5Hx2sXnw4KcDc7YIFjeCiPovpqGDiOnsm59+2sxWBeeTNs7vff7ZaPpO/BjvvP/iyezxmaT9RRnP52hfvug09AOkDtOzb5xevNgFr6ndeN1Oo07uXQybWbfBeHJE6cXuCPv2+VsPqsGAYGAFu8FuVQEPgB8aMuSDu39SPWg3C/+GLDFu5OXNavD9g5O8Jqpk98JP5yMfnnxxXVSRMzN5OH149/HjgtzZo/LZy05sPRodb7t+yHR3UZfjq3QVSn/B5/UuuBxEOGe8JkaHGCA4AnT8+PqTGtfwRiuurXlnvl+/lDvTcrPzkXd6eqfu9ldfPN+7mpEHVsAvXywen83ms2wyfnT50Rd5KKdHtrFI87q36fwyT+L8YojnjVuAIYAB9691ukBOh47s0/FXffOqrXsa3blTiOt3uyvaz09e7NZ+Mm0np3j5cnPRa6x6DzQMQs6icfOziON7YXRkYfFreO6IqKbxTr5uh1FKIBt8fJEW81jc4W6Zo2URfS3R3NJ0CxiPP+b6WvH+9fV8FpE2540HpDzsw9v3VX2bnl8sm3kNOhpbXlGxpEQ2GowuBvG7j0/r+I2kXbMfxvcmm7yc30lbtVS2/KI9WxB7EYYHN2O2Nx4AHfoh2QwvpF9jeqd+1uxns/S0O1+mnZ3Nn82m0nFAcA2FyibVhGpWsXS73CMWFVvWFk6nI1pMU0ezTWmryf2bxaRbgnlm9eqj7z76cQJLUHOYH0T0X6oD7nHU7mU1jelVzRupe6lJHg7HT5bvfjBIbyWE8IE8W63zoBqOHs4hVftVq1aygFGP331XxFLaCoDhZfd4vl7NUkKQMd+5vqq/84c9YApWcfc3KtmbdgySsffo37q/kvo0nnGevF9VoZkvn1UnDfqqy3UKM1GQSJ7EfqgR0h6SuYplfFI/eDB8vjt6+WqyaF6mxVkTk163hae9bRfSXXWnFVyczAFn879tAAADStNUC26nD3OdTZDwZXV8vv083tlaM13nIwT0NliYNGVV3EbU+ui761U8mZ2PR1efbvVZc3c63nWPxvPRZiVjat6SV6ub7V5W28n00qMWOBHdluGvDSDAPUpAC6Z73agp2xGlm8/Pl5zP8NcvYoy9vHo1TZvnClhzdBUZmlbE9Z3vf9hVm4srp5Tu1jYaleV+cSbDk7R4PGm63fVQdavN3TRMp6EUVgkEJ2U9tKDXeIAcsOULTbraNRU9v2lSGF7uHvnzOItyEaPMY339+SXLwLE6mWxz8VRNMlPe1Fevlv0sdvPzCUT6G4xnsn7Vn83QFy49ZmkfBkrExbwRMjD0thnQ190QTlypV9i9itPrp20zOVp235OTo+UnNNp/QtXp8Wz23AowO5HGT6r9enbqq0G3n032HeZlljmuB1WaTE/y5c3R96b52c18rFyMjaiR1l2ttyhqhEqdDoFI4bVyzzJucm203eg1zXi9ni7GzXGqPp39ndVHS+u3q3Yv2Wj8VqyoRln7yTrsEfrtbo80PbKLQYos6lm1Wu9m94eNxTv54qYED6OhTM8/XlqdhUjMRDMdsh9O4RYbkCa6VzsW9mKkx3fa9VePzp6PjmaPRhOe/MrPzV+tezRx4ONgOjGpJ105rTbbnJ63A6ajbcP5vle523V2Vp+Wpxfjt45UuzpY6WNV60UvRKIKVoPz64aMcOhFJKw51rsRxdaP5fq43uwm29AHG9MNhlGc5L5D9uqtuxxnTReG9gk+uJL7myW4zlPanY19LG2b/XgSQ9I4Hi0vswZbB7Z+qJuLTE5moTAdhhS3BTAcZgiuIbiNtlxKvtNc3bx9OurFX9UUfL+zPt051vDkKle/+l3rgrcOLHfpo7y5+85Z81kno1HtzVBGo3HX1fUwjGdNE9Oz6zK2bGzNJF7/TetiWVwZCCi4HdR4OLRighevmzRb21uPchevx+de3/+Mc9503f7qbGR9s5AVumfTTT2NstsV31KdP7n85q/Nfn7Zni+KgJW5rihMPXC64qN1YS1hokXef9i3LmqBQK7B6JACcDrI9Q6QW05V4nmJu/l701ev3j1P47t507/qbKVDF32lpyevPuVmPlgiu/v2pz/fV+D1n6+/d/7nBp9Oa88yNm7TFnHz5X7elkUoJdGJvP+7xy8vmDPcoisKgvutRnDghgCRcx6m1J6vVnaaxsfPLmS3jFfjBptuMuflsbRn0Vq7wzyuKDclneGnmUqJn+/uuavthJJlobxU2u7bTpNWsyTJrb/3X/+dyyetsZG7oiZn1Tfj6/C6F8GTii2nuzhdtnZmNJGyXu6PwpmEVJmTlnEOJ4GyMNXuoMXRDVfHu3SxriedZ9DAFnx9bdwJoIWbJq5LDOOT45HT9LKQGxMHuDvjth8dCpETwD7smHZXIcRlbnQSTna2ndnNg0CCQA0WE+0aaRuGS+nF42Ta2ePf+IuXMstNe+U71qZ3KhQlTGwbT3rEyXAzrjx+ymuMi7u5wpSMof5LHjiAknbdxKE71U0nvOHRyru9TqKIOjtrmVbmzWklEShRCcg6ym+PvvutEv7qKwUXde0XU7/jlnfmvCkTH8LirjarP/qzydDWvVeUS3R1k9ft8JaaOQhk+5sH9550pbyacifx5RfHL3fjY95MbKCJ77nqZDwdQW2adpPAKsvcjfvVPG6eXe8YcXDqq2lTt6nO2+xRrU8l15MW9Eyq0DYJboATxMqbELjthgSQt8v3735Rts1O62DUDu1+NEWY5ahF6rqyYcx2PapydstchvHFwKPxZ+mm2w0BYiX4uMIgE06rwSbaBC1NdbEatZUdI99/viVTZaXgbMy/jAccLmKrXR3arSyGIWcZbMcjuz61uhSu5+xNxdurck7uaKoB1eaKMX/6s8EJYlIyMeZR7TlVlYEmbXUyGfrRCXd9Ah1T9x4/d3YDeZW/BkR4Y0lKeZV+535My2Yu6mR97zQ97fPowdlZVDPqnq/3YRTzzUrV+nTZrqrvUFJIcEAdDrX2sotx5xJrSZ0jv1h2SVyvn7KtvnFE5Mzi2b5GRP46CJ08d1f/6O/+i7b092gj9apQlzaxuquXPqDbZ1+tJtPT6a4LE+t0SF9uZdLulSwFgjI0c7vP9QzZPDV9KK271Ufj5mo/SLc7X9bf/qu2mBAZvcHE+Fof8Drb5Yvf+jdf2LqetDcztjhrqnN0WZP1xZlGeTuu2jyiSgenq2V/dGekTsJwMHFIUkvi6NaEOg8nhayE+aipG1ztttf3Z8ODF58zDtsPTMNBqXyDCZmz2PJnv/2bF337/MFZ38f5VO4PPuoGCkOLyajqxtNppYy6lJTjC61mR/d/fXvFgXpSHVEI+8gs3ElFdST149WWL4nyPBDS1TnwrYtNdB7ghzEOAUDww8DCVWDbL977T9Y/2u5fvPv4BXMo17GJq/WRMPvA0hA3oNhxE/rhp5tqctbh7+Ffd9oHNx64CeVOO2kYtptUUvH1pdZ8VobJeJ/CRD0+uJt/tKcMYdd0AGSgW43InYU8Pf3r6X/1rT98vv3s3mJFHJG8ogGjLaolV5GghaxOy3V7tRdavHOXj//ZN7748OfNSd5shXJaz0JLR6sUrIj4eB866tW37TDez/zBr75F7V/tMHZ9rVHRG5WMRJS9v/6kDt9/9Nc//erlQnOQEmJRIe2o1fGgZXmeqppp/2rfVrz4lV89yS/bpc3OWx/FkHNGB5AOGWkjUeoyBH4J6aAc+vk0SvPvXOw/N++lvEm+2x0Sp0BKZLurT+i3Hj769l/+zWWS3hvlSTy2Vrvtw5D72rR9OTvJtONqPF2cNftXP30W0vVRCc11ErhYL+M62UzVh9Bs05EWoywszXhbPwzr6/Kdd6s/e07K6RcNgMNNIrzSy2bysdz/zk28+mgjop1OpQ8l5Dhl6Y0kvOjMVqrO09nmx+nn6Xvn1+WTtDtf9o1KELhQ6UdjIMzZfKjmrjGWbj/JR83y+vmPtyff/Ob1/msHvCanMKoKXIeLUI1mZ7/9/149CJcT6mibg3B1b0t9k6+43qQm20YZNdNHHVeP4k+37QtY3wUl0OAEJl6PRk3MX6VRKDF1LGCQ/fRnb8XLdTUOi5O96y8YcMgG1WxMFNN1Pb4/r9/5TO6EFxhVdRUkDVG6SZL5/uXO15PuOvKkfNXJKa+2q4ubxM4FDGIrgraRxSTG1ba3uxJNZrzT5L1nSGeq1bar49f7E1/Tcyt0WJfpytUnd2T0ru9PRy897hodC8s4hJS1fRXCuuuzjJUm/I3dtW6iZYBciYuJUdQ8VLHvLdlMog918LorTlZ8Gznu26NLOi7Fhf2WH76uhAR3MQe6L0fax6NJ3Ydvf/Cnq/EuHY2YyTbQoS9gGnrjImUyKz1zriowQY05ujHxOIuYTmbMMnixVHybRpN9KmW2STNYt7mXuo7j62bgr/UBFuQSjUo0Ii+lWvbr8hv/8E+eEm1SHet+AGkuFkvPdZjENH8nrxK8UWZ2D5adlCXvWI8424aayfEOXUcUxneCdP0Q3t9fpZiu7n11RWTytxGRm1TmriIyO/Hnfvq9j7vuxbu/E17W4Wbvd2IucuIXQ2IJabwQVBepY6fNnpIA5kDFRIoctqpVbGydhMQbBt9Bt/XZb977Iu89jJ9dp0hfR2GAH+g6WQluQJ7VrKfhZjF7it0NFqHrz7dlZQTvw3xX9DRRSpGe1HcKcb1TcTMiIi9JawnQnrwNrLH0OblZaS61PV0cPRj3g1VodyZcmH7pCRxwVz7ss9XMiM2dk/3H3a6r6pp3u8L3ti+ySxmGPJrfjGLQNv5G/ZeznZ7vlgZ2iBHX8MJiRIR05bVkp2rrTetndx5wc7ZNpYENDpjqL2DCA0NhZncJ6mRDaidpu334wYf8/NupX3x/9dGyef/OR18SULBY7+anVSf5OXItV3Jav6I6MVKYjk/qZRczEEaSu/0+x7rziU8efBOpfzh7tebiBhiD2fNBq/YDOQVVzMW5kGeWo4bLwOXuVcucr7uffuc/ffoE79p2o6aTtB9OYvGmXPAM1aybjwsei63TZHF2Z3T1yfUuie0pVyOrm/dW7fboJN3A3mtWn77oNQQuhdxC9q+DkADyzASiSk2IU5dlttivH17vXlXT4cc/+d1jrrk4w7hsKcwr5zDrlmubzjHa3wkPuF6/nDSn+z+7KTY5koB8lK/aWp4u3p9M20+fzMefnfp1AasSBzZo+SViAsCIONphBTrFEGxZfOtxQqPdLv/ZQ4+xeu+zPWBwU44ekk/3mbgrNFqEy0XHWPzVx1XDQ4ZUHFp0Dcn8rV2149EnHOxJ7kWpUAVVYiY68KE3aQgmG5yZCMkZfQzbavFp2A3ygX0+vLD1GO/qJ4M6F96OYm2ln6p1wh6C36jcf3tztXpUdapBiSnFca21Xxdb1b/2ZDlaaHGDuhCx5rrqD5Qcb8gp3IS5sHI72/R3mtIPizgfr5tJOP61e5/2sG47XMNydKKhFN4q9SKWRUxVpy2G9c2xpMmapQEw7AZMPQbm6+aPN2EnwYXVEaxECqS/2IwOEhG8REZxp+76s3m0qrpsjo5zNyxKX30rb/N29Co3ztCoq5BOFtiua15gayPZS+mWzgA1pRHwQCRVKY32pV0sXhTGfnme3IuyGlKuYPwaEh5kOnKHaHIIAd3uSTquZbEIA1dq3Sv5VPvQlqpUCbCJOu/T6Nwv0nTyzrYfyDtZI4aGp30ptdph73dChVCNA+5sNpiH1X7omBxc9XAHvZnfBxyW3OHiJHDluL3KH+bRg98eee6BpvKTDx/On2OPwkxUZTXEsDYbnFj7XI1Djvv12I4qJSmzLnpytkFCn+I+jMKs6PBsyn2mqMaIUDnsj5GTUyAnEIgsjFSN3LJdd7NR/xX9roOGeOPXr+5882ls8qDJ41CYYX07iqi95BUmjVqpxnBwRUNKGkzYqfEsMtW9b6JpTJsaZIlBSK5spHbYhD5INDjs1RYFF2YX6vfuMv70pBbeDLLvq5tBboYS6i2lwCkMuOLFQEMeqJK1Jm+ono8ao8q4QzMety1VkWU7lFp2XoziRHNHDuLiJFH5dnUYCIcQJAkERgEjOJm6V8exj0Zm4S49XR65ule5zA068fBQ+0nshd8anrJnGsHTJd+t99XQRlkIV2PClK9zNWs2US1LVae2CoVNnSS4+tcDi9fCtbJQ8hrZJBkkPHgkVzokiMudV30Kk/BiT9M627lfoV1UHnvSH56fLtG0PFcK24uztte+Dvu68kltsgdxMInlXJdptNlEU8ft6+N1EiD47d4/U1GKpWIo2FSCdlQk7POeZvMbfVTzi/kibW2X1rnuCHVxm7Y7hJRT6lhrtCs208u5NA3nVtFjHoZtO/TDW6H9Yp2Hos7OAieq9Bc8QO7kygf1zlTgrizjWrbBY9PmKn6wdOpPHvQuVSJLIOQzT1Xx8Ubjfj0NXOe9haGm0s8n3bKKM1fZt9PTpuM9qvGRr7XUBAS2Ao2eXo/PD0FIgBd3FgbYAXLm9OW9xU7aRGXf06s0nVythsfjMhAFyxzjXsz6B9th2GhVu1rnjRtDUEWsZMccW18NJ13H9Ymre/asIDdWiuRwxy8UIjhRcEFxF+eKy9EJ73cvj44doL5NpSvztBrmj+lEn/co1IBDUNPraRoQgoOKRQ4SKPY3wTi3ri7S5lx03NQkcWRQd0hWlzf//WtYfmCKTHAL3Ny7d2yj5sXlbtWPmbQmi7KdtWHW8S5PYkzUJM9nww1l595dYU5QEgibK0qH7MS5SJUyRIxg6mNOSTp3VlIi+loiCbjl5wQPRapHd0/npRqGY6qaeXVZ4MLdUDV7bUfxpehO4VrH+VrTPi7eeVE60raa0VBKKCN2ZydQSk7BZdbmfYhVazPrSkdqXMBRUQ5XEm+a0e3pg6nQnQ/q3NKWEY6a4HnUNn1pGpr4XpR0Z7JLtdYN6EbaQNgOwZjgg2WQcHJWYtQRnKMD6j4SDcbzZbczK2TBYep+OLp4YwAAkOQQ6egdGVI/LqLq1ElGLryvRrtdJkt1z/3LDlUTHTpUZna6c0iqSbegWI3YykBVLBRO0zI2u05iNWnzLp6sdrs+EJGVSAbI6zL42gDywz1OczwR82hVGUKfq6A3LLvcd8Nm6iykKbXgTkKIdYWbbcOrECLPa5cAkFcuZsIxWdFxZ/N+8HFpyWi5HMAwD+xGAJuHr7PgthfBGaY+9CVYD0gRa63WjnKdex61XEakxlyqcbuf+aissgwva2Ju6hIIFQWkptRTtdJb2RBrVY/qsAGP6wEVfBALPhwukcje+OA1IkJUcKj6MJh4KVVIlSupqIQh1R1jmJVaA12Xwlgebzc0Jum5RDeL8zB0kULZU1LRYjZDN/IBMngJtWeBWQSsAwQWvRBbuXVBeL3Qo+Q6oqw61OKSE2foVis1DWOtzloNpS/alejVfm1bGWVBid514iE0bmSApfUitlRXqd/r3M2iDVQ8sQd110CWNJLR4cLll4NQ3CGRbAC6aNxXEzcPhVVHOfm8bputToSD83RnVdmPgqGvhpBzFB8km4CRdY7WpKg2xNZ1kSTkPozYpXaqepOqqDjob8+OneBKPqqSlWDmTpkGN++TZww8yrq1lKsSs07aTcuBYt5WDbHlrQainYfgPpQ+V4EqZ3J2sKoWd+TAhCbtXV1LFRIOh4JfY8Lbw0OHiO1VxNitCtpqxd3I0qh4jKFLGqQdxd0L8SAqdZ8KqixDZs1IOvZByEJlZhbILVZFK+8HJS4+1KS7TknJCgFQ819UyQ5nPmAP1EYU1NTnUpUeNBh5w52JyxCi8ti02ocYKeXFeFd08NinIu1R6HNw80pkoNp0H4J57X02E4ew+jDsiqpB3MjpMK+hN8NrwAnK7M4JtAcVK4MZUo5q7mIDowR1itxmIXdDLMM8ZYR6QDGyOnmGUcMcEg+IGFcJNuUUY1YPObZtyu7MogomgR1WGun1xIScEE1psBKrAcatiU0wDB4x1IwRMasN4m0Rsq0yd5arLJ6LE3Ga2z7HpqnJPUTyCC1SfBpa7UnqynLfu+hhbE6AQowIh53SWw84OUgzRe8DOSEwQuKsichd1GHq2HN0RAWRoKYhWEm9Ro8lSVUqiCgmRqymMpSqTsO+QxMJKImKER0AmTmLgW/Hhl9zQzNrJaiZiZpYFTp391iSo86FRpRbYeu4itazHe5zlcboNcWuYFxIC7kWiAxicYbcdcqhEV3GXhELK4kJu5KrEznBQeSHe8ODYdAhMKGwW1WSlKJRENycY+pJ67BUCQSuUTJVXIA6c2XQvgDeRB5Mq8BqqtnMrM8WUmvSD1EKDAQiN5Dj0BPo9uDxcGRiTE5jsOdQPHYKdvdCUbMohbpQ7LMTxcoGB5v3RFVUqWI2i9MCtZLU4b5LxVQLR01J+wDLzpxBcHc7XBHz64vHw1YtAQ4Wd3GiQiGlsfVgSGZXiBhzV7MZtIIVE1WKYlazJp6qKdMQTbwuChPtu5zUjaQ1YXdlEzY9HEkSkcHd7faq4DA0vr2wqOxwAA7KLhBGndWjUa2GyguRIYt5I10rIAmRYB4IksKgHBg1oJqkz9mcQMSkRQAhNWJwcbJAtxtEDk23XZBueUIMRiACS9U7EblUGcSuDFLniBIEGaFq914FEHGoLLGxOWWJzqIBgw/p9YmzGxuBDGREEDJ3FyIlYlJYLrcGvNkrZoESOXEq4hbJenhDycQyBwklVF3RisQQ2IXIWNFs2cVLYIcjeB7IFXoAuORG5B4UAU5KLA4UqoqRqdthi8YPgASAESvDybSQC3IpIebgVKEee0IB0yaFKN5ScAakJ1DohTQJMzm7eUrIB4jsriXABW5MJgVBFQbJ4KIwAoLqbSCGw30DDmf2RAA8EyM0HKw0k/Fo1Gi73Q9dCUxCmUiEgyH0WqdIXgGkKt57yaLKB9ZNkYnNDWoB5GbKJqWQsZHDrMp2e376/wPjr4S5Nd+WKwAAAABJRU5ErkJggg==;fontSize=15;fontFamily=Verdana;fontStyle=1" parent="1" vertex="1">
          <mxGeometry x="-537.5" y="622" width="128" height="128" as="geometry" />
        </mxCell>
        <mxCell id="xl2lfIINvYw0Gv0UvHsg-30" value="" style="shape=image;verticalLabelPosition=bottom;labelBackgroundColor=default;verticalAlign=top;aspect=fixed;imageAspect=0;image=data:image/png,iVBORw0KGgoAAAANSUhEUgAAAIAAAACACAAAAADmVT4XAAAs40lEQVR4nAXBV69t2Xkg1m9+M6+4wwn33FCBZLEoqCV1Uy214QbaL/7Zhg37wfCDbUGQWjQpsqpuPmHHFWYOHoP856U0lEBDtJyO24nwMqZS3bDSwdCqTjzHyoOrXaK+4frIGDMKcBVNIWhbF8TuiRXKCT9vikuiRm76iTNK5qQx6MAYAUwJKJrBBUVI5MQWRxL1yOnKCG4oXHXoXJoaC22kPjFCZkmX2k2GELq0ICGjRC6ahafREUwKIPCEnKhCDnotrEap5rmDIolIGTxfq6TLoBsaA1pOMjBfhd2XEAqWJJi6Chkq6cnfdbBi1YkSskpIsFlokHqmQQbWhUVg5pDppXWMsZJQwbmPtWCRXhXleVQlZulJIjUKxLR0yvdX0rDsMTHSGky+VE7YSpLOOomloTYLJ0sMLLC8Jf8JSaaAkWKs2zyD6BJds4YqQ4BcqyAJIbOCARQWwwqL3VVkSaptLZBNmIggQWYqFlqkuA48GG75uNZuLrkNIIJriiTEx8qgW+JQHGF1xUARsgxIiKsJKTdVtRol9k0qFWINgZCiaSEuJcYitI2E6iWlnBrMlSD0tKuNizWL2iChc62tVPvVmZwbvCThk+aLQoLbQj1UNpCkz7kn0RKbMtOARLiEubAQUsAuCve0lLD+YqtQiaBfCPFEGuQcSiYvxQQs1LqVSGBdJExZh+Dp65ZgrDVumxLNoeiKpHCkwQFE2hialMsztaYEpFZjutaRqNrHVAsmktDWGhsJWspJNSEKojd1CTVDN2Yiim8oasgoZOTFEcY4FbFWy9brPDKiSr2yQDVVZHGcgLpURhVxtVFc8kSLWjE1vA1rJZlGBjxwUUkSrqiqUlGC/JcUaWwz6kmHirQGDWIlpSmdXCfgtlIokiCslIhEgSQIKoNYOc8ksxKR1uplMxHquAgJNVmaSMYEEf3SVl4w88AIOA2LiJuLrqlQwJggi1SBs2RVULZEIEGVmEtfSiaIgiseOYTCCGAJNDWezy11MQ29C51TLtUWgULFlJvqmGQlEV4xFVojzyIRIRDSooFmvujSZGwRHG1trJRDEFGlXClF36ZgC1dMsxB1kHaphBnFpTJLsag4xZLarABRu6xHAQ62jgUmZaEYCnWVIlKEtWBMhHGFTkEolNmYPG+lKw1ucrQugyPQrLlQJEE6Qivr24I65yQRKmENdAZ9VCGQBtbL6QSVIIDgSG30SuSqJJjosZ5FQh4isp0IhiKdMk0CKcteoC48BUAw5/UCskoz9Ke6QrftE082A5OUJNMllIsEszpWdFQIrL7cRTERQiN2/MzkgQoSASLzFLlrGJugLzStgkJtTWZkaUn2G6LQBdoAGSBFSpGVI+0qzXRhqmpXYNb03JvcyeigYEs8d5xmOvnNwidRFMEdtspSx7a5hlI4GWktVE5cfZUkYc1NDYSXFgkxU0FIFcMBKZYu56KvtjhKwfcug2KqocFQnEktsSiUjlOi4pJgbPtQNsU2bq5EkLkUTQ8dQc7ikR1otaU2tCZVBidr7JJRpl/qmBZVVOYhyhpEFm0t8qU2Kkvi5cqnXV55FhGw0r6qnLOkWRGMpAJzUB0lLrS0VtYG0/k8Kx2jKjQTi5kGQWdJfNpwRmnlWCLSQujCMorEvd/GSlMkMQtkjnFe1PbD9YGEO9u2gV0hU7+xmcz3k09VmdJyyJsw0VQKTQJXoEAiAe6z4swBv9yx7qpkCDRRhzzRSh2mSFiJ5PecL5FwBrqkdmLS7NZIapOj9KUCZDLGNOj7et6PKtQjv356Syt+hJyt5LVkXwgr2o8lPbdcLlY0KcmF9jXlotBApVGG3lUaclNL7lJOiVUVVpVpDLRhNCVeIQqBmZw6y8ojI9CtLaQEFO3OW/bt7/Ci3o3lp9LD/W4wN+1ahgS5fLQsY9s6V4unOKBPypFIoCiRpGPgyvasqkzUFyJdU7CiZ4kmGtGrzDPhVJD/GgMrIEqVlgMHS3nKFLPnMgIIg/Rt++ZKgN79coo0biXGwpeVU0Fx3DOPl/dCXsJzGkopwDfPmSlKZ8JpigUbC5gjw6FC/dIFpJIkXDd5UXnaAHOLaBlhPop6pvuCJBdXINU8UNtSB7yutevLrzoogX0NsjBYr10RgdEh1VMb0wN+Bz9+9BZ6GyPw+mwYI5kug48pJ0YujCWJpQ8qqVvmYhsY+C4TXTyz7sZLj+Qf1iYRlghNTS4cUgaFLGy/YpNqQPOw0by5ivv0F8PuwjRde60kfLSi6Vg04V1PN5cUXqUv8180vw6ZKI9ec0+NiK1crERXtquK22jGEIIwjNXSHlnkEEH5kpgGw6X3aqDHCuC0NIm7MBNJoqrwzbfpuvwF1emlVx1LLteVBpLF3RxxKDKv5+1q6n5+9W5Mnyb7/zHno9wmmbEDiNRJXWk8yaqO6uZyHWoFwNxcRdxORKYSmSL/ObdTYNhKiNo50pqCQbJKCiGd/eb1qxf7GAc1PzW5h/wJEmO09wITnfvadwaNXcdDxBv24/395dF8fc6p4Y+8P7OSdABGV6ylNoUFGbXJTlMmbOSmUki9g0j+IbECGOMIVq+bgGythGLcstWNv30435jsf3EqyOzJFcDaQavmLHbzGhQpWl+tKKJwKL7b+O9uun99OSUafMeuUANhIhIB0UvAlEbjNQEK0Y8pxtDkEjmN5L+tagapsn7RkLil0FqZCSl6fvfqb+H/XlZEaoQUpxkQMyDbZfZsSVtJdAClSftVmh27ZqCtGV/dZPLv71XGc8YysFRSEaFGhVkHEj2XrNaliwUd+iZnUiq7YsycXFozpgQJtQuaGXGWRb/+68vH4JskxwMskSO02+vEVU4n1Bv5WDoqXkrYersU7Q3XcW6+PN199w/v3v8SLqFFyhEzoWsuXRJ2IhxoYKXoMRIdaOlS7eicyN9zQwm4PQTgBghiIookovd/f0kfzatSY/eMo50GebpUgJuuDz+1PEU9Fckvrok5yLi3WdH19m7575tNc9/uPj8vc/DdXLQ8DKGGRKU8ckFTKXztMMfGJhl50otirCKbBaXNEh2BSlMhZeF1+73zBvS5yfaSM1s79cKHRRSiXPN2sk2ekYYi6ueBMOSJrYnzbOp3ysxQ0o+/MfGXpye2v1peuZVYMSiVkyrBDFW4xvU2FdKlxrFZMCaBXhgIWFrMmavIB/qb357/WOXBiJVTuuZfl0eDTU6RIvsUihHdsxLzjNCyjE6StSmZmIuUh7rh1X9tv5f7L39+OQ7JepJ1ZZa0kejsqKpQopchF7lxWFtknMzgxWisYV3oCOMomfjt3/cpVeIaP4RcCfdu2Baf02vMIbiqtgwi1csamRW8VTFzmegal4v15rTAHP4wk83//D+O3r9itc81a7QioxiAZLpSWUJM1C8JEusMoxxXIxSbVVmLFlMd+9+bf/vzWZD78014c6YOmjvl5thFRoN6MCnPXZumID2xlHmqSDi/7SNzNGJeGspWcfqX/a9f/Zdv/6/nwJeKypSgU/alpcSvCmPOcnFk+3EszIqMXtEqs1CprXTuSvfDd5v/7RC/V3O6h7rtv9ymlD6Od+Ei25rDqpt1m8aT8PEmjTHhjQF9o9SRCWdJby1vyClM5fzlb/6e/vcvWayNJ6lzuZJUCDBKNumcHFaXB0aZ8mYkJXehXpWrKmiTv/vhP/yvH9uH8BOX0708hwe/CF5Eopl7UUO4X17pEsepFbo7lMylNP1OTOm0o3Vf5BXIgvLGied/Kr/lp0vZ+Fy547TikJEC11dsE/UQZRSW/CPN2RFBPe3yykJr9N/+SD5/6LrPuYth+XFzyYQWPk7RrYFr8CR2zd2Xbk7grpWntCXnTdrmFn4+UAax9KqCj1lh5Dh+M4R/WmFBCR4LhUQylHsfCPcGM+eGIZKVFcVo0Q0EFhs27nUTXhT7aavJwt8C3+bTYZK5GcNv/rrjr94J1aQDI16vgYvuAWSXL2hLtGUIXDCJSFbqJBSaeXx83v3ja4pkcT5BtKJtaXdxsUIQKROEZWWFA5JAmcYIFUNogYhH4tS7YyX5ksD3PNjBiNJ9d6m9exy+r+e6qIui46MedmFz6/bIx6XO0CccA6FrYVf6sstrV4rVpx927//ZlLCzVZRYnK5GOZ7YylgC2j4wnENRyokKGWpjtRzffjk55b4OdNOmlwnMw+7DBYeTfsgMI2ll3rvhQty8r8P2ujSnbywjMdfEeb3Hh+AT6o0d/UR90rDM5e0PfwRinkftldLrkvvaMmpoZiUS94WR3pJEFLJAyUo2zW8e6r8uzTXtidmKZbo3wd6Ui0FCT4Srmvi6e8zBp3v6cVg3m3Ly87Bzy+aaWRjWzYyrbsW5F8BWtUQF5v3zP/zX/9NwkiPNaQ2M5MaESDNFCrYtrCYqveeCRJ51v93cxD9cOSlNirC8k6siUYae/Lxta1dY5pTQy81MIx0P/doLfX5wih/vxlhq2kwYmR0YvVinR4q28alRRTz+/s8HLMQaUbQyMaYKctLF09LZymqpl5FOygmyKnrT5v/nZb8h11wG/8eOdNdxMpvY/kaLxjkqBnOI22W4RrY0SKWtRJF0I5ev76Tabx7tZmoFXoB8I+YbuiaRL4z+m7/towAvaepNaUKRDqKsmRYA5llqQqp1x3itknZ/s/yz/zU9Nvfnittj/f6a8hbWg9yWNJ8JUjWFba7Lu7yUs71NN883LuClzTuJkmr9+lCF+KzZ22yjhUhKBunp6eXtbz4gjQNJyGqzekoSlABIS+AMvUQGPjKk7c33zf9xESg26anKTe6ewm3TnNX5bg3VRr5R7E/8TswBDxnNDptLrEaohaj9+vSqrrM76RYMIxJ8fxzWHi6+s/DQtbs3XzIWo6DWdGlLlRiwiRArowyKrbFQxq9tAfVP87it3gg11IzsEzcrHxOBcR0XcQbadUcq18Z1jmkcyXfT/eMGQ7dcyGtI/Hnr3t8I0C+1KZeMPSiwtOal6k0DuR/nGNu4jrkHj5AwEh3BsKA1MStQssWV7l8W8bmho9vc1jCZbeAPbZ1JdTf0lTvGfRrupq/FMD9a037pLTmPQPlZt4jvH/grPbPKhC2W9pdmuuHASAeFwjMv755j1YUE3sxdLCwQzygzwhe2v64gBDPNRYjhMKcrowrCa/7lgftjYs2QNSzFqHqnWtgcHoUquXgii6cmDVvh1txzbY9ySfBStl37dNXhKpSZJh3625fC+UICXk7tgpWkTDeOF15z71noVlHYJNrgmGuSdM03lN7ma+t4PW9OQvIRKpVfkwim5F14sDQG5rXL17hrk6FnVht9HSw9n0JfzSNrd8HPoTNqnHYr3UbRz6LciimPtmkWGtNoG5j3mYYKFUnH1sJZcgqAM4tt3b76PAeJMFMKj/KZj7sU4d9vEt5ea0jkDFMmHbJNrlVRu/JmNu0BnN7B/Dqsrqv1sScx5l4+9UuvIlX0Vm3Uz6Q2a0spOBa66kRxTSiYo/ALSYxJFTJluYfIf0Uy5N5tqVB1Ox5Oa8ZM7dn/6van7H2M0tLRFIo9tIYRpGQPnxmj8dC8TmdJ5rrveVp2YS7a9wAbccp+7SBROu+f5cr4wBJbBra/slyxw0hqWlimAflEuxg3Y3iU2RD3uxeiJcj9V1jTa/npZiFvPrVi9cDdy9j4UgJ5oYGh8XNQIYznwTa8DG8saX3pHT5R7G7Sma42nNvPm5oN+SYezkWElOE+XoEQwyk5y6itYpWNJhHqM/FHUy2s3bumPWEkMae5WfO6bl/8cRkaprlMLBKTZjl33YP/Q2FXMo/gNH+2uKu7NC2KL264+Uro5RX40403uqsS5l/+9jYyjlkctjZJB0nHPHGKlmZGs/dbk4mCB/ZkMuj26/v7MZ5vXn90vLylph7z6XY7+hCL2P9MbipTCC46ktn04IN2a7PUo3/6gZGQboxbKX9nLoXVfLdCd3fmEowy0MjLlk0dmhqpeXvWC1UrFGkZiZGTElsaUntmbUzPTH7ZLxfd0G9eLImH1F5eiGBrR9aX9utA27vlK91K51jfvnlxVYkrGeFj/KfXemo+0/b0Ody/6qBWZXO6AmyHuy8ufzBrsdj4Q8MCaWZSfOMlXWnDApPB8kITLZ7U4b0UNxZI06qPv1/81a199nvIlhJ75/szTzgC2SeWznIYvr5sPCRbFBN7ATc0asroVhOaxeald8vC8KhxgTOPwd5OeViLGJ50ILmidF2tfKlskyLwitH1DdDzZ667LQtpo7k+qt+dz1KygExmr4jv4k17Yqe+V5d+2RDB31BHl63aPLere6cb5Cuz387PD+F80/qDa4B/6cbnoSalU30EdIHQSZbKnL/BXFgqKrE01VRYlxT2vaW0Goaren0gVx/c27OXCy9sq8SNssdKfCjkqueuoZLRa33zb2PU10YPX+IrHsPWRSlerrJZkpuNeBm3QcMBCP3hSr7/X3hRjia9FtHSoBNRNFhWVxZ9Q1POFa3PTCXXb0/e7t79KTm2Pm3K+bjBpiF5Lg5EjLNKgsCia+bNo74o6/g+e3IpN+2wOYmsT9Pu/rZ1C/zq338twe25W1N5767p5kv1sKfCO7RqLHMJoeFWjgxEFsAT5/RmsU9wMwwY4PLMxCBNs/m03mhoVlbw844HNudPnXzec6Km8WngvjsPqsXNL02vB/axKrcgVX0IFtX14bNXYut8pk/dyH1WWAtxgalUAhJhZQDHPEcAgehqNbq+xTGiUf0b8IcnO5/zddU9rfN649j0sHWm4VVPj2OfTdBO3UiRtthUCOn1ZsM/P57+rCV9Ja7XBFMiWISZc9ncrle7i9d+JAqQpsoiQqWIhpeRKcYSsaqwOrcprVfS5PEgQ0dxXW28yzZYmdOVjPXee6YO7KltNs1ku3gedehChU46V7Dpdi+4vNLd1DLOFlpudTR3UVzcM934dlNOzhmTQyS3cfUo6gWjKNmwKthusUFCuXesOijysudTKYKVPJz4rT5+4Qn9VO7zBFL3Tw9hOa47atSrpSBZqtk+W5rGwC/rGxnzp9xWB8PnNh/jAdompC3klAiDQ0VZ6JKrrkNGKh02C6MBGTOp6BQJ0dneyxzvVdowJ9ddq+8seexevdgsEvugLqtSr3bqOeV82pTLwCK7Kq8jdARserSxhWvnKdqAa//xltsskol5jbzUecG2dROIAnXWK4s1ETY3LnGamc3N+dbRzPiv3v4EwzbzpiCQ7OaFnEIdWCN4Ne6xkyNe3bBt+0vIVJLI1zCcJaP6cctexrZeEIdp0zIFy9P9eIkirGPyC7uOvru3oUIfmWWVO0BK+YqQBSTqGCtm9NFrUpbHrO3KDK0ze/0z7ygYLE9l05MAOAUFmJ5TGNqblwRp3gTlKz02zeE8bZvAObnI05gOuvOOzqYuGz1XXinrZBbjaRXJd1Ybj40TzO7CpYNEMFNWqvZBQYQh/+QsNyn6Pe9/3pyWu3TGRvk1V8o2qoqvHX1LP6nHPk9alq9vvFhJmY7tMH8S8M6xHw5Vj+s8Txcvr7YIeTsF/nDmR9rY6xIDxtQXz8tWrR1tlgKsxkJYqKk0mBhjFzZ+CdDPl3bbZ07DCTCUzGgFWk884YaJzePN5uksNy/bAAeNny3bIJKjtIP4HazNWbgcLtckrAGmWhaCzrU+POxOH3Kvgwjx7WR7b7Jci65+Y5olsCYaJJH6Ej7qX7fzmVL0q1B/NoNpZX3ekV5e8kxdBaQ09Jef+6v2yGDuYpNXgF07vI6yvrLX2qhD+/JCaXYpKw4+MX6higzhsFDCBVsisRLWPKTlKkISoawgmK9NTElWbrfbKA9dsvUQvX/u4iurzngtIHLKaeOlStkHVteNPMAl1k+lpYW7Lz++/u4cl48wv22hibn3TnQp+VyRCRsi2z92CDdx8TXvKhJLKjaT9rLNYUYAJrlVhJhOGLonboiJQkpXtudhNguNhNwHy6ldtBGG7c3acyMojabGeZEBXnPNPpn20n1S4VRjCCaXXh1Zc1Y4DaRBrciS7+Kzal7yvLMMJzVt1ULqsSM9NYDFtBW9yIV7PYmRpqUQ0mkmtc0GFJWfImjOg9iaMhzd/V1cPtKYBuWwJv3ANsM35/jUyTXtHprwxXUeV+dz7EvKUt/c/ij82qzXeDoAI+cQ/b1CL2TOm2zQMY4123xSmZSCLh++VptXjilG1iGpE2HHbriamPTzY8MLNvQkSDys8y9Jxib2UBQ5/Qo3k9nt3c5ZSMvtTt1v+M14K8rBnlsbxRt7+eJrLMBIlrz4ywTQoKkNiagYj552GQOr8fzm9oPgRl5UVHfl7PZc0vDt+tN+Al0GZdjBYzfavnOJS7Dj5pa9TcV+uhNDDmrRFi+xNoLcnE8i3F49B9XMnyStabpNo1v1/coVHBOtWSYiq2eDpSyJ1Mwl9wlZDG/PUY602Hfr14JLZk1GRUsel4rCSDo0KtGORuj+3dIt7Bs5v93/7+eLp9fNo/uFwmbKY4pHuZntdKbK2F3awHG3Qe6F27yJzl7G8YgE5wJQCDU1MRbzIkOwwjWyju/+HImkO3L7oZGJCyTaEypIHNy0Y7MG4rAxS1y3w/j1taT5h/JTv/Nqcv9u+HNf2qKBcPp1TuOK5ttD4ccm7HJ1U2na/X+4/ondWB2VhACVSCy1jUhCm1wd2sxjYunb7/Jay/V9/F6YDonPa0oNL99lv8GnQvNTNu+xpXAK7bvffN+J+ZePv1ragcvdQ9PKV5BsvqazuHtLZnfPeOf6jQbyi0A8U/708u07wsUts4bEwDFDjox5aVEEXwj3Z+p//aY9fC3b5tOeE5CDG9zEEYF946N5l0Tg1zCtr7pHzS7/+EOGSZnNn8x89btSQ0jZYMj3sFfkC2n2xytI8XweaRD+t58+8/6cMi23V/iFeNAxFUYEWFZJYMwSSpxeYMn/0Q/PC167i4giTZFBz50SiSC2pRZ+MZ5i9Ilffxv+cLkjP6s236bQbNoXsCYl0ZAP8q7CxtNL9tK2kgHPwyBeb//EN4+/2at3+C8rP+MVM48OC2H6MlgnUySC+RzNL3/3l/H5hVGPYZZj75phFYaV09o7C8Vd8dIlXnN7O7YZbHj7wnwgH+C2ctgye7M6smnHBQ7j1MrefXvJDcoc6OXBXIfL+TTSI737dL1J1hND69pkxmOgjlFKyzwavODtrz69mZefYmRadMQ/5w7MM2beeJ9Is6xjhKS+3bNHaOOfec/r/XP5Ntvxp1KLDZJxdjnrwg6SQ3M9FF6vyxq+aW37n1wUh47c88vfzOT6RFzHPMuSHbRhqvgNCTg1EU5f4P6Xb4/TT0Kir9TzujDnS+qvTBSRKg2B1rYU9fhvzJ3e8kJ3fH48sLyzNamKXLn9dCEKgkswVf4gL8I3v+z7zGGX7vCj/9u4wq/+6NwYDIjkGXBxIrLM24JJpXT68PWv377fvvHXUEW6jOBpoinrUBlrv5bOTmXfsr9cd1EZbEg5noU5QCsvMchaFXCDMXRB4FzjxHLKc5/FsVtCfkhu+8z7zU9lxKN488UTZNwhozR1EAu3aiVrrWNSf/zrEcTOyfZqx83lKFRAFHMNRKauEEm3QxhCDdPusXs5tHDYarb+ObRREknLSoTd1J2jhXazZeVpkZ3GzXyplV0riXvlFubDmdfuhefSzkyTWKBdQ59lxCyDPH+TeT49zhvewimPthxgW0tPQjU1skZafdi8zu46/BUa5Rb5vMf5qiFUmaL3SmKYSsNS2/jKaD7TPH2vLttdwAMpqLFf5eMFZ4iLbsI0aPLfjFcJWA5bA4U3Qcq7Vzd4/fk5t/Gh/TpHLhRbmj5PdgyZ7MXnwm+/4o9rYt2Le+SN/1adw2xyjmIIp1p41wCEH04H5ULs2Gq+tzdLez4R0vwmj/Byjaln62FOiKIisBMRjhBaeJQRiRNGJkKxnc23ijsPDczXZWwhhHKrmpPLLa54THu3tttp/7Me//qQj2E1K9BcXhqUyqlu1cOfojYWWDXd62+n776uoEmrWbc7Pq30hmWauIArkytlwxRrZSnI6oTyIlGkdxLSPly1Sztb7j+clEVtivAuS8wvBrZSpy9G1VdU5Tdb++c4eUprykYtbNcJ5Jo9RpgI0mwKsPG7p7PaWfpgHHyeC7l/UaGGVWZJzKpYFOIwuqpQoKiwiDbG850K37i48j15FU+D/qmseVNYzfxuE/5yftgeV09M13rBX8s/3dx9prkQFDSU2jm/z1AxMZVI2dnEwneXn5fbHMXdZj1e8D7iOa4cRRJRWtZw1qx58DoTvPJCqihr11zC95vlzT+TG9tRIn7+7nWdo2fU6N7eWvK7vIhh8bdvPneyV9CA/qvjU1ZPzI4uzSwGJDQQae8J36TzqzMjL7jAEy7jgSGQDC4V3xA06tqUrBiplpeca2lTRZGk9aSOpU7+xy9Pd1JV8Y/b8ktTj6UK+UkFtjgx2JsfP/gPWz0GKJdPD26wF/bqU7VjKCU7d7fgNrM02qeVnD48vuvzNZZEP5u+pW5zcYVUWhITNggh2UwqxdxwHnOSljq2mVR3hFzCjtZ8vDv8emNfPe/u/1Lcala/bd3Xsp5+p15ePbGv9ZuRlU8jp7fZd9fM8s16DK+4MkxdwBzGiuzh+DKoIAQMekrrXQVhAozBMu6kyeLAWKIZWWXEU/DUa1G9PFBL8O5JPG2It7+8pj9SflPscdmej2Mb+rDkP3y3/6Oukrdxnk23CNb54fnpm3LePg33c0oLFVRuixoYbzv9CxKpzVONQIj0kUa6urpFkJ1VLEjpGC0JgEgDAggqWvINP37gR11dN3yMfG7NR7mvTVRPomRf37UrW6y/vhNPemMze6DH9Prr9//D9fzuudlZaZVrHmIi86Zr+CfUOKPGBTSfg1oMLUjJzQKLYr4wNhyzKF5TagB4raVW6ajdzGV7ldPHpkV65Om9JePXHjdXZlT+/GMV8RMO8zIzT0l3ZXz28hjIV78+Wm6Rbvur/XkjNi/PdVNPd89bnqEtB3op6SIgEXZpDU86NoQZFqtE7ogRqLt1CaPkG/fmYZXLwlAK7toHsji+rJ82mlb663fu8XYZVH94ARmqjwuyG/n16D40t7CdpmMZxabUNV0Wd1d0+Ggf+Mm8a/6guz0/LaVdi9fEjSTVunVpxcyAgOHcsSJFKb2LLIdX6iA6cT/pCOXLww/LNf1u+Kqn7tjMJYbfH82p/l285kHFVzkHWT77ld2FhU3SuO6W43vJ6quQZGhYOamYuVVNT1YRYjlwKcDDkrPMriJhLTvTKqTloptV4IVEC+vH6ePQ7zPdFpsa+a83xNtX4edNEicB/+/y3bKgONJbz8jZM7WXH01DIxAPid8zaas1rChSsl/btv16LW77WGlSc908lTY7rsHtr6nErZ97ujLaZkN52a18Pefbu9UNwcv98wXJYHzNG9Z9bL95CKLLy7SQ8WVf1lJ65GL+zNLz60XIGJ8KN5PdeT8KWQrf9+IvehiDS0VRvdydF9bUXGK4K7hwnzl3Ofte0HRNgqmoKrtsMmFxuOJF3sajnsU4VFJKDk2O/jjoRBrCyQ2fv+zNk4LlJTRPVSTdz1F5RrKSZhu9fRtJiqgELTc8aN35fVV2Q1kTIivoCKYMXV5VptpxhJCaSljJU2HapD5V7bw81eTg+KYaLYLvwjHLtv9YB/KLnDAYTl1/5eu12v4deQwb8ypLdpw2JN2UN9MaKvFzb0Y+oSwwRQnpWe9wncU2eBLGPl9t5jFQS2NvVpM8r6xg7lMkCMjcJhzatcWV/9Rz+02Nl5xzoGM+/Mu4bjvMbGUpUBj868ksm+01iRjkubzenUxZu54CWdb2gm7I2ZApxWI7xg5JdjqTQN/G6cJzaqqHJnZWF2o1Yww5WO16KLH2UTwcIgfFL94zBEUoZ2ussvzl9VvFTP8n6yOrHL9rRNHQT4d8l60ldAZyVnIiCHUjkRZWaEAWeYkTzPwVmXmRvrNFxqQEy2rwxBHbMElqZsLQUullQyFHNWk5nrf+Sn0akNPdgdVllBgaW6j3fqWN4+lF3+4u6ZPbb+MyEyddsVctSZRN9yfJI1GsloJctGkmaNNmaZklTRfKegnAh474pZo2suL1oaNsBpmXgYFjpv8CqV3yhWloL8mSCrw/6asm+HD19Nx41Z0zGWWED5fF2+3amZXffB1Ays7j2vZu081xLxcbcHTraNckeSIs8zFMIxK3c1f9QCqNkcdiRV3GlLFRjmLStdJ64YyJZkDWlrBRoXbxGOkoQtDMn8R4XFVotg9siNfWLv0ORd1kYWV59jdiw+wyK3sKg30ySt6Su20OtHqujuefTxDxvQ8+1rFelhJ0p5pMJhAlRKQZBOXYciNNrWVeBI79LuuywBmbiNO2t4dJnb8ksxm7svj8+bhNQ0/tZ8PZVnI6SZl4PTNf5iaW7OaXT3z0p+OFdjwiIYT7ww1dLaGBrBiWZwuCMtFKytLRM0Qbh5ADJ7klmCiW+yKBiS4cupl6cFh7nxxdl41PsN9/nO5bmkzpcgdHcYbtm5N3g37qWpLeK0J9bej109QjC/upJcBFrWzgHKg3omRx5E4Uu6vTS+2hPFQW+OAcZl1tD0VEzZHcl11k0wUTXHXqj4qj6zmZDfdDdpQU1Tzaplghu9LN63mOZDSc1zenjc+hJp5Ll04V8f2w6YNP/Tcn8mLvoFCPPus4IOf2knQ49QiV/D5znmpFijTAhubvdOcu1QnPSsjT1FUGEqOopUv4tfbVpL+aYixMxtrM520e6XLVqn266c7n7tosggR6HGgzXDzZUxSzxQoT6xWL84KVhy7CLixoZ8QirUTM3FSPDMqaG3L3fT4/fRB2dxOJvldaECCdrsSaWsXmpjsvpD8QOu7vPbK6stSRsLCI57vuGEnV6nXntFc1JT+CyHz2fW9NbTsqeduzal8469QEPbEQI3EdMmXXvlSW0xaAcvDPvOer4of7ZbZr4xFh0VS755xvrr5xMXcQ2QdxD+FVVFyev0ksDa1cTuTU2Mpc3/Pt5ImM5NVM0/1aaTsDRKdcvn9PGLNOOhZmBgyThyNll9RnTgKOIZMs03knyhphyEtm85JFVmXvDWAv3VetIUm//Nafd2aSUp2W1/mO9ReowRFuOWV0PJqhBCK8hWtvrqPzzUXf1MWRF15fOA2gqyUk7eAFC5HVATb9fLyEQOxnyK02GxItT+RUooRAXPU2mOQobZyEOVZ9VTdpYTtlM/m6brml/jGp6SUn1vM9+NL7kzVH4yUWQwLYG6zEWSn0rVBekXtVMrKcc8BYePESGVQlZEioHyjR7H6pGGlJVjvu2KwKgzWUch4pXaMy2eMmzdFfwQ87M5LPy+hxuwiwRNZmEbepyxeaIY8nLTZlXDJ00mSx1nAymlW2iInCtYUQjVRXSSNHxV2g/KYk2ktizhpCy9qeJREuRYdi0gjYq17TG3ZeZ/ogJm9V2+yosjLSkeQ5oOLUG58rS+lAbwXrXoHw/kL7u/zVJBkuQNAXzJlPjnscKqt1RBQik8KugjtMy27tQe+u+op1rmxNbjxrR1pgpTAL4tR3QdewiXDxrg39EOcX3cUWJgxsbQlpGDWeYFXjKj1GssuuoVMZLhfW8sorN23AHJrrjfGJOZSG5bIU5hknpIcgpj5d9gvhlYyPHKtpq3QkWR1JhEIBio87bZ3lb14sgF4m14sjr/PM6LWzgnMXQaCJ7aU+Q8E22bWHtQKrDpai/Bit1QlQBxJRYKI6GEmdBURY80UlmgDj++RqQ2haQClRgQKQrpq1BCfU0C71LPuyiHq9rIeLd4uf7JXlhLMeICMqmjZy9qZerskh5+ZF6MVlUvR1IdMlVdIF76wHnXQ7Ysx1NRFZZ3aWxdaQ6+/S/qDlRMYDiQuqgIRUL5kITsAKeG34xrJVVNLRs3HqgqzAaLjwIiXqByuEW+U1zFu9DjeLo+tKCmuIGA5S85gTcoqFxhZhKGxi/anurhmZq4wXcEJJwxxJabSkrEKmVVlPJBZOEULtF6ameZOrAM27Q1G+ER7h3QeWU+vTNTQOCj8J1yfOxa9SjFVn4oqSDWV8TxPhilc/xoVCaGaJZdlu13OmgH6x2RNukbrIOwJXeK4jT5FNjJAWVx9lrQT0mMqGZqrWT/kakmXJLWF34ZTkTBkDBM3INhAIw7CvjSUb5uUrGefHy8tirIsmL97WBfQqSE1JNwsQ0dVI/icXEmciSrmkrWyujkrQa29phUQCjRe9cXIZ0NQkgNbgep2u8mUw34T7+RGInqkKW5LAK8dqlCwN8TZ9zTLDQjiJA1l7e4nCJNr0PqY4RA2BBFtlWQpFFooEoJ62cxlq9ooRS8+shGpk4ZxcN/21cfLSCB/aWFz4xizZl1Fsy20ut2liOqVbbfWyY+JSejSc4yE7IJ5Bb8rIqXdm8Csol1a6+cJPOmXiCXchqloJyyFqSFlahr6MtXhHI7ApitHlgGzE8zYDYoa4iYxwNCkpehVnlVO8J+9jcgNNJEmeA7iNWjJc6Aet81xbXlsmF5lXNKmJhFcKjNYmkhqpi6khvvDAiOIkRXAVsLSlgqwLhUQtybmPMy2+WwIyLC0wQ7KjtbQiGtcZA+qIE2R19xTPt5OYidzE1a87aW4JX2R1tqPFEkeL17xODXVeXTJEeW2uQgfpXZusYJgSQgO0iBmSCy0oD0VZqkNKtalJeV9HDypUR6IEnG5gUlJh7F13RtK20RQ5LinJNRU7hJs0iVQgr+MmuX51WxtQj5PpEmCbGEWSpBtoJijEQUogf8ewRGTMCSoiVKpKiY2teaSdMz2Ek1D90tdSTtQJXnKfJa8vGVjRqUIW0rdWEvFCSptyLSlS5KXkknoamlCC9Aa5Cg5lCcoToBgyJyUBpzEbSpkG7yU5D3eLD5to+JX13NSkfKFeExKrYVOyGFnmPTrWs2lqlh066I5AOIXrBlTytXBaAog1psKZvfCiwgbOcs6pUiYI7VPiNQr0SfEkPNIsfKYcGVLnpMRBz7RLBjI0FGoupIA7mCkU2u+wRkLGnGxyWSwXvfHqttddpo6aihoLBZt2yU6kTZQUQ2aQTCHOboTCgXFM0RPJkgSxGpVDn4EgJpULq578Rx4SE4SIpOnEOBDkRoQ0FN8tcysEwQwqzw1eK0Hb5VqAN81lPNa56UoONUrtClfL+NJE6gOLxTclcoFFLIzlVDIyRJ9F6DMpmYRu5ryAL8LVoiyjFYSwImV2QKY9a+e5JOwWLsm+pXLq8tObbtKJ+sxXURDPkttjzMS0ZElK1oDH0UgnH9FKBG6EFw6Zd7xh/SxxOOUaJbOF1okaqWM2EDNgcZArPb/5/wHJbNCXSP9kWgAAAABJRU5ErkJggg==;fontSize=15;fontFamily=Verdana;fontStyle=1" parent="1" vertex="1">
          <mxGeometry x="-257.5" y="622" width="128" height="128" as="geometry" />
        </mxCell>
        <mxCell id="xl2lfIINvYw0Gv0UvHsg-31" value="" style="shape=image;verticalLabelPosition=bottom;labelBackgroundColor=default;verticalAlign=top;aspect=fixed;imageAspect=0;image=data:image/png,iVBORw0KGgoAAAANSUhEUgAAAIAAAACACAAAAADmVT4XAAAkVUlEQVR4nF27Wa8t23Im9H0RY2TmnHPN1ex+n8a+rY3ta1eha66vsIyLEggEQjyiol5A4j/BA288FYiHkspICJUQVbiooim7rrFv6+Nrn273q5lNZo4xIoKHnGufU0hLW0t77j1zZIyIL774IoIaLkBkFbqxUaEagJh2jaLN3EBzIxWgGomguJGEuKJJNws8hVQywokwsRChOdUlgsIAgnANkyAZ7jUAQBhMFkQgKeEISEAAOE4PMHEHw0GAIBAEIgiCQVd3EAECDAQlCHgEGAQgQXogwIAAgkAQQKA6ADBUnAQARCAg8CQRICXo7miIIEFIgIATCCAAAA7QoQSECA8H4O5woagIAATDSVAogMOC8OVRguUgRvUAAGYAAmcI6GCEBBhBICSAxQQRBF2dLmQgAoQvL8BYfkgEguKBwMlOAgadToiH0oGTBQDI8niIgwQYqgEiEAEEyMXqoYkUhACkIwh3BGK5Xb5/2WBEIBAtCArBADQQDCEhTkF4xGJDEJDF/oAEw8HwGgGBCEE53X5ERGMEFzcTkEEyIAgkISkAVQCCgoAudnBKiDDC6bG8F2AhBHj/3HR/GIgJAwIygPCQcCEgcHFSEIzlTAACdAl1EDAEJMQjGCFBB8ODThCAuC6vICcHhgjuHwkAoqdfGCIeCCcYIOGiAcIDRjCIEFcCEUFKkBFgCLC8IRBBiYhwMAQMwOFBACQ0IoIuwTCLewsASKfTLF8QEXoyDbEELyF+ip6W4EYRdwnAyVi+iYyAELEEG7D4H6Gg00AEXIIEHYIIft0CuHdiMoIRHgDjdL8RApIhoSTpFh1pkFjCA0T4KT7DwcW76CAWJwAooFAEzsWrHQH48r8WLHp/lnBdfDHIAOmnl3HQ3IkgQQsnQhY/EIlwBAziiIC7UBb7BRC2HF4aPERAWSJrOR5O15BOB6BTaOQJtug4eZsEEBJhAAMmwSCDDEG4QiIQjHj/bxtUGdKCgoiIhKZxilNoLJeN+xgAkoidTHGy+Mkl2JawP6FwwBHKxSsQAF0CttxeSDAIoTsZLoBhCRFIgGTAKRF0hALB4NecMO5PQ4gTIeES4i40xilkIggBxVOQ0oyELR8ZERCICwQOgojAyUhBQVDgXCDSCQl6QJZLAsB074QEEeKkL58KY0GkAF0IQFJ3dnl50Xe31+PNYZ7cvXOGa4QEoW6490zE8keEgEZ4sgW9ZUlLXPwcQLBrDgBJiZAImiwxEeILcikt8Wyz+fjp+Wp1Vw7v1l1/1liPL97dvB2bLY+BwBYUWm6bEMfJiHQ1IEJtycxOSKsnI7BrzjgdIMSXLCSuSxB5cuHm4+9+cL5u7352d3xtNkXXKy42Tx88tMN+d3d3c7dvLuKnVEkEIX7KTE7BKf6EpwTkErS2WIDsmweAlOBk0EMDDIQgEMmF/fPfe5Zff/Hy1aGCWbsONrbmDFtvP3jy8ZWl9je/+NnNgv1ACAEXBGIJV8ZyCr8PPFc4rZ0ugZ0ZAEgXsYQfGSLOxXrAxbf/8PJHv9g7jNZBjCm3ucB9dg/4djNsHp5f2i9/8cXMMCEhcEicTrEEbRCyYLEGCMKbvb+CwgCQFAwQDigAaaCT4o9+8K3rn3y22a6Oh6C5HUVS2GiaAkLXMFiki+cfXf7y05e3vmDYfVgtGVrEGMQC9BEk4DS7z8h9MxCRMj2CLnTKiT5o6Df+4PL/+kV5sI5bq5psKo2dskieDSJLmneEydk3f+sJX/zfn91UFy5w77L4JBAUByO4oJgYItp9EkyGAJByhHqEOuGCkIBSf+uHV//sl/miO9zcZvZWJnPVvHKG1ql3olmr1jcl89XVr33rovz8X352x2ghS3K+BxIuCOwBCSGcrXEJWHZ1oV1KiGksYEQQWi++/3u7n3y2efju1RS9RDvWsJDcSUUXLTqhsMywqEk0r4Z59eS7T1evf/bjN0eBMZYszhMqQGCUhZ8GWjvlPOa2RHt3SleQBWW1Pf/BH1z/0ZuzTdkf2NHm2gJQJI/ZTmEb6NgFGmtNeZPmkjYf/PCj15/8xSe7AASnPL4cgMtfwcmAtXsWecp6KREegEYsgYwHf/i3f/anx023K14zj2YOddOE1hBBgzQGkcmIHKWxG/qqydfPvvXdyz/9Xz7zE4F2QMjwkBNvZzDCK3GP1g4AWZdjYuFS1G//nfXPfzR/oHuLOZLVlZTJ0F0MWa/ndpjD5HR2KHIge+uyT6usBR988DsP//kfv44WIXYPTyYLAw5hhLRKIMSF2U4WWEi2OIKA/vrfufpXf8pL1GMVs4TVMKs3rh8MHI7X+2mcLAxi5iJKgWWlCpuyX8ehnP3wDz//R/9vYyMZgcUVQIibhoAWBcQS6hEMQPqAQ05EL338H/3m//E/89l41xqyjri6GH3om+TtKpXj3a7Xu7num5jTxUUYQqSOMUcetiyzfOPfe/Y//vFEeBAMcdBJOlyg4dLaQhEkLRaCGIMRahJkPP93f/DZn7Vn2M2RTLyCMaSkKQZhlOMBVyk64MaEJpIAp4VEY1ZiP/frwd78g9/7zz7+o2tTW+LAIUEsRQIkFpINRpK2UB0KQsIAgT393vff/KNPL3DXIslgbU4mF114HrO6SEOH7nyaVtV5JEG4Y5WlhTUIUgV1nrv//fgfPP8HnxYxnAomRqgFEeoLRWQwUvBEHoN0CXiyq3/nh+kf/vLqYqpJrF/P04q5K/2AmlWjHLxLF12SGGKN/e2ExKbbdTdN1c3EqNFSPtT2L9rf3/z3P5ulaUTIUjFhAWs/lZjBtPC5hU4vhWD/w9//6H/4y6uz+Y2Yrc/maVjrg9XYku9N11JG00d98s3cDxtltVilqb9cz3e7jiJgiRReu5n9n+I//6/+m5+1FMGloBKHAOq+lIEAQ/i+Oo4ID7p+/9+W/+n/efDw7pXR+ydPL3SOzfZya7ubw9jqPFoe+mpAVt692U3oyhwJsEMZm5fZVwoirLN9+5P/9uy/+G7HpXaLoAN+QgacoFh4X6aQIBn67G99/OZP8tPbY/Stf3B28WRb78bQzRm7zZAF6Hoeplrm/d3bd7tiOdVDaXU+1l6oSWhwuhJksZ/9d5f/5fd6gUPwFYddkvLyWDmVKTyVNFx9dHX8F+Mj1dIYoNjqybbu7/YybDuP/avD8GjNm5u7cZr3TUkmgtJF2VvKabW9WDHQOM9trqz+N//w4d//7RRwBMkgNAILUUYEwLQoE7ATb9An3zn/47+62uxuXbut0CsfTuPdC1ut+pBpb3KeTFqJ/miq2jx7nyK3aEVzzV3vewmCnc1aPVn3k3/yn/y9V5+6mTBIjQCBewklEOmULYklgz/5t771V/8nht3LkuXRxXHKjHgy/9UuHYYekromU0cbD/WxWuLG3FrokF3H6Ewbi5UIguzckykr/9X2P/17//XNUiuxBUPEnffF+qkyCgBBJy/+ze+9/Gf21F66Rrc+U9WY1t2H+My1TWmbz+e650N/N6XRVVTSqpuTlGA1RO/TAQFIC0rW2jp3beOf/9Z/+M//ScTyBPFYCMh9CZre10mhruk3fu32H7/5BscWsen352ux/jit0ger48Zu5n54fPOLWtP20e18yGVm0VlMVtiNvcpmUz3XsGjACk0kmszs57/8X7/x7//FS4AINehSoizwE4AsRQdIBv3hHwz/2813t7sd5xjOtfWbnlLevfVnj8TrFFkjb1Dasw+6w82xGwbTedzdzC0sOjovBw2UQI/w4lYtjOY//vPf+QGFIRIisVQ8J9cH7oEIBKi/dvWPPz/Po8XkKi77GKgru57GZ/l2LHS/Kx+uzOf+8eBdjhL7xv1oXKVRpY5LXZQQgVwlXD1S6S/b6x/8/j+9WeCXaIwl5JZ7SDwVaRESw4ef/eXmmd2NwArjXG2dbHi8wnHqH/Y3d11gMwzDPKHDSocuohxv9OpQ5nHYWiC0VBVG8wR3wCWJo5fx0/rtp9dUD0qEQMIZp9IM6b5aIcnt01/uHk77o7TVGXxXsg3r7So9G6+P5z2tf/zg0WqadM3Vag6dNefhspomCtPY0Vo7Un10WCo0BBxJm+aX786/+Zc1JHAqnu/LPgBJlhOEWsjT9kWkt4fUdw84n/cvD+mQV326XL++7vXy/PnTB21vTC32ypw6xRrldiyz5nb0McKxzrFjrtHgDnFoBaPt3j34sKuIIBaqTNwbHuleX3Sg+1a7e5rfuMqqw63jTEYTqUTfTfsPNg8vKePUOB5b2q4VtSnWm25z8eJNsUwbZ+0NebAS0jKEATFwPUxlGj5aHyIWJU4DthDS5QriPjHG5bdv6wUNpjms23H74Pquvri8kqf7afv0MtW9R5g5h37wL9/MaLp6eH7+ze/evB3dD7vjoQiKuHQhbdFhpGW5Cx7qB9vXAJxBwVKdnZwg4b5KBZ+ff96lJjnnPp89vr4O5tSuRzx9HnfrznZl0r669g8adm8/u3FoeLd9+OTywW9Md3V+u5/GchzP1+EllCadi6sfTPRle/jsrx0C0gTq97UKgLQQFpCuH/avehnZPxR2m76Tm1jtdXp7eRyexDrXwmyN/Ty+vT3czhUeLWiH289jfX52Plx8YzqUt2+srY5m0uskIt6klR66y48eq8OJSO5feeC9DyyZSTfzzupRN+fHqAdNZ7u6WnGaix9a1a4OOY51t3t3O3ljGuTWIug6O+sbrK4ePH3UVY3jtFl5JXsz7wscZh2v58cXukgZdlI478WCxJMsBj54tD90x9rFrutq2W5nH4dfvbv2+hKby21gpXP9+et5QmLSlNCnmS28VoHYdPvuLq7yVbl1p+YaIqKwSO4Y5Pjug3OahEvAScsh7XQHaRHjEOK5nyPfGaLJqs77Lj19XTeRJOYxtnNZb9v12xf7yJd5TudnnAP78nYKgalEs7dt1T0ucjGPYyTv8iZqDQpk8/ywe3PXZYakpb0h9t4H36tkhPTiLEeki4BsVnp3lerxbfd4lTaq9dAj64Pj05zOLpJ60tJlWe39zZzcGxwqDx+sVbtNt1POmwvtDlMLNPXpONnbcejojFA2hiya/nKAfFIKPClr2Zd88ai4rIc4TrqNIy5XpmcCt2nuN7+6+at9jtVwYAMinevcj4Qa2Yan3/14ddzX3A5bx+ayvHqnzkZtbWcxTkmcBvoix/l7L0yn5wdjdb73EiJ0OQ/fvymRJy85hfURXdeu12gWh9jGaAkqLdIoq/kgWahXHzx7upn3rby7S+vYrsq+1F7cY2a7vWglz6JLBiAgofZVFNwLlUGlua+GaZ/P8xdvD8025+VdXeX1KrkUl5vYfTlOoVEzTP1GtLT1xhvbtP61jy6G2zc307trPHnYxb5dxGqoo3vYXmu/K+eLfsdwWdTNExLcA5GA2Y+1datNVr+d3s1nWx/WuyPjMHa9d62P47GWKq3vN9lHv/Wwrn/0OJvdvD4778e/eTfflREPHkq7qyk/ua1g71YsohuPeZ3MTyW5BEhEAGD6ihDlB9XqSpiGcbq+TgMG59mT3dh8vpa+K3eH1Fpg/eGTKpY8awbYdWxt7KW9/exVTVtdJ5a5HcuDlR7m0gBNpcX5eDd0QVI8JLgo4ADE31MyTyE+R6be3gXZ9bY/nuMgSKupBsNHGX32quff/iClziYgrcddNa1j23Xb1avbeHBxWWZvo+ULv5QxpTxZVTjQSpnMF/HBA0sPBIADSc0X2UZkbpB5nptyAAYtw0VXbqUzjDyT4xzUllaPL1uw5dW8kvbldcl1hp51fjc9yOGvG3x2nSS+2B+gWqpauOXMcT8i4CfV+z4BBSL5yRpkDCl8rewNq2N+tplzN+v69ri3foW5zM6kuFybNWHtBnv76Ys6nCHGtdfrgnMeMCHNRRp3OaYpNGJpGrV8vvlivi8A/P76I3DqGS3i4vryoumqpotaKeG1lrfTOt3eSd/l2nS7sbGcbR+foUaTjvXFZ1Nrm0d8sd5WHSyYV92QSmMdH3e3TUr1pSJKqw+f5zeezSEhi3Z4IiTi76E4ZBofdbWiDF3hlR8jpcNY2l1aZ0ruZX1W0BJzhjm1dbmX1Ty+6jdrjzNq8Zqiqy2tmuV5V+yMt6VFRNCufvuDNy9K6NL+WATLBQod6YRJ4XHz12u6+YQn27Wcv/SPSmvkemzM6DUPVR88A2jUBoj1q/4Azi8/Xt/drFVqWtGY69h2h2K1tlXuKxZe/JvfyX/xeSNCXAAl7humXyOlFL99/Z31rvZ+t73YHJX1uo7FuyH1WImlpN71ZxPWdGrpEfJwe1cgcbfSeqtdj7nNzGUax2peSQ0aPES6X//d4U9+dFADI1vA33c0/jVSGu344nuXn4/kfN3PvJ5Xs2sy7fq+sWYmRe5D237twkDnioxoWWXdpfL6eFNMvUo0oCrDWSyJB2EXH51/9tMvitGCLnbqOcc9EsY9JbM6zg/CqujhTnnDtjlKyinQtEAHwSa8OOvU+WR1zIc3t/Bus7n68Oztze62harSoeA6x7s5zB3Jzftkr99c2xxwLFUBSN4jIZLe34HPu7shNTBFuc5INh6glDQQSegSXkSKdlE0S5RoL3ZIj7930dKrL1/eWtAJ9ECw070MTcIyGLpevfmFHw/kDIjjJE/hK1Iai2YcLHfXqzzNQhw9oLg7Rh4YrZMBBkVDPtow2CydwNvtdXDzpI95/OTVBGmWGKyiLlNuQlp4x8hbbW838101TwZHowZ4avIzTlewlM4+vp6KHzVnNNDroUbLDUN/RHYZu746Eot4A4oNX95ukPc/7ab5MEYkMhDCsD5JVktZ7tDUBweGN4dboy+zBI4ILp16nBSSUzqG7++2uUiTyNU2tht7rta6Yhn8GA6tGC2xJ50W7d2XllfTzRS1pWXiQgjQBKFldj1rmYGeDau4Ow6zqDUxOA0I6HtGkrCEgQQwHX7l7C5BO54d3tFn6ztNSg+WubT1dug7gQqNerh7vU+9xnHS5uEMJdBSb9QZs2pEaVRnjhxpvW4uVkVi0UzJiPswjHRS8l0Ctl9/71VLsr3oNj+XFLrt4HP2VI7zrsyIs6zzJKhu02H2brOOOlXRkKBTTAiIg14daAXb2dLcep36tKtd8lQqCJqcVEu8d8Kln2Ll9t3vfvJzj92VPrh6F5qzArWxxSr6Lu5kaDM5+TiOb0vo0++d71/++K3H0iiLYK8R2khG16zrU+07EaBcZ2me1SHuoDIcX2PF9zol2Xa//NZ//EefTe3VI38yHnPK6KwQ0NXm0pvknjK+u5nRjgx7/oNvbYbj6iefFSDECWoUb6kPFRr7rk6eVtO88Wnmr3z+2ocgxMXoZHxVnt9DEl3qzRc/+rvjP/10fD0+7lcj2gRSYaJMSRjW4vbV3Ug3S/7oe4/l8Xh43uqbwmBy5CHNkrWEijBpbaYSplj72dOzXl8pIwUoQb0vDAEktVMjX8Tru1/+y99//mc/fVX2k3ZFS9JEF/dq2DRrdXxzV5UCje1v//qDze2r2+uyXvusyk7XWjdttpQkpGjtO43z2fpOwh9fffPDP7+d0efJMJsJ3x/hnpSCEdpuPxX53Yff//zPfmp9H+Fs0avbGOikmZVS2tKQH37j+UX/k7+8MYv1g/Nd1b7mbpoEQq2mhPVnOY/7Odmx7tPFR/mjb/31X7/qrtgfP9nb14tTWxiJEHD1u88Fv3O5fWA/QS5eJhkao42e9KhgVJMIQPPzb8lP33z2rluzy9sdqkZOrWRQk/Wllkxr4Yf99gFGd756eobLCQ+e2KfdN4cf34XHVzhwqgqWsSu75mH3t+Tid3efd2y83c5Yur01kGR3wNLZaHIrL75E38vxOJVdDTuiZ9MuBLlLrWr2KLN1YSFJ682nb+tqdzP/CMKX6dIOJ52M8ZVK5gxGVNn5j+R7z9OLQ//sF3dn5iVrUBSO8GoBgvQc797edjWPc1W3qfjsOndA1aL0vI5mDpkb6pui3Rrl5zO2crOf46KX/Wm4KE4y3ckUi1vEbCU++fBBf57q9jd/eiNrH13PQgNeqnlhMvVuY7c3+clYHNH2KI2IhsSZkhLm/WoI7/sSnmLyZlfrsk3zzd6dQ+psGou1r4Do/gB+mjkw7I5731xdvHjx/Pu/eHMMSUMOolY3WIgA3Tqm8wdZFYDkeTbQyHBdyWHeS5fiiCvZNWttvaott/D97qZod5HO+nneH6Gc79/7K0q2jO3QWN0jrc4urT4f/mTX1bH6WoAGpGQIRxIOmjAfpaXN5fFtiVAHmxhzT+sHRdo1M5eE6LrN5up2PjbpNmedtpt5kq+kUiDJ0kd3RZzGdaxLFlcf76fr84+nH+t8awftrUVMHmoBPTuTNO5lyO6x7oovU0xmAHSz1k7pd7U1AjED/dnDMnuH7sGQ4liPk5S69EtiSUaLE+p930ogqUsxPP3yZX179p3yiazuZhuGUluFZi92dlUm9bkzP8ZaxxlQhwbEq3dj6VQya+5dDKJRzuoXQe3y5fl0/bam0dkWgfxESO5NQQ8uvcQuTLw8fPRq1NeX38YvzjsrnGY3E8vayTpUrPabHWK1ZqmpnyhSGWqtJUha2mB9l909t6nufZur7q73s4kdhaZY6EAASKfbcMppxkDWl2eIar/y7uY4HeTRx/Lqddq8+JsCN5lWKQxlm9/Nd5mDZC2H1sQsaGIiXqUgRcoWULSjdU0yVHC2shd7Yy5sJzp8zwn9VCMll2UKUVdPHo3jvq7/jZs3fPVo9/ijJ1++e7a9e2NOZ8sxHct8jqJ17b7tPB2yjEATtKxZj97nrmUtWouCKU+23cj26qJN8+xhZHjoPSn/mkJyKtXIfHletUW9xEcvjmu//kl5+rd/Xp58PN0C4V5DDXY95NuhbYNK9lkC1iHyr154e5POjmWepc9JIN0ljjy/M32y3U9z9YbTOOHXCAnuDxB0ScH1+bpOm0u9E57pfDZ8cvPs42f+4uKJ7U086tTnPu0jJzus+pkd0+WlOq9k+6Db4Qv32CSVvhPWw/bJ4/w5dRzfPUNpgjjNsgXkXiRKJ0sIfZlkglxohTXqEbVm/c6LL483P18PSa8wGppgzGkTBV2dp5w1Eq8eqXYbtJc4XL8LUlYXQ53XMozj9XmdV/MDu375OOZaCQP4FQoQkXyB5QgBw0OJNG3VMkeu14d49/Hvf/L5lxcvYdH1xSkSMec6NCNQTcdp6IfD3NKqm/PuMEaniZjnsRzOBHzrj8rBn25fj9dpc4CLC+4VqqUeSKcWGgiGK1zr2+c8rLraY305HT/b/rpe3122O/Oz0feVnopPu8fZkLOlOJR1Htvk22ZVkqNfBY6MJkOIgXjnbRxuWvK95GU+dsG796z03gJAEMIQnz4d5KDbR4J+o3Pe/zjO9jODqeR9sLmgdSzSQThXaf1mmlgkDq1LsWpR3CcJqsEaVebZJxxU5wYXQLiMvZHvr+AECLIMj4pHfTUf+n3+5qPLbU6jW3kl39lej3Nq1iyC4eK9mGGC7zeVNs/Fh/1ct8eQLNFcIbMm0kGq2GZfkiTzFhraGBDi1DGIhRPG4gMuTg/xY3wyYBXRSwqt1/LZ2cVqvkUTGdpRjXA7Qks0yStEIufWyyzJZYXwmt0DHSWpexL1C4SVLI0GwkXMlrnl082n0yiD66LbBMnyei37eVjnfn0Y53X7JXs7uucZFE/GaKVterPhvE9c5WZ9jix9mwe2sZ5xZU266Fpimg49pGPu24EzuMyrOZbuMe6RcBmrowIIcTCwS2If79OEGrt8fnhxTG2YSqrUBiVhPg86rIYMxW4etqN3nqR6HBtnsE+uUecphF7flTQgUGOZ6Asu43T3AmkSO01EuwggFmpCEzQhTbTueg7Hzx5eaW7JZ1EKIilVOuFuPneb67pCai8tA1wldmlgncGpn49qk64x0Wiopn7yfab6npC8LxHopAvVkluKcjloRE1lPG7P3SPlAFJKoNKlQ1en7baWKaapemldEkZe3WpOaRhyJU3WdqPNZJUCcwxpdNiy7WD3M4fAaX7ghAkwmIBOhXCjHqV1R506OVuVZtaVga2xiwr4bNM2shwlTzkk9YJjTrbKVc+zzI39ZN1xHkWU3mxls1QYkysCKYL23geWYQoE1EKAIJ10X6fxHFZMem1UlHcP47rvWm5qSaKfa++Y+83RAd+tznI+VqRcmw71CGBomeO7o0F875YS/A4IUuqCgV/1zdIJh0iDCRlGSHS85Ot1DwSnC7m1VEek6wd9UqpZJIBS785T6ovqREhGY3hBi6Mfi1+g+nxs6o0OxJwv6xGEi8EBkv6+NkunxOjLtoULmbuzi4vVzc0vnx+9eD2ucgRsLuuYj9K1yMweSMMQ4+ANnZusuh26XOeMNjvLceoTGcmHFqghq4erl028SUMQEU796gpO80Tvt1jy+unH2zMJubvusjWXGSnXdc4e9WBRiISh2DrTUoOgRvHSosK67AXwEPNoHkSVrm/V8uU63R1pgaDJMmRucd8yScB78ThArr7z0VPZH4nVB1PK+ahGE1LFGrrdLBFpPc8uaslbq5LREJhSFR5MKyEopdK7vszom+dOgnI4qlhw6VQYFHJS5pYZknunIPzxNx6v9tUb0TY5zSm5CruW3avlfuUzokM3cuhGhEWWQDWYUaxGiEpnk6bBw0w1J4+USrHmioDAI1xEwhX3ro+0jLKfmjhnHz8oEwEka9F8NmpIOLVMZt2uCgwZhlYbWwpmL2coniFuaGJkSR1WUyWROlNdVyYo4C3giohlnyvup4oXKI5T+9b14bYkRW2WqwmOcxOL1LeJniQOSBKh2pMJRTTMextE+xBzYygl6Rxdq+otWe3CusI66Yre6AZQIsjTssZ7SrZQAYYJVud0C5vNZmP2ubQIVtSZwRZLs23oxKJH6fMcUnxlo61YQdXaRUS20mAGeIneKteYYxaPlMKXkW+Jr3AQS/d8yYtK9h1marXiLkCzOTRQi7MoqRGtUgc1SEtgNpWpEZ5FrImINtXIUrI38gj0HKaJq6FUbW7hoNEZDpf42gFIX7aImHRdjxaC5lFFMAob6iIqiWl3mL1yvaKVJEozDJhTlJDWLRtnnhizE1BYVJmQku+ZkpUGBMNDTMSoJl+lwxMnDADRr9oIaDULb1rZlk0tL2TVjJWOtBx2dEmSxjk7UxyrN3RiDjc0AsngoPRSox2DE9YdPChcJghdiCbO90Mkiff8NDwDzdi1iGYaEa02dZGA0CLQe2oefauhUaKEFG31KJz7imClSxVIYHIk5lrY6kL/S0WhOZZlNdgCxV8Vp6elOYjtV8lkbm4eFBSrjYQVFElinFmhUTzCvbUG9l4n9xBHqk4XiXB3RaUCkkqjVHNKVMbcGFSPYFDuvTAAJDpO60wJNkoo2GDLEpXB1MFwdxWXmgrqaMgwq2JVHWIUmDuQG9GQmpXUW16b4tAgkuggQXcoCXAZ3Wfl1/sFACj00lJyDdBCW4g5kgaYwkQNMs3SmCDQCqiSzm6OsBW8iBeGhkJJ5cqdPSnNImmfmlhb5stlWfTw09svPaOTSBZ0gxcXtiThGlXMaSFMoQBT8c6F3lxmx7K71JsHvHUaBUmALtS9Az0FU+RVjM1drZoHTne/dHbE/3UgAkMRZh0SC8SBKBnVWUWqRGh4zN5y5PCaidCi7FxrbS4xE72aIzdIY3ZBRvUIga+8JZ0ZjREBaAOoJnT52gDDe7kgtFlTpuYuiDkcYDg11FlFAkG697SC0JRcid4aJEKpCDGCvdWsPpsjWmtq3jFiqQQQMDDQFm3//QFOWwAMIDxHFWe4A5Jgzgw2MRc6XUxIMYtsTQsYrSMplXASZqot0KIWt6BbRVRqcXjzeyHWNUIW/nu/asXcTu07MJQpKC7uEpmMMFEgmDRcjI3RVAPCEomeRXlstARJvbkui9CzJmAu1sJb6LKbe2rU3G9CBV2svfeBe0xUQ0RVEsu6i5MBD0GoRHDZwFEpmZWeGOrJgI4zLOUCV4e5O2oNr7VF8jBwWSXWZYQRFKOHhH59nO+kVEZTOOERQfGgCREqMGofao4wAPSOpgiEkDVO91olNVYNoNbmBsAC7RRivkyNLxucFnGap4r/nwVCwpdZSxc0uEZ4JBP3SAUWrg1keKJVeC9OqSBgTaJDDZeIaNKKOeT09RI0egCy7K7E4genjYalIIz7yihM4EEXhkkgjC7hBB2OIKQ2JIRUQWoUptQcaSYQcDGIR5jUZuY8LZh7yGlKwumJ4QhE6GmTdqHFy54RAGiCwE8DLnKaPQ9CA54EjfRlHT4gEcLem0vn1iyoLqpgYUU7tSL8tGd935Nbcv7Cv8WE4e+dUNQdIAFf1tyNINQFAlIsNZfcOg8GGvMCaBHNXWANroaaXZ3NllV0bQhRoy6LlTRg2cZcVqSXSaZTvwLB/w8H/X0tA4xIFgAAAABJRU5ErkJggg==;fontSize=15;fontFamily=Verdana;fontStyle=1" parent="1" vertex="1">
          <mxGeometry x="-397.5" y="622" width="128" height="128" as="geometry" />
        </mxCell>
        <mxCell id="t4ACVStrc7fiuCfUKFq2-2" value="" style="shape=image;verticalLabelPosition=bottom;labelBackgroundColor=default;verticalAlign=top;aspect=fixed;imageAspect=0;image=data:image/png,iVBORw0KGgoAAAANSUhEUgAAAIAAAACACAAAAADmVT4XAAA/QklEQVR4nAXBByBVDRgA0O/et4e999577y0zMrOzChkRFaEhya5IKjJK/iaJBkUhFZpKKpW9SvYe793/HGjV6cZSbjIx58YVby4vbHmRRo17gVI2cUP6gH+m9EpxcvmH33QLWPrD8rUhfbrUqZAFQrZ/dAMDG4YROJTjOrH4hdR+7K5GEyyghAfzQg0xZ2Bdf0KZ/8+KpdmT/eqbKWAamNNt57pNXN+GoL+H9beWFCKtIwtQB6zuIIDC+X2AjhtsiY/r66IdQz2dQY3ipDQk5t7oRRjvyL4gNWX4eLiQde2K99jM+al+BJF5jJChnqErdNNegFg8eNhh+Smyf+D6mzw8nNGovrDnMbZwSWQP+qQsIkwRncCvFR0x4jP7PHcczhPhDENX5LrGS+YmW8iz96p8edEn4MH8OdJBVY9CMb2ixdbYqKDZVdBLRz4QWC08QK5++TuKoJnMND5FMh0kcE1LWFIZxTh19QilYntvTq6K5L8kbJzJkHu6O44bFgOveO0Rl+Ikhn+rv2DbaEvzBlSGes2UaCcpI3XzXleFsbPrwHG5hvcOBi9Omd6PTNPu+oaBH1A1RAHJRiT0ymrMxPawJz/mZeF8ykdHZx67eDhhODAl5BOT32OPSo2GFlWMx7QAN7rGo64eKoBKGnM9DzcZEFr/HayZyWHXY8/iwDy1dkoDn1x+qsgOCNYnXt6Ibo5v8/IPNh+nV/gLUczsT5X1FPWh6sb+E4+1KjsJ8jCk9HEvDLFi5ZY4oQt0iDKyTAh10l7GN9AfEXRwe/Ac6GlJEd9TmjsILRBfIxpau99i6/R6Awb/MXhuXiJJL6zVcUq0vizfoJ3K2FD/KS4ToPllr0TZMW4Xqrcuo+8k3ojtDaoFeNu5UXTJP+Ydt/BrIyHQ3XhwNtssZcmYCtLc+dmgDxf9cj1rjUhoVPnfuZBoVIh/SOc51/A+3lqMD3Xo3Wwt14Zn+rf4tZTwYrQ7kbC6IpgOh98wJYk4GKmxBsyGTZU7PJf4eu1Rwd5Lpzjgd/Phu2AxPCoLZtBGOo2IppzdJhTTJsd4oL8vXJbN7lTSQgdeRSUPDATtR1mbiGsT4LJYLCDE18i1mTE1XEv3ohgctiShe/o4M8FmVGCHvLBpJMZx+vSkbNy/ai3H7Y1/gFJPud7yVpX4s17/8GCipvRRuqnD9Ir4OuNV/ebt7cgvfDBUlRX9An6D7Bc6eO6TVHdD/naY+44Fdv+Ktgb+y8vhhD/QOvJj3YELf9LgKjDPcfN9yNHS5f7LgglOM7aTmMwVZiTLQx2JHcyTWfF34pnceGHbQFlH7+G9SuZVGN72s8ceVu2xN8uRnPqE37c+WCYNsNggt1qr4BDSIfiJcfK04gohz/fjgNnSPRH7NeZGPVWtWr0EJbHY/i5zZRcsCpTuBR0px4VnnNpZBHmtzOZ8RSkzEXD/hW9TGi2yhQge24vni/fQBYzFL/5CHeQ+T0pAnSfgKcaXZxcsG+oQ7TiHNgh+MIIlzqG+R4D68CZ4nhtvYi7OF4Qlw2ZRm8D5jAvPzXkWgmpPyF57oqjuXHViQpwTPZCIYS5eBAv9mu9Awqvny3A4PxPMwnh3xYZPGxbqZ+UXfbTPX3kKyu0t3DcjnsypGWQyZt+7DckajYh900EvgA0JVi0t4u9ubSESj6Czoe7hji+RmBH/wYruz8h/oTwEL/zDo3jZ1ubjNNVDUd8IR+2w6OM8juuAX6CdogTwHaR/nSYeIZnNcdMhzFI1nHz8c2igPKOgZ+xMpIC73AWyaqtaTxkVgcIFuYcBzvFNgKgwc41lsgvP8ZoweD9E/xAj1hctgYdfGEo8Ga2S8CPRh4JYrmYnlJDXxY+cwVb/EOWek9BTbRMIK3M96oyXCEX1/kzQmKYUhlZ1/JMAZd+ue2xwTElGGGI3eSwtyFE2Mu++4LVXzxr47Nl92W3334DDWLcT+XMlLdItrO0H8NY80VDkZDuq/AbvWiRrEFnlcF88nh3XIAYdinlVOykX5k1ZUvpZoxVWt9T3iVQocCfL3Th8bHhfKh7e4Wh0hULKBl614CoyGwXFAgduFkipeHZ74MhAkgYZ4dYfUuIRwFZtmKZc8Al3522jwbzHRGekvNNlxDIbEUI4pedwwC9OvEhGXAXZWbkLb0xjTfGifCKOys83HxSS9MtqxL1dycBSIQS0J+8rj+4qTWbjgnvQdUge14DOXB4MNRVlf4GWnexlflgg1nlvSdmRkPyqaZxIpD0X1MN/bjLuaeIl4loniA+ecO0x+Z03yrqrYKXIrd5M7n1wOteM7l9XAhjIjT/PuoW9ZlVm6W5JznFngatcsp0A5z6o4QPcXlkEBxnPDCoTd3+foINVzUcVwobVHG3O3j+IK2/kdgar1tuf4zw0xuMFTsOWbs8n8TDxcj9FnF7nBJsja/vcObOezvjKhMnvSLRdJti/wEIE9PMuvT3CqTh0+6tHNP86a6mZmnUDW5NzxYci5fFF8p9rK39ZDa01bv6n1sl7guHTVGSy5CFS93dAAG5/0QGfsYxXoMqKRPdPsXlWxxflDcugGyky30vAoSlZDj27CG1ijepgXuufPQL7brV3dGBghiFUjpa6nJdMEQ4er9rD9JCCqmJJCu7xcaLxy2+wl2mmVSNqvnd4V5bh61IZjvfqv9289jkD79lzeD4OhYBivmSNZ4tfeIVQ6jZjhAubUEphmYc0dDYL1Li+ECv8CbVLli+niba3M/142xlEhO/XeIrn132sCOw6tqDjzSn67AAX9tTkFo66wFdM1KjC+AHCfznQSaH8JM4kVZh69ameXQZxDiSofQ8iE0Npr+8n4b01KzkpWcATeKBvPDECjIvnswV8yaDeH0XsilnGY0+XiKq/zt/hKbhS9FqsV49V/F6c7+BGFU5HZSoez5ZIoqqbDHGjDyZEqrdnuSn1iw/Va59EbtCm9pP646Su39jPUfF0eXPo+RnuGj2TTx/35406ija7r/UoHPjLJe00/yL7ptpfnDABJxO/zK4+mrzzfmI7sqLwX6kvrV7mhTF1bkdp3fE9e4KSNmhzwSoLhT5MXg/ZoTud7VbcGrp5paRyBtt9TNeqDbYXBWBLXNR5SFlguJ1MsIjwn5dC0KmryzhRbLaCK0VUVRw2wczRBL2/9gQdPMEmYPMNP6vpr8mx7Oiv7ZFfztdMpZqFgoCiwaNdiYECyWy4gDxsXB2/v+PakgPDiggJ/lD1OHMvhmid/WeNjEjoSt22viCnLsjvt/sA2g03ebs25vsoIb1lQeiizNQzuH3quRihrxYr5STFbWBa3d4n4aelCeBsTJBp7fJzjdHRvK+spujLMvrGeqfSenKhAK+P+sZivWb3RBrbRmhHZW2nEM6OMzvf3GdFfv64JdN2QYOySbhzLPdGb8ht4wMCPDjEfutQ50U6CQ64eANvOT8WPs7HHVg6Rb6HtRZE4rpWjxI50/v0zgs6OQiyE17qE24WygL/rIfThlZSIQLabExDHdjS2f1VCYQ6JrWGo9Tg9ePTCoHsAr/v156ywDAs2T2bhSS1Wkt+oB2/mySDoChUpvttn6zX+3JECPbp6oMZ80omIE/eADjNPF4OeDrpPlkPBOPsmNp1tgb3wgRISkuUVH2HtAsSct/Kve8rQazewSELrhufdh41KzlxbEKhSdGxZVW80K2Q+/LWp9mlf/gdk6jlxu1JMrCvjHJ7dT25BgLP22u3sFsczAc6WuqMPjXBFAFqt+uilOL2KTXT3uUuEM5DUMg0u3n427NszmgD1TF1hq8oWS7t6n48Idzl6z/8VCedV+u4kl9ikm4tIfavN7+youeEAZ7jXIDX/h0No5yx14YORSs9aEVIWTXtQWmk3Ntunw99MgvsNhCt0NrtISPlrqTmxQ+OQXZKUmPKPP9OrsNNSg0/PqNw8B8Ub4DiPH4MmOw19u+x00iJ5/SquFF36uXWJNmBXDEj0ZwNnwnm+fdX03Do1NNoHd3q0pYMGTJj45zvv2SNV/PRuqZ5UJmbnvB7/IIClzFrxo809gYvEs5aAPjYayRO1IsgZd4AO7JeiF9/H3OR+OUOThXpMbSFTwZXZC+o3vKaOQy418CCjlmLNiktPt/T9nVHSqCybqX+gOrdqEj5nwIf2qXcc4de1krxSZdoICw9zd9KY1w1cCSz+xD6rSxA7BkmqB3y/Hsq58aXCWuaHMHmiMVR5W8rnW4jgekCQ9eyMbGEm0Fir/vjucpFJfs3/72mprNXTj4txXf9WR2d8+l82AflhvQlQOJvAA+PRnoLnaPjZOEBeUzK7syBqcgTmpUzoytov+LPhvcAfA+3iK9mofIdGWmfl3w1ZJiHs67uv9dgEgySy1zvV02Bk8LSbpROO34a2nj+tgPv1uXO02AgdbTUF0L38K9eJBVaEWf3OeyXHZnRNSA0NATAuzMS3/Vde8BUx9N90DZ61T4Y+G5ZOFUzCvS0+Fi/9+YSdENrzvHNcBg/4317ojoV5/PNHqBiofTJ7tYrwWUX+ba0NI+LF+D1i1wKXzTC4AyrVsfk0WFdpAtafyGQX4nt0/+7mZa9m5fF+vjFa3y0/QGHNBj0ER8TXxmk8QeO/i+IONRL5gU5MftjPvY8fY7cTi7fFkD22jvNzfxzqOrLKETsym7W61xae2HvyFFCfjUHTpv/tA6myy96pGTNEUxcfd96b6XZ5fHgThSi7qgCx1pztoui0fb5lT9YCf7XmC08cRSERkDAXFKuU5wvTgYfLc28io0YygaWkSUmoCxzBFsFwK9tfxo8cdH3+MWAZpc4jsPlcIr00roU08WTiiMUQ2DMhFx078ipmwde/LwTL9D7CmXB54TcuStK+MYWWfJlZ8LzF8q1o+LPReoFp5reoSgXSUS9YWToYvgFB3XNXQvoEXBwE3PjHt/JX9iNLZW3o7CnnYCEYdqRulzs6N0PUN8t2IYqZO6ZPnubC3e/VB2Y99dchYuRicfqv4UeTq0FYSbKhnD1njdy+VYnaEn+ZEjJsR275suq+1QfbQPKAf0HEJeCvHwFitiOhE2F39NVOcojqPqz0plUd//Pe1KVOctCZFzzGAJcoab63v1Dh4QC/hHFzePxlkAQgS8gxasxtNlWBbeKRJ/ytE0bSmaSUg1y2YXlxL39VDGpWOTd88EUFpu1CrQTXxcMWc/fetrZBzvlzsHPqb7VLT8s6FdE1B0xp5mdy3E2ErH3tJylCrE/aiz8oV0Cmv9Mkgqf7QvtVYCn0laMclvDfTb7oWI3hrHu/5VjIXSGyWsL3wTxwJpxhrpW+Ghcl5BtfXobIHL33JJX3yZ/xoe736m31CyO5EnSZNZrgPol40qO3QkS3y4V5oAbgxc4yew8FWKQeYEPFkYPMpJ+JVmMqfCjaMB1DUQIww58iKWStmklHvo2+wDUZBOoXKwMQVGevzwE8nL6BJG+pbUB8qfWU7vzpGBeVYXJ+TI2k3hoH/mMzdD8zr7z16upe/oIyNU5Gfee9MOPVLSChaTn24Kq2Q/xPtTfGyOaEpQ1zmqASRE7euxg5FHKQwiMp2y/fqzKgj76Jo9r9pp8bSQCX1MWOHZG2lfg8ou7s130P9NdraDTR4t4exXkWlEKUEE3h7aeFUSVk9twMzQ91iO3IcCDy+rX6QH8+gV+7D8csTvKxjPwx3TeJTYpk8OMq3eRqxM6QTPfjSRAeKgY+ZlSnT5wV1BE4/LAp+RcjoYgnyOgjs/TdfTeDRcsiTqO5CCep3E+kmyWB0+ZW0hHjyiOSmZ9ldlrsgGDDw9TITxZ9fg8sfCTB3L/y0vF26xWHJvVKwjOJ+zjpBUHO0QdjqN69GO7Hho9eGGupX5Q8DjJnoL/Sgkc0+44S9KDF+fe5qee4IljTgspJvAzM/A2baZzkeum57ZoKV+k9rwPAyHJGH1W+ZwK/Ze7X9H5+KX1Yh/gxcM5CTDy9XKbbBcsHiHyPNnTcNNiv8CJhbvoowNsPpBAtf9E3BmwNAfRu7PNeFC2sVMI74m24CWqI7xtC0Ohx0tGDHfsi4hsmGb5QwfR/U0eXG+NWar+VqzidDwnSLhXNWbHKlCLAuL4W2Vc796BsLb5bpKs4UaYIg7YsXG/79824zUE4tF9YmQYTrtM1a2EsMbqnGtUW8JQBSHtfcMBSkpD+p0bHATQGiedpaRVzn8Fbs4X5cJhXP1tqYrUUD/GNbYenp8ghJNHVrlceSTmMi7jhGg2+cqgMeOQMMVndIrpUzfES59l0Lr5SHflik9Utlj/dWxXDFEKajwqePFjBy2sc6HmxCwsL5yOEpWdk3AfYle1W+F7KiFOK9jZs3N3ZKLO1p0KU+XBj5Fw83hIrCp57/C/1XqNqQrP5ztKpKoNlAXbOj/OXKluwxBQ50pLP+Xzw8eGFA+0VFmqwAWtaku+Cx9NwsRnsWN07paMiGKEkzWUhMFGp3nXpQHzXAxkcAlY/gIAut7kEljQzOqJ8+A8ti+8VFHbtyHo+D7YmnbEOZNZY11/UUv5D2T+Yy9X7vU15hKjNeJKMfoG5aIaW4GRKRI3lhNlshVzmHvgToRIxfbwbCIziwKiaIQHR9DFhccEvydP/elN1+0IPEz3Jso20fHY2ZaUYyximw2prGn0X/uB4nwxg+e/q1n6LzcXXrALPz5dmyT3tRR/g1Lvjk2sCANydRqUVfY7t7zhAvMygsnZbhHEPez3by679zppVjnSnPL7yXoNl1hEN5wj0RMkN6hv7N8TzQkqecAaq9F7W5g8UoC8+f2arvE0QVXyz87nCCJlTWA8VrUugJvcPBkgq2PxstTy5nfi2URJ8sP+l/KSB/iuY/yf+lPBoLTlN15PrnLvid6XXUEpF4DOxs2fPLuagu0ZvC6ImxZ+B8vY8LXqLZH1B8F6SwGdOpTpPA3Pb2+Ju13EeTOdWtCg2CP7JD7JHZtUz0q3mFqjyqMaZYYkTuKNHesv2n4TnOZYcyAhSJaruKGjIwpt+IKbfbTJNbp04xk9dfKUsggCaWQelc9HDQR650NRu2TMdemvZ2cEO2h2ZX7uVMTtCYuvPah5HGCnbPofUA9eiNrXYYzcqnkrLH862jVCbyKHiamc1L7sRRHJra3mQqvfvGUK1BXmmLDzwnXNHJbsGuQSHbiFkKiDqQi5RpbtJXJ26TcbhebvMbINeN5TKE7FL115AyzMfwh24HfZl0lzGyb8HHj1UtZ8yOoGiVi4a2N07VaOwSUPQLZdcXyrvqxSM26tBX53f+59kkqU1Ck3JN9ilT7ygl1RQcG734zXiu22zpPAxp2s7E7Ii02F3WcymAzYqCAcYouVH3BIRBQDtHRmT440uSPV9WuHG+u2hFZZrBTxeDeX13zbX9miM1AXMdiN7I+Z0rp21mwC+YdWS8vZvMpcXhNgnRRWAwFxS1UE5eaVGm1xi8l4m5RaFcmbtddL178X1hDBB/Ofte25FVdAayzveLCYMoPb06TqNh6WZ9BFI3ecknJlKX7Ss6CYTa5RUF01ei5DYqQhZbtDqSxBxWfBA3/Hax4EPY5pqmCuFiamdro3rOxhlf9Lna2re3qbhyrLuevDm0zZL2vi/HkI7r9gaVRlD9xIq9EInTly2/Ou1r+UzEPs2VDpojP9xJozVMlGbVV7bLdg4/oKZNEoze0HeEQwNInlxx+dd+FPe7gt2aR/PsIW6YgtS2GJBZ5enyGyTCjfvod62pzJNaLVl0QQ/OtC5A/QitXalIllRzw2HL5wRb0vQiF4LdfJRXJt9V/FGXHLboi+UOERhf5twLWY9wmIrdmfU6ZphE/6Pj3PTdvnIOkBjuc70Zv+W1yB7UckMom5Hje1pVDZGk9q4yMp1Rr2+RtjHzZvhXhIwbzPakZ42NYvw+15z1Mi8Y0XLjEIg7u/n95JiGWz207LvVn9tMs1s8zxlCd1rOjV0soB/Tc/uGeEqpAeObaDplj5hTC5T+IUAzLF1Wn5foWEFeE5z6sNsdpXfOLfBIHexd4rZPitmnjCeRqjFTqlf5PB6+09QumIUH6mHBuH+zs/9VWs4rz5BYUyartFaGzJqr+9zoFj4e+K7cqhTYl0foSgvf4W0B0KqW5fwDMJuEaSWgxfNL2D60KlZo/LKYJ9Rb9Ndf5herJJlu6BnxjFvSnvCm3PqsLcsqg6Ox5NjNhUdNR/oWbU+Y1HQDyX/dAuk4KS66o4656Jbs4CaTf3PxZPZlvlHRZ/3PmeYWSmeOaD0NcP+MklWgw5+EuvoK6Yv8o3IzWEZIH236kVajPac+WNQKRCU7nZ7u8rEW0Bce8nlD/c+inFtaX4eOheqr2UTqTgJ4vF6bjXerJ5vMvx7ABiekXJ1X8d7nPp83PzA6cRqsDPvaMVBFM9xgodCgslbXuij7WSeZeCsL9jF4qJXrqSM7jN6OjJZFHMfq1UazlgITYs4OmmkzzEEK7W/STGcFRI2osX9Px5/d3Zv5Y1dKmu6wEQpoufgZh66KDVtmLcGGj6O40vHoh69OzVY7h+7Y+KCnhqSMs15U6i9zYW765cyqmfYCPMvMYgbtfmBIUnCmNwwxeQDmwpuyOxKwn/hXXp60GSx85DsvNuwQrg+HAU4xvBDgVSQUb2Qw/12KXghprDqdJ7MU9S2iT8fmFKZzHV7mDiUbMM7gK6BbAniXBsjN9GWHSiYypgmCP1pekdJKfCWCDZm8/9xQHRUF2fhL3KkHFzDe6tIvofIyYspT5LFATh4TZz/0mi7hlmj6VGnpXFKwJFPDlPSRxcOhtxxPvxLupEwRSjHaJSrcvWnQ25b2bm3gCwhm5QWpIJQ5SeymY3kYHQ10wsW27gbyZpsp0PojbVp2DrmoTGhVgi+TzgR/ACnb5hwsfyii9PC7ikXjtNn+Q+BSZoz/KsdfVsDD/55cp/Ip5Uux2O+0/oNGbkhF4RhakQYtzbIShL/AVOR0JEDs3992FV9SMbXxzLsb+FoyfIorBR6/04NKELoweXSjhEJ5aeRmRjzjkZsn3PRFSTYAJ65gLZTHPh7gNDvuhUmPGu9luT/ebHyqSbrLvQxgBodpyOb0Ha6XDZR7wafLEpnj/uSBRR79H/eFHsxjiqPgMqaSbZ5II+xM6H/8UVyVcxVz9ewt7ygsvyW5pH8Iy63MIqPusw0mcr52Y1//I5YJxfvejqeinYYcdABwSAZYJVkX06NL/1xhNSJ26tykKQ+V19QvzLkEkyP/vCR8C3ee1ofLtt5IrtB7YbvwyRQXBaObPrv+7q9YKkO6y4Ox+Zsq83hGWVEtWqluoPBvAy+IK+tUvogcLqwQg4GmmjHDzy2Dnbo/TuO0fe/HCUP431AOO1Ce7BvwxeBfFPO6AMc8Yg84NGnzqCnoHRGXVqod99Q5ucWWTjyfPzD7aFN67gIDiVDek3v0/HVuzIGygBsV89eXCnBP0j03PKzyUdgKFeIJxF3nVi5MSiXJE2sWv47keg/nw85snOf630JKsfyqXJELz513p1zUvo8nV+fbyKYMTneTdeVtk9ALJMB9JhUa7Jl1vSu4grHzrbJne8jFTGHnN88PULNtt6W3Er4bauCJELVz6P1pT7IfeLBzjl/8vRqfshYHbNQfIE+WgBWJZ7hw6SHD9ewUf7MJ/LgowOJqf9ovh5LoLwLHcVMx8n4q71Lt5BVOMNzT51WwdrZyrnCqXOPWQjA8jeG9bMEXsMOJP9U/H700Rm2RsNCCKp3tmSu9u+1ovzRJiM6ZL5PIn5Qrh+2TnFlX+vWGKV8NXLH/R3rIVjVbGZpsQZpH6MdH/NuETOU3lDvn/m6qw4DA4mGN+qWkttTi+j2RjYRM/kV2Hd2r4sv0wim9xQ+HY3iv8y9SLwW0G3EgenPmNtLvQQ93ghXxHbRtr0mg7pwfPldz5/8lgVTR9Rc18b6TsTyt3Lb8WW39PswAzOlHnEK7D03eXhXM3wygkqqTz2K4b+mkm8wlqPavlySxTGi4CC6VVqTAUP+kYdkhN895L83PGD6qflblqSPIQfwPkv7MER2PQTvOQ2QGvKJBzzZ6fK1Cy0PD5rrmD2nkSHKVsDGzvHoWLPA1biyownnD/yDWXnABc0EowayUj8MQytxmWOGif2g8lWyImVlSoMCQsk+rsN8qGrhWut7FjnOHJUqfHrFDg9JcmKXtwhUZ1seIl22iKtF0DWR6Z6VpIqfxAqPZA/oFJAGbK4vPkagOMyWVA02f4tj4JX2Pygb0KZwNF5/GqxfSa+03TB15pvNDYn7JrA6tdlnMP7oe+B8Hf3z0JF88PIDsp/5tMX4482kp9uwtwvpHsnL53nPtt5MwbhEh1fXTLvE3Lvwg95gW4MTT+6DjRBxs/a5/ulUsx39dQa04F9hrvuEcBWrBsj/bLzrLFK+EkgEI8kCfP8cG49AdNErn38AY5/kDKRdXgk4kC/+dGVCnSWs8VgZMduSgVT6orvsMSbs2LUJIuC4eNlV1iwtgkRzVf5jTAurTb3nLDj1fkYPfUVIsryapVoWvf5DNSiHlUt5whmWuGhd8lA/QhLFy/6fPe8Dbgowhw/d/VHnSCQUGc254nQ/FHi4Nqimpl0mZB35ELZEpZA5Xx6e1YIEta+IzJf8dWlWgmQQV27iSSflDA1bEQNL4LwvIhEvFiev5pakQXR6TotOePKP9opBoicKwtxkD+pvQmf1SNj3z9dVJ0Nfb31AqBt50Giq0LGb2z2YTbXEkJ9yZnqKaWt/OHVxHWDF0dA41Lu9Z3omYpzcIMtag+U4t5LHbGGn81/hAm29Kdy/+3DfZvqpei6MNVC0rKQpiXJupsv4br+ruLVFf207ySvmX/y1kksuTWERPixBPa8SNO9GQiEqyyPSYJHrTqY8GfTcQJ+GVXuwcuvP+X+cI03le/c8+Xhg8SqWfCdjC4M+NmJPSKdFU853jfzueV2XMjmjYoU9LssnPIJW+pm2e4x4eD4IFOzGj+ejz+z65Nd8nmiC0tIuwYskgC389+1pZswRTJaOvMYMXTKJoTIiHZ8KXMi0TEOQvPkBH/NWeidIj/Ta+a8FfUmbO0WwL0DdBhQeTKSs9m2jRL1OUDxHdKndkHBP/kQu6NR1oGS1galCtSGMZ5+Q1F876zzW02LBPZ3jnvN0BeYXnXuDmfbm+y89YdCT9Je+7XgAd1xINLgzaXG/LAItuu8MTUY8t/hiKZfDumdYyJuG7QZHRpEuuFnHbwstluQg01241RGtOxdGdL5ncoG57X1fKUIPLc7hd9C0Kn0NMb0b6V3f444HLAikLDnyGeTEYq8V1DH6t2rjloYdjAyjwnaqNAjvOSukLDZRvsEQYUVDpzWMVHTTFA4dvgXu0QnmBlH+v4hB+oe/fA9IjKcAslb6EUIwFi2fvbzbhb7zqtE8aBvD5K6RtyKEtR5d817fUuQwBFk39Q6K905z9cwN2Blxdw4IFyhgxyYIwLnA6FtmqMeB8/pO92Fqfzo9GzxMIvitrdWwqi7f/bpjQ+Ub7OXUXY1pSaqzaoRbOt0LIOnDmpHkOEiyFjtme54Bw4uIlQgbzWUQ72yCBHXnhIntnfpP0HReaGAPDYnRRfppw8OUuO1YNFEVvt9NmI1bIlvXkjMNW+mSc5cDuUqgDOH+gVEEy/am+U9mhIXT/FAxGgdbHg25mK7gFg4K6d74+CTbD3lNk3U/hHyGwqvCop6i5K0ydWPfpxXyNA5c74D8sjgmhbyuhgJdEAR7CMPKjc7ce4Rk1dot5JyU5TShWh7ZP4SmnF90ElzTMfy0U/15+2vKUnZCOnYxE/JMtkMpgVxxyUvCnvZuLkRF226qQWmftbINbasyphabx0IDIwMO8zG2jFw3TslNQcI2thP5d4zxkB8svlPmyMtCLfyZZkP2IbKEO6YQiknYByswdGwqwL4c31DEgWGOXx4Z4OrSeNl5cCReEaqhZAgNyAmERXa0tGeZ34mA3MIM+z6NGknspulTqvhkiXeDAa6TuJHjZTKbS/ksepxdKQ/wW3luCbbcDX919aGNbAD3DlkwxvCzElnvb46XEE7w5+UfwkHrEUpeMtDgsJW+BDu0WPUgaaDDuYLQhA7N6rNHcJ/YXMB6mSFhEqsHY71k542xu1ZswIfDHBWmUkTZkAV3wcTvWu7e3i+ckngWR/4Zg7iECuy1GuSrg5WkwwRK+bA1fJHiVyk+qrfxn6N2bZm2drZHGqMs3krW0XRvjvFgHjmS5FAGg5hwD9+3jvJMdZnxM8/5yTG/vkKfsmfwfCSuv4NXPbZmzTkmans+M3HU31kmyuphn6TFVxcNqPHm/wlB3JEEz11hc4SVCa3vLB5epgRqUU3hafpH5BPbI/9zs3ZviLzvLdHvvbKGAgcJSxwFfTHVpVQvdc5HDan8ABJa5QPpfdRFo5kOUE55py7/j/bjz/EIsTRnTinuTUDE4GWQGNEdIwNGiol0IZNRwrC51EiuhWvUivnty4rgvL7iZ6mxISkPlPhBFG6o63ZAEMKe/JesmMrDeoI5j+jPiqJhf9FpWhlM38+dHLTbLPHoiGQybk/tOCHc2E4sDAXYZe+xsmotDs6bhIVP7Zo6mWD7zmpV1WERSNokZvJAlIYVoB8Wn0smZEQ/vdkZ4zjD7lz77Bh3fG2yC/XfpOjjelWLCqhX5OvSe9yHUaIE1V3Ydcjccka6ObcMUP3zfTZiSNs/YwB0GIjpCtSuSGtJYa3dfaejMSDsG0MCMJR/LzT+KcN9C8v94rvkVv+rjSwBZdI1kWqXEawsOiaf+VNGxndR+5reiZSCfI51jwJO4a/vMjurtdmlebFyNqtIyaPn1h8oBOdwRY7/J9pQ15/c8EW3OLZkktNt9iHj11IlEPUo3JL3bDBla/SgL/qtllI2zXBDbzHJrdABzqX7/DP3fyMP05yQK3jyxYfarLI3Z/L1Uu6RBV5s7FxlvF7/kvxsiRndldA2aIgPED4Akc+DvoE/zjSiTgxsBB8dnr9gbqESBw7qVLYzE8eX2O3n5Kn5KRMYpFU0/ZzGZrhzk3Y+xuvp+45EwGD/JFyIllZWmKx07eA3HQD1sCrb+yAl27Md8aFq7x0HETEMw8ZGHKbgPtoG3AN64PGppgoUBbCusVKCD2FYrOZkjt7+OCEo5Yoh3wy12fsvPHNLgA2jK9v//OdOlY8gMTInD09Yo/KZ14/fPSCwtM6mieikqo7+FzDtd1215Gi34Xh/SlstWRR+2OtAZAI/TjIAXZl0eO3lsPkG9VmhC6ziKTxPS8NGnpBszxhgQpiw9tDnuwcpmLvvGU1oURBDMn3kUH0BNkarjlr9Y8gHJje8X7cLMjYZse96/TW3WvTOWP0ZEV8iXxkVFnJymeX1G0O8ms0oj/2tvkMZDAt8GQdWSAreayyhL9Bmy7JDlpV2/A9+HOS3XKO7jXVFkv/rF218SVNZIWFS/zU2aCd78QHxF2GvI7vSi4c77UIbQ23kNBLkVsMWlP7G0JLKFYK7tQnSTMsW3rzF6jKr5eJujybL/2Tdmpk4Ontb2Woh73nWadrDTCGVeehVQJp0ZePXPfRmVtCJqRYpV0WgIWgEWVGJ3pycefXidwteB8J03xkVIrJdWbpppvxYXV21yjqI7LPYQ7lkUls7Z331c5DugHaVhxjp5B/9Kt/WHjI2z9GbYJlcsnLSSw6TbL5bGGuh96nL4oCg10nYaAeCbKhzODh0b9XCBvZIkaaBW/t7HK5fzWRDHsi3bfgeiv5XMznapiDgN598NH6ZvGv2yyHJQRdvLgDmnblu8Tg3XDcmNXv99Q4tqGpC4L3RF4H7hzESkW6CewhylCQbEh59bJQjIbxwGubuXF5/BeUM8bdr3L5j0WGLT9LFVeiITdaw+310J2Z5SPQeO3NG+lz9t6xb2J8Kb/ffIENMF0pkMrn06bX1K7dM3o7vKGWFElLJTrJdugE390eOXgzoEJTXP82yz3k+E7aRSKW/9H9vm6u69a9lenL21Lq6d9yws593H6QSGTaQzOQN1dYNn0zQ0GyStDr3OYSbwlm3utjLiP7hBuC3BV94SyPhsdTwwOg3jheHfwLYk1CIXC3SuYsduEQJJbpGdio5zAb9Msfpt7FMYykecZVAvdRbCtsAitXNG3TvU9IsFuLds0ybMZADFWvop4anj3PuCIBCV7JHtycDPN1g2ATlM5Scj3R//Zv9TreBg7hiRxCF1fBdbut+cSsYOWp6fa7FAgrpFIF4xtG3mx2v7+CQMQZfCNytYdEeBc+OdfeJoFQ4Ny0y1LQdcbGjQknkd3UFM+3TnB+/PeVHXZ9rX5o7MVQ1h22RH4VJuP8yTiOPwlF1twMDH9DeZN0L9ii4lbuitd4G3+St8VVf0a4aKE8xLFjrPTMqotCrImqijK1lWKlI+lX8tX2cMs9HynCbUCbqeJv3KtV0/19OJ0JqyEIuaeCLJj/OvkcmtlrrpDI6rEq2K9zBZKlVuHzqtGfITC5RCDR6rwwKUsobKvCiifvXywvx3YlG6z7Yo9ppvtlDRUCz7ngfPkC+miNh5kcd3VpS2DqM+pdL25KFbHik0w75IayRYnsEyHJK87qoVCTY0WJNTfUubL3qfwcLUcT4bT0bPrkynPP4BaX8UAcKyJjxCv/zeQkDiTXHHuGdAhi/OIbY9dGDW/uEpWyuaQAL86ysfkw7Tlw+GGLNLTd/J6/tlh0u+Ks0uX7BXstj6xHXsZM+I3uNMWEDt8WjASTysMYMchSjnpChk8p9u13kLWNJTNnXhJXaQlPW5/OMQpHXPxd2LqRw6mX9RVvXO8lvXu20uPNriU3ykN+w2ohLC6160Wk2ONtuonpfgK7cBB4bISLm83+cj4puFfWwlLi3jGgZPtmo3KK+k8xEcrzPHuZ0HfHqMsELa9GqKx+xl8mhBoT9tOvjBCefzdmmwKP9irypTVwmg7Rzho341Rtfhj7ee+JwR0NyGkb9fEV5k+wj3RIDZuqmTE3M8BpfU1W3Vh5d0jVjaEnltd36MELg9sLz+zS1V3p07Oq9LVCkvuX1rhTruyBvU/y4jAxCnEg8w4qpu28qgeEh3ilZodDZPsLWP2ZArmL5jG3hVk4oXrHPb77P5OO8dpUD+tuPWq1s1M/wXfgqOOcKAUPW2vKQR5/RAXHRczERlebm/iUza3Pn+NWVkL3z/zGpzpJUju9LnZMaXOFxRJL1j6B2i3AOxorUYRP0eaffCI2XNIjw+PUZJKaEubd3sUcMvj9fdEmJf/l61Swv0kx1yxcYQO4W5jLHZuVr5ljf4MFFdkCBlr7jsKKbPXZZCIldWIsxCKUv9hVHOhi4nEDNFdTc6dzikmsiB9mfGbM4usTkIjaMwy0Uhr7641ItmNFVw3fXevqqGrG0cXVf/THsov8ZtAqJ2tW+oHLDEmFaNPUh71jHz4mjExbP2oIvnAQ5i9BWt1LfuOY9Z/STEvQ2jNP8Gnw47lyxlbftbTRuusvS/frq+3zH3GoN5VT0HBWXC6BAtvYxfhLu+hcic7/IA1N+izrTNNTgPxEmrxJl1gaXsg2eiph3Yemgb29Bub7hVuvcjesKWNaxp0k2zLDG49gKgJUcFHi/segHKUPyO6b7fD6fGF43zLbzvxLV79iNk5zMtp1okcCHW41x3GcavS1/CbadaE3ItqC4zVl64fzMzZpnmmHQQ2tgILSHCkpX1y909fIP/2gMzHf/jwHsxuqHsN7lv/urPilKpjnfcWwwOzK+T5VATXV8W8b1BmVYluhTJKxGp5nNP+hVAh8FMJn4nZ64wgnqakUOAf3mOA94/aLKXPQ2Rsb7iQKxo9PXsA5DMvfig4yN9VQxwKhqVdnYHNJVKjFgOA1ZoXH8xlGE4N4JTVJdqNXL/gG1/HsPvv5+4EffRcI6N2zgllQNUi3tmIYKcLvZdKNUtUPr4Wt2jSVW4ql3TjjjcDJhsfBXavdMb8dvkbt8p8bfCn8BftP2ejRhDnhIGkx1TBOvq0DPE5nYo2gzgOAwaPu/XgVHmxc8ji/sdhHccceW6ta993PQMYBdR4U/nCSwTn1OqU9juuIyWC67MbEX8JP685URNYjkywyYOZR4XS1QX979OgBRvmaJO65O9wwpNU7wThib+00jBMG17wo5EazYyOBet1ac4d0YMON8CKdYm1TPlu5jgbG7F63b/iDJygcAKf/pPLZkXm7uHLHvGu9rPJ/9s2W8Ms2c24/7EPyDJqPjXGh0bfzyisBYNr0X28YCGExorHJGiAdcFMUWi3EUtGHS28dX+Nbdsr+2vO6s6qdO0dgTQ65LxrXNijyyEF21IztD5+Esl+lv434tih1enufvw3e3sNY/j4uQHO/3Pb5iJ/MP8a9ujNxxH0fH53D+acMNn8Q49ouGByXixX9fOPy/jR20xz9K8Evf83MvlNyLtmcvKS4dsq0eY3b7IVc+eBYJtq/k3N2BVAbMO9DyfYoHX4J4Mm4zu0jzifwTyrgzvYXtqfSJOzyxtrK5uGoRb9jh7v6uQAfu9ZYeChDcu/dk5RkDoKt3bZym6118VoVx5QTOfL79Sj5lxKHLe2i10ilBDw5YL/HV9dfHu70VSfbaw9ecRzjqgzhOhPjmiB3rzK13wPB64POiJT1etw26/7v1OJvcgE72T3vdX0iJU4pk2DbAjwSD3LjVXaW4NklWANkrhYfR0KNj8JMb8kEbaW7+kdrLOitKfzU9RSHHi2/SwI7i69nQmHo+DtEUi4zLEqG2dPB8o7Le/glyyWz1SGhmk1fY6+tNye7KrCxATUw7bSeq0DHVOChZvGYW80tWc4G8SsPoZ6leELxX2v3BmjJo9x/icfmT1j927Gvl+xUvj3VSv+tf1khKZv0U5N2VlJtp6P0t1ijF70VQ3rpqr1R1rPx+zj23L+m3EaAwS7HGz/vq+QujSqq7BQv7psoMzW+U6emPDDyXFYveMsE94XxcLU56Sm6qbMgrk8VSSDIB7w4w/IKCd3srbKw5vL+tsBU2X+0iY3B/0z88WPuBwXumb1W4fT/nNYXKZQ7dR3N7hJrq+Hcnofn4/xXKfdjZA1u86ZGpGBN+XKPCg8e/VgYNz/DKd1ibPi93aV3fHtLw29kx51ssxthLKmGZZ4fo9Zs+w27gosKYTrwQ1g3iStTuYWr4uvu+V8eYnvuz/FfQpB99aK8W2ErNXpYv039REN9hCKsn4A9rY+7E42O3rUCziCORzVjAZ/Z4vd+/Ex+lOMyO9jwwag03LxInueFrn/gS8JpOltPBVrOPCTkV21N0FkoJopKjakAjFTuCzEqkfpcdwu4w9Dea7G8bOEHGA68+9S/t1lXbdLvJ5DlNe5hKzr56qRJuvvQ/a2OTUE5FlVeIx72jfXm8FsbtRdnvC9dvTD3bPng3bMx2eXflDeOYPGNEvt/vwr8ReJ8p4THeBaEtnIU1gd02UMUOVq4gl9JD2PK5ZpbVxNXwrfOfeZ7tf+gpf0KoqwDd15ww/U9qa2i1hKsk4uDU5a3q/B/4OLCmYDKTAO5pm0UMAa+z61SyCjwH6fPh+75sBfATgz4+U41gQa6UQTE2fHSh0Y2ksQGxr6370B12ML9VNfILXGONRvbk/s13KUBn+VvkeAj4CB49m+q45MXxw34bRtCKNyFeW97cRABm5sx/HEzQjXUa8dBh7SEDf9bdWBDF6WC5gnnJTLjGsSRfF8k/RPWQuCsXTrJmuERkCEvGg7GF3hL7+H0YzSg4ISGThMmSriUo6DGgvJ9NyJe5jKalzZZs9IMlbg4IynzZvpdQkn6tWT0yGcWOyOr4v1HSWZfE+HMufXyOWiCrSuBOv6b2ajAxacCCE9xodCRtDPseMaCcvdIgCl6aebNO3LxGvCfybAR9tc4J4unwu48KxKEtAGuBZ6Ul07wqu+AC6PAd9pVYWsVOJapOCbQ3OxT3rscj/jJUbGm2pzLroK+YbP1vzhlMlsAbnhkB4f+3faKwzvq7ZV5QfBVBhzwfv75MwgWmpMphAsCuiVE7x4pA1VKcnBm3c+0AWD7JWTwoXOJl+/kA6HNoSU5pSIh5LzyKvkFWXGX+EdDDbK6okp+YvW628loKjyzwTN4VWlKD3YK8VGMKgasvKokeQ+x1UaWEHnhwTVyZYZpgHJiPmdcDEAi2/pxkFfCIns6SKR/bIePsnxrtvk0h1XSHK7jjGzx91QcVIxUKwtlAF8XiP87Mtv1kiNCYK8ArzGi7yPAjVso4ff3s+UiUiQqVCMM59PFBm6HWj8XwnfJ+yMsx1WsMhd5gGmC9GypH4quuzSy71zKQwxO1gJJ6vwXdrwbjqODxDEFfsczm3FisfnNerm8xnfUYiqJ+9XC92RpGex9cS7VLa4uhVUpKAae9VAD343PfPVtFQGNwfur2dJXLlaWvrJhaWXUH70vKNuCoRbyIX3C8ax7r20e6VwZD3vTAhx6IQgjDSeeI3vUk5fvjpCaPAGLBaIpmMrZTLtotJG2/4uQgbP/GLMp7IjgMt+bFUTx/Mk/ksfvmrre5Cz1M49sErHuZOwGZQe5gcP3gDhVJywKx/FbfqE77oPycdziljlJ+JFf0kWquO2CUZfgnjl6Z79/UYLdlBCnC+9q7vstjZiWtYdWDNdZsG2y3Hv2IxQG/reVrVfl/cliU1S6g01ZawKoSSf07bql9Rfg7EEVFl5NvSp2fTddFYr9LzUWftDrPDgDh7WTWh1jz6NI1WlG0U+2P6c8MUx299d029DRgA+lHhz9CsB7Ea7O6odrx3fHb2lzV7vW5AxexYtRQrYOlgoRTuFRHLJPRtx6OPoIO3NuC63HfttrCTDznhdKTAEU6Z+1y5K2b/ffQr2ONwjAmqPwnnIWXeSjHxHEZetXHqzrSohbjINkm/lt7xLJv/BevzNZiFhyJm47600G4vjDrfKAaGDLPfc0mastPuqVReGq1me+gPWk4js2iQcUjb3Yq3275M1D055vrfjI4q0n7+6O3QQB1K0AaN46ywB2cLB9RY0LaWAore1TegMrIToPVMieCDOxvfBOkxMI3oGTR8Sn1y+kqgZd44XdOS3oAb1KieExYxGKN8YhZsYfPh2ESL2aDkE5+VwQQyuFD2oC9z7jzJX3sEoYCAsomROOf3M1m1AjOGPHH151/tq0h5xd1BoWsrpVB2ge1KLKYUmlK/cP+v7c0tblG4Tv14UmIvVR2uVcl1gqtwGy71NZT3oh/3lGSkwejjtKNfwxvA15LC7a1tm+PpVVkEzGh1ZdJ+AeG6c6sJq08E1s8v521NM/F5fPqYBw4ds6rZbBHBM6sdZJBr3LaybsqAgcZnVZ9/l5WnMuFeTgfR6hg82nk5SLh4vc36AYt0PlRkbRf8WV3Irdn0GDnWK/Wuz8R/chfBQOSD/q86GSyMR6Cm/2dbvInk70MZBuHzFq75ds/tH69ZCBG11DnxVEXDmDXx3BP2DL8nHZgX/LOv2H+8kOdBec5gpVx/C4+0AOc/j+8ZMjbL80ltwLygkSTedw43OTQBjwB+qvXSzULJDYG7LXNE6QV+phPsvvGPTKWyE8fJ5tylh1aphiS+uzAufXwVly8gyd++34wt9lTz0PNhygMTgXLT/fo9I1TL80zQmh6PUXknDq2TzF2irC47k9NsYpGAbb1Q3fgJwja9IQPBSunmoY+gVC3C9hX901PGNJbmIW5JgsAzJL8FyjlPOt704IjUxFBDmkpER061eEziCjp/XY01sxfkpN+GXYjWc5LldQ3kGmW2FvYB/vfT6gMel7+k+EGulsVtr0xT65nxvOg57KeSAEZBA1P+c24Ldt0fxLiWUv2z529h1G/uo9zBmu+4CB9R87v85+DFwTVs8Y85Woc4rmHPQ4LXFy/TO2J8Js/XXNfDO/9m2QYy9h0uyhaAoEqMxRpRtaoWWE485siBvl2NVHgfw1gYrWg8BX2/wwwD5gSRgnp27uPt9sadewKaPVtStB7vv0SzUdaUPtQYZ35JNjsQJnLZVzo/oKe2GdqybfQZOFp5kHoD/R1rTnaFtv4n+XHGNlF4CaRcf/li9p1K19PJg7r2Yv4/5DHZeZNjpQ0LsD4brIYcAxZabvvptf4q8ImmGaAqD7aDyRvc1h2hYzIxuZsW8uVikIWesZJ6v4aZ7kWX2ItYtxas3S8Rtd7BGUIpyP8uJHF8A+s3DadkDOTswD5ZljY9FHYYLjE3E31XxxIH7uvnA9BMijadLHCR3rXcPUyRerBk//KRtCLAfvGiWMpu//ABJO8vhXcKOCtuH2ouGWwDIpqkvaRaSnXCUsbVVDNUfU6fXXTXg2QOvOE7gJpRPp0PHipKBGMxuVhAqJwLYTW4n6jJIM32clT+W9xyyMWDjXzc2L0rj+IYamh0gQbNs/iVWVDYpaZuERJ62uDnGJoXcUEru1/7TNSmQubkfyTX8Et6G+60mFloiU0jXkFvDuhy8+eeU+FKHdkRJ3gJVScWOhGucn/Dj7A0bU/6jMElk3ZMqaTfH8M3kcAHt2ZUw6JvoFdFHssrDJmDpJjVEhznZZjYT1gwWMN4AAKbYtA9JyiFIeSLqPYfWU/w48zun8oR+myOoJESolgnyXijJU2orTO8PWzKPQEndoRmZLjnx2NrJeMFC46+3BQ7jSo2vEJXNSBJq56jp2uxKQOuy/PF5VSWoP4BdNGqNO293vgefdnEoTyN8LTv8aRXj3Hjqbv1q7yTmWMo37/Op8knKaT0FA5Zwib9l5NUagyu9Y+8hHiW/Oh7GONvcImWwwr9uarpxn3A3/vV+JcrjHUpFf6UC2Y7gyKvLmTWvWE8ejr3PuvTJaUd5KspNQS7Mme+t79zX6LBbqctTA2oaJiQTl26zQyfnNavLad46p7YMuKM2y4fBoYZwEiSdd3Ei3DannTLrxTR2MH/2nAafzywkUfPzH81kxdqMECXeqs6IDCvrvaN8wATldgrv2aK28pNmcEdNll+Uh1X3yTHNRCKOeSD1A/fx3t83mZuz9XZSTWE+t+B0RHsNNVGrrVdC0zI20rjvLuxiZYbfmTn657XJriV5xGxEjqB3xIDK7WKYiBMgsf+ZLgMyv5fNNpZv9lGLj+4nQ4J1PP9m9v7Q5NZpFgJ7f/lVtE2qtZsyB9zTcoEfqm/dK9T9vfW6kINfp/d7O6Vee7U6xb/clmb54f5x1N2OyFKjflDJpoLllMEtjUSX0ZQlbn6lFwalEEZFK6yIcNG/72sonf4tzNARqCpZeyeBwyx5c6Gm7jxjgHzH/oee9cn3FdiDjdd98zbrJYujVsXJWAcSsFZDV162INyNgeHVQcwthntZDWHZAJFokQiXLILlf/cg4QDjv6F8UJkLl+10gzjytsz4cQgK7ABkzb0089c+f2nUwwP8EOcGTH9iT8BO9o9SMnwX0bNiT1vs0il/wSZEZVA8yfm969vAgMKDLSUT+nWIobxy7ujdCptewBSwpfGqHtHDpu+vl3LhoZ6WLaxrwGze2upVKJw9INbKNJQ5bcqNJWwQKG5P0Dj539Pqg62MbKtimkXcUZiGD3bivEl++VcEP9qOLIx79bKg/OZ3v9kYKeU3+7pz8CBjWsrszLpKGlhpG30oDuSRj+z+UivH+kBRhacdZHQuPIrxDkP8suTDdtBbGhkLECh66aXBKc2MNWARwnwjDOWgaMM5gHFME7BbX/43tnI0pf0MbAAAAAElFTkSuQmCC;" parent="1" vertex="1">
          <mxGeometry x="678" y="622" width="128" height="128" as="geometry" />
        </mxCell>
        <mxCell id="t4ACVStrc7fiuCfUKFq2-8" value="" style="shape=image;verticalLabelPosition=bottom;labelBackgroundColor=default;verticalAlign=top;aspect=fixed;imageAspect=0;image=data:image/png,iVBORw0KGgoAAAANSUhEUgAAAIAAAACACAAAAADmVT4XAAAwV0lEQVR4nAXBSaxuW2IY5NWvtfu9//6cc89t3ruvql41rnLsxOUoJCZW3CAbJ5aMCQiQYomJhYSQIAwsMQEGSCAhpCAhFAYZMAAJQQagoCBkTBB2kXJTzWvvu/ee/u92v9dePd8H/435G1//Qfil4f+m5Y/Mh7/e9v/j/jL7tP4X//wXfnxC3/If/vmvPOXHv/T2H1cfffkrGt5+yQs+fPHt4avv/Ob3/rv/5jf+4V/7+N0vPH/76evH7Y/hT/7O/7R6fd0uYf+//e0//P5b9qF5U4SgfuHT/+GXACygF//Hf/aTf/BLBexegH9OlLHd9y5/+D34tZ/13dPFzm0azb8qt2DqKj1JZDa+WRwiPSwYIerj5n3a5JDN6SifluyUPWyvDvCyfNslkn5Lndqw+NEFbJ4uiJ835vIBPnx0hy7v9VXNuhenJous4/CeRwbvHuNhSzPzZIBPLMSX8N/K3Zst+2o1XIzoaQtauGxX8xkjMRCVr4fWoPE67vzyHvfJ+C3j60jZ+RXd+7xvVx1O2udTBu7LB4HOUfV5YVYzHjiO9hdWTRYSFrhtljKIYTFbU8KpjkmkaV1gdoMzAr4Lf9fLjX2XAJyqF/fcQ2Uhl3bZmpHBZ8NY1a4M+2ilV5PqI2EA36t0BwPBh3HmohHVsGChJoPO5aoGvhrzo4ocDpl55LnoOW6YNVlfGkLSRu2ehOIaOhgwbwjr6IAuIasfvpFtNxX9AvUnD9OIlLHS6SWJ2jne6zwj2SUsTg+eEzCfDpHYNQVEn5OX1RqnZBKhbZxlL1waKsDBCubRMQHpWJc7TQmYAbG+mU9GuSPPFJlCELR2Iu+UA9lCok8on8CPb8zY4hhMUM8B8iHMzB4xyOM5yfznM7Fi0mjQgVS565Nb/lmEdvrPgkmwGz47o0v5wbLOQKsgFCFPlgWYEVvyG3O09qTOgi3ggpYwiW4HIJTDgCewjRPT2v5b8NeulDjEE7MmiZTRMKHIxkgqOEdtboAvFLzJFxOHWIeVFHvomR0qvqu7dk5BHp+pv8Dg2MfcTjSypWMJv6njc+kn3hQzCt7EPYETXmNxtzgVJh+M5DEHT4mC+2c/R7ZTLNmxiJu8Y0FEqfaGsel63AsKkoCLtk1ed/UCGhRrbVqFkTA98o/F9Po+V01PVIlxC2nNjIt0chii192sg55chEsB6LnkNgSXRH2KL5/4SElUJ94GVFkJ1qRGsz1TmYsRa2RNL09HY8mIZrXKzvNxmFuX4ruInWcksfCaymVyusX9HLWguzgM1CcjSJLlXABJEUpVS140ZLPmVcbeA9mOiKlxdMSHOgN3T7nIIqsWOsXrzaho5NMR/tLaKoYJ6uPMMKdWgyISrnpeR3O/bEuGKeiVT5HyEQ3HytKzzO8vkV5o3GaJOXkmL4EYpbBRl8uuLO4Xy2YPAqszr6O0ZVomjtnFU4QQvtnlcrCYGGzjvqpbHv0A/sv2Yhg8syxJlTXoaQea5+1yBi/fH2aSGp8ccST2EYsdnFShSVi2Q3hxwLsTnNCErIMZId4ArykHlKqdQ116VtojA8suSCZ8gHYkpHJuBpS+yVewmVZc9GMTd6wn1/F7aWJJ+JjqzLXX+4zLnJTD292UGYjJ4yrWM4lMmBlmD5lQQ7Mh8bU+KcnDRtYXSisnF7Bj8Wjm3WXcdPhgNGRmNTreIU16HFtm8ttsxaZ1HZMjVAKZW6iyk4Yr8v8V6XaSRGH3GO8zf85QENkUo90wkx45GQ0aESgVkQY0gtZAr4dn6z9PJ+yFbFnUtgtE3SSUd1yBaX5bIqk74rr87c8Mk3t+AxGNRF/t00qA77278uS8GtgAln2llmp6ID9/EO9pyOvrDiqqSKGGKtMZIKPnSETndbA57COH+MjVgizesu3hm+5tFUxbnBL/GEKlhxi+mPwiRZig23RQUiygwvTZsc0vu+qQQzszWmQ49Pt3G2aRRIgouxu0g69H+I//9P6ANaZ+ivRIrjJ84C+xbj2bFJJdiIzwkJyYAMojwXp+ZtvoVJwXYxgTdoaGK7Q8ZMTFLVhFsH+gEZJMzDPQihdAawgtBtRq4TmNb2TuMqmrJ0qjrnvRwv476P96rwQuH13sFSwX7rzE9u5HJyMfQtBzroHpJmQt4n7FMTZg4NFKhofwIDs6DhOjbZhvMPbMMobQ/RmiRBRJXtBd9FyeurgzEAqLj6nnyPT8OeCEUYO8nNDqpK36R/B3aBhEVwjSvAQPCpYFPqiG/8yj6nPje7xQE0Ph+LUJgpbpXd0kaWhJ0WHOHnbdcpwPIp6votFFhys3h9aGKd8m777xUE0kjApBZzAoXW+BC85tp2SWMDXzBMLMbQSiGX3KUTrK88MjeH8CbTFVX79SAX9CyMfGnLHudK6TaXF7K+GijXT0LNxPi9wQNX5yhaNZ4HILs8NXkjZLDjJXNAkHfbc8lQc4PMqgXDN6qDqNIpcVWPXWxyCMMYySEuUqPn8b/vd/LO8353IUDc8bpi5jp4bb7AqzT1+Bk8OwB4ouakzdHK0bUI0DnZx6rrXPWZe4GRijI8Ozd5sk2IXqyHkSuPr4NDxmLsZP5WhlBPuVYf7lD5/frbP36wdKpMC83V8coYku4N//coEM3AdEyvZZROzNx/V9iBmpzqoxz/AZTcZ7vHkPNtqvuJZBoUOm1s2ixShqY62sUOVMONeDeZHIec+37eI0wgRrKH3aEE5BH9LRZ6tMqYl0ZkbNgk46GYC0i0/hz/wySvbaYd0lWfQK1OqkSvWUrOqyVeUwOC6GmLlBrj2k6cPV7SQwWbYKXyit8KkK2oMsqJg57Zn6QNXT5krIN/LAfAJGXp1jKdl+PWT5+u6ya3nv3Zz4UPOLntwBjL4k3+6S/WgZzlTr0PGk0mg2gzjPJLZB3PJgu1Wwc6W9Pzw/JfdmdVySu2wL9iIO9ILUNuaiX45hXOsadYHLB1DUdk6Xhy6FaZsJBlLtCp4+Zj8Q6c32uOJD8bghJhpF2Uwe/rvEnpHNVMi7BG1/lB8+wuW7W5EyUR4zfKv5yFEIR7wYL8IgXMdxDcBaDZWnwyXq1cL4+Y4htMK6i4LI3xRQDzStIwQnOtuYmJkHjKiYp9jyA6Go4ddnGT1sUNPT6Br+wz9B6rwbHtmmgETvM7gcDGmCXaJVPBqjJq276kIeYwDmyYWdO6y5ioO/qA+wXlKzysHjSFEHqtmmmk5pOyajS7CO+8Tdc7EanUeAmeLoqEHR3OV9HGs82xh1Oppm9IU9n4s2/jDSjWs5nMmI8yGOU5Kpycr2rLHZ8MOw6I8eF7Z4eL+LgOgBvUNXdH3qEOhj4p0N4VaT6SK9nMQHEG8Vsa5Azz5OXG05FM6O/TIDMWO6FCmrHfTME192+iv49b88BEcBQTJe9WlG0BNFYhzU6XsUqP2m9112M75azTNXo1129iOK/H6I96/dsuGfJD5JzxypQesCwxyJm+F7B6KettmBoTYzHp+cKCzSEDmZSYEpJg2eXeT2RG+6Jvsr8O+NMwVyo9u4YznbjGnTJ3T//DGQVE8XjxSF2W2PGegBAA2/Xp0y0N/u2kIWZ8oscvkhsgqfeATnyxfvkbtNN5fHgwb54k3MRZN+gkOJgZG0sNbm75Y67qFKw8AcnYDOH+FvmCsTTsuahzJS0cPOzKSU4T3F5bhEfeAnzvoVJ0dO/NFdFzKeOiVXEB95FgJdmXfpCcbsEAx8toP0MERCfeTM+3O1l5ZTNW0ekefV7SKblNJ5HDev7upEAReK/TY0229D+JuX8MBjK5kniYRIj5wAGIX0geHM1yhcjme6PIhcaZ/eujU49UnyFKtnQxKiicC882iGQTtSBOZl7oYl+7mf4sfeni80ceMwrk1kIIgC92Ssk9HickBRVNPZ43N1CX+tQFiVR45mhiDQi/vtUCVfXtRM9B/6fj0C8cYRGbloZJun229PbtkQmZ6pWU88hP0lGt2BLqZkNutqzwsJCEVNOAlbrzadUgbBhkKef/5q6ja8G4DIBzrD9KcXNunATHfwb3ygDWX4DDlbNSMPer13KzpGxqkcb2TbZpF5AulyflvqPPSvdHeoNg+L7uIBkmqEIT71+UhY3EeXd8M16/uiDdVBOctAnJD7xDfrM6QPMbHXcqyMHLtLn4j7+FAKN23hAf7nf+ylL0mXMzx1kb6k8Vu9Erk/b41KjrE6egqyMFuWtPe8uByDTJ/Axq8ngG6aSK86AXqKQfP1y0aoEYUwg84VTzlyF1g12umq1+L0wvw03tUxc82lbxJyJi4iAxcAfx/+ah7frx7zeXHelPvlwNVHh1kgxOaqVqvB1mpGeTkaOgs04S7bKRPvp3DBJmJmzo3j4osVKM5wE8WP+yxu0m59BuewpIerzmXDGMqRWQYeNhO03MsivseFBJZLH8+LW7aH39v5F4+rlvYXLurQ5OOKzVJnWuBZLaO6+BzxgK8nHbdtpq3LFvzdPl2fktR3ElJMR4wFRnJliBhde9pqWfH7RJXKK3Hgsao6tWpRoJowJyGk085Y67TlAr65Kp7+BP69Ou0W02o09auuv3StKaNK30zcXoCjDcPWYsfWUYDj2zWb/ZSG4Cbv4cr7FonQXpk8bSa1+s5Pw2OJon2nciiiaS7AaXdTSiWGBGWj4ceVLU60Idy5fjuDvNUz51ixa/hff36PRrxxn3xHaWSn3FMdoimfVGJK+uPSggROySV5G/XXE5+1uzCnbrpqIwV5MuiU9gnwo/vgbMiYRUHVSdATRkjCZKKpWZ5YC2jghOghH6lTql0WnU8NJL5Jj7T6p0T1VW3pu/jj9yTTEeIHmi6Om84Ewe0p1pcn9eERW8XO+Z5jqFOy30SWVpVqVZ3XbIxsOUl4k08W41OL+O0iDsCdUYwEOm6PIjdISjHFLaERMgxG4akwHpZ7uFiwtP0P0QP1IJkW+CnOgjG9z9c+qnQoFzEpdgQ+9fjTJwxqbkCBIYvmt8O+S1bJw5HZqNvRKl/zg93Fdn/OyrgCLeHEeAfRTNiMxzI9L73D90hV7Zt23pOHJESO6iSsTPiqseIMn/0sGzlPFRk8imWUWJUUV5/poF7H+wfjAtEAXHTKlxKSRSOGTn+0f/H8L7K9sET6dP+KSzgJ4OW06iCfIGXoDNVEF70w4MNHvWy7UttMt9HVcIj5SA+ckCFJ+Hxw+cP2kXy8GoGEHcVmgZLOxbmD9nbQH5joy1UFu27O/dRUOigxqIdXjyJL6gj0yRHe5JlJ/dLUDafR/LhdT9EZ9wasPeIEB5jU6OLYXvdTwlpKTOrPHrWpP2PN3LiQ9BSP80Z9n7w8p6g1QrTROT4VAGhvKvKigeG9bMfgbHze5tnk0kiT/cv73ETjRucdpS4umvjuZzePhV11pi6QRwHWRWIkRwbGTs1LplZgVIW/p+WYw+DthPU6AOeH5cS/KudgyXEL/7UORbgpDgReHNlFn4Ny4vPjOm7jfecSTXlEoBNc3pd+8/lukii1044j9FV0SrKrSRzne5qc8zBeGeMzxR9W6WzUpg1Rj90ye4OBtVZfg84YkIeyZe2iMWGOoIOYvt99Cn950SVQQiygdX5dDvwhfnFy63u0oD+J6w0eFg+l3I2+j1FNofKF2/h2acl0TvCzZw9opvflrTaJ9gk++iXlRHPY8LoYY414S/v1NBPueMMzjQZTzspHVogjjIE779i/AP9+21rjqJijQUVXng7eOLJVsY5cou0dQY9iIXSppiGzB5CqpLlAmgqr49tLcjXWaBFaesS4TRuVTnFnKOLCcZMrZcN5lzXszZJ2H31C5xXiBrTLBkcyQQHjc9pn+M/gP/jBAB0dIHejiItiD6c+YyWn4LzrqDnGrkP+WdB4Il8VEcSc9R1MyUjibromI3TUYdzaXPGY4UfuJgrPTC14z8qbYr9wNJxfDP2rc3FXzApenJF22z3TweTHxIouX8BfJ1xhYmjxbqH9BXUdQlJkMG0uetWv3xZ6JjGOPOuEdLdrtp2bwDFsghIY5dtmIE+IeT5XDmyGG7fA1gKXu9ClCE7NvApzrCs4vHLBY9ozdoDJUczM2MDuSEgiDH8jGyxwJQU9IruAOqiIXh0uhgnngEmN88l3O0nh4JdfEZgHizMpd28FJS4BloUwonF9HI3e9RdJuAnEYmHSYbg05oi3thNmSsxrSUqBaD/IZV93ayjbPJwFmATZwl9FlYaWSeATuDkt9pBJ7gAbkogih2tMoxGGdnn9MAaNmI5cOZjq7TPQwS17l0QdTc8k788uBWdc3S3C+zVzlY6nbLQq6w1khqs0JuuXTzcYZYkbGq0hG7AMec+k+SH8/bcsqZOiMXDSuaFFXDNsZhAFHGl6XKPZOxnrDWR9Su3s3AyolQuh4fDaTA1jcEBsyH9yiQ1gY8zcWDQRSRXSVW/2YwK5IrHNtjv9Fb5b0xCpm00YpvCyNgOEoPoUfvS9yHRiGrYzpTiohSJ+5nP21YcFbTQxRJUn49aeQPriPqrFnQ8wc7yOohQUn6SW5MadGcsvb7tHDXABJFJR6ZKLSfawpU08bqNODdnHwN4WeLYUatydLnTIwVu6fzFV5HuJ68j+VTGHuFmcK1Z0i302h+3k0fpISDqNcXiu7rtsfzKFJMpc1XMUnY0G4bTY75+r80LE7ClOT/ncpWfBCCdp5w8FucrfPWAoklz2+eVBJHiI83NraSN2CLx8PwuSHRCF//HbAx1BAGOFMIch0gmb8Vg+qg/vSo3yO7ycBbCVvifa8ss9mFG0hE8oaciylZJbCjR7Nj6iUhEwJRJxk1VRT7/IPha309NMt7QVU1gD0PlC2c1tpRuIxrTOmuAI4gL95m4L1nHmq86Fs4bHhmapoWX+bPAjEz2GT1LO8GHajRaZ0eMII3s23fDiOalCYtLBlwv5drXu3qqnnVu92j278Kd+uJqPHkDA47sQu3TbkhhubGS6FI91p9I7pNnskboP8A++inSd3hWWCO5l1l+h6q4y4eo2w41J3sGAEpOdLrRtFwf3+C0/QsYG6nKfRuwd7SaKVlKnTWJOHuE4RVVMzzi60+4bQL5PZ8zHlev8wHG0ATdxC88/9+NYerdw8cEpF07oT9PTlPlv4zRER+2r70BKL44Jvc14F0q0mOOy9yNyA35e9/HXytj68zlhSPpxPO4QY9Aym/ttku6ef3QFjTK+kYf7NMa968E7U38Vs1kgv1kh5NcM9pdvUnqRwb1AFScw25DtxsQ3yQFhduLAdehC2nYRJY1qd8SF8Rtd5uu7500zHezX7GVr19qDKV3QukkhTodFCz4N3fZh7TWk4MJiHA5jGVuLyIICPs8XEBRPtjRLUXNhi8wLNN93+dpFSqjcruAvfGv1aYo6EDXPnkJerZ7Kau7x6dWbHOjnDVG8m1oKJ5Ttl8BeiH27kECT1RTRqGs0gyfCiqEEgHTIrm8F/qb6DN88S1aGpHY6NHJBAU5ayq/503QaXn5WGpU6N8BSw3DE6o/h7yb+kE+kx2m/tDGcL9MadOrK+7hmLtIDls9OnSmGhtM43TytFDgBPLLUgPEjpQ5+UnTXvQ6neJ6gE0zQavzBxegyTIqZ69Z3WVvwQZQ4CeGs99FQHnioM0ol5OLL3MH/9FM1pcAD3xSJ9QVcHHLQaBFdKHwc+TyxWdN1a/vCpyYElo8L9US87XBcMRLgcEyL2a/79uX8jgcqSRJpRSYpOJpLcWxWuk3r614I0KYJqG3DwVTun+FzQgK8ldsNRL81CONpNMeRwuqyXUr5VPavXeJQR6ao9y7OH4p2eQykVruLI+Ens4B1ZCjOSb9PY1J/E+zLBwY//XBWrNtlqpHXerCMxGN0vwsTMtilfBgkfD6RUw9ixTeNpDituXRX6G/TZc5QZZQelbT7vLMDvc86fYhUpOltyjh4R+zLIUsB2cjjeLlZo/GYu6hZ9NA5OH4S39uitRNYtGJz+ID2PahOTcxtSvVIj/1E3SzmAfNk/Xk4Q12iYlUnk4r3ViL4Y/i3NtDlp7ZaOXif4BykJ/ZFihmjBVPD6XzdkULPMJn7V+zzRaUM8b32fmYb1WcM9j2KUwbg2CZ+qnzUYZBnx+wpHzl3wZyTgHgYDRDEdWyFuqij07SaBIBQURvk5jMyDt321r8AEp7w7H1TZiBHY4UW4YEGkdV5DnsqBvDMtZdZ+hZZS7PmeM17W0RnlxCw5z5DtykvPgPDiKCMGvSApYPQJQ1H2cjyYFNf/LAEeoYmhdwB6mOpU5nPV/5jYqJtH6Z7nDwTY1/GvSAtVDtMNIl8cajuN2FeuDrhbr/Mw9GtW9HXY8JN3nqbGoybzO7U8IG/+CTOgEk86WIwxgJCE71futAviQu0J4dVdo82d2i0JI2k38NE6QM525+F/+WNv3tIdCnjRWoOITPUGBxH1M/RYdlKguKweRyQZ9i/IGrioZ9rJkszbHeTg3OWPKhZcFCcmG9DgtBDBofEx6SNVMvAMrGdel6n5QH2qZrkGvYhgLylojHNYvHuNSZfzAf+osORvmBwJG0Jx+br95CGdPLwNIjHCBhwRtCLFeZvay6YwxfvY6Hj8G4NzGD3SRwj5fcPOxafpxiVnQjDlYkxSlSAdx+ZctaLRkQIjqCkuzeWTNmx2Xrur8JX2dNfwN+WOD9st400S9obuur666MDJOE9QyN+ZKF9PZ8zmFytZF/H0yBBmNCr5rg68Qy1y6mkffn09flxLOg7DyhRlCJXdTwHDk7NwmBU6ySL8X0JHxPYxfEN91z0nD5Gx6v44RfhH5A3REsSRMQpfQtLNgmbHU850Bmxjh7aooK8XRR4gU6oW3ZTrQNMZlczga6PAp9EcBUS/Zi21Btim51GIGKSRJam4xP30qEsEneX5EAfX9V9cHCoTNoK1pFexo/wNzb+PG+NDsqvn/XEDpeA1/XIfTRF8LyYdXa+aJZMZ81UxrIM7SlDw7ToyAyPr3h8READvhvJ5Jg8oKh1WbkKviO3qwSK80LBMXjjlrW4eTbDwMEJ+RhyDd0pbWNTvUE7OsD1OzVKfFm8rxWiYJmr9JmBWER2OQxXK2qMIXberOHQ3d1GROQ2i16tiuRSbT2MXUUiO+swPSmegazCxnVe9EXB1xrN6jw7uIseyFfsbhIb6D4ASi8XEYIlTNMYreBfvlQQVzdR9vC1BqrnyalUVHLZrs7APj+bC7dne1KtbWtyxoZgxw3tFOoWr87hZtGkmU7v+Mt2PrhoSrieAJ7D+PpceOxTM8foPIf0euzS+Kmx0MeLVpQHPmM8sT5xGIR38O8g7yJtYf0ca8EJgyFt4HEqXKjXwsTLm5aR4DAe4j5ZEzuLp+7F1Q9hlML8tgnso/u15+AYLJnMwiysnhUCBgoCL+1hXkB5LDJsJx4gVY5xQ2DjoaIjtaBjNFR/F/7O+ihqN6vnE2TYVhsIGqRRC5QZCk7gGr6zxH34IyFmteWllliPKYjYaRE9hfIxCCCJYh5JuTCY0/N36pbiHtgk6sVxA5OGNTvwOKTEIBGASrtpYcedbycoV2cWJ38Gs79yAWpAw5QiHOZXyebtEt6Wav4ciohkz/foKcn1MPOOpqEccaEe5yJGZalbPaXQDneltQQCEmis34OkbHbzB2r7+XY26D5kHUWY2DkNTzzkRolk9NIjqrbkKB2Jzh9I8q2XXVNIPl/j5rheYnUcMeFtGF60xgd7t0UNev3AvgI5dgIg+o4xEDsDKoOOUXO83gR4ELzHTCnfXJD8XTTFPzIyu1ebd6Ufog7iuMHnXTW1roBhQiccIpvNZYzm4C6vNvBvAk6daOhyUm7D/BJDafmbShLUZ334mCtckfs7IPZJYEX85WqccssyEUKe3d/DZLlnTh4jgshk6bCN7xGHtOAGPI1p0SM4iUCQg0P+kPklsjh+OnIEhVPppM8XS/+KgCVRVq5Kqy7OoeY9JG4eq5GeEhJ3z4nioXjjy8HuPPX4fNHNbEpUdvRofsMBIJfpG4K+vWcONcHlrAUmmagMx0UZ6RuaOgy2btRimfU2N7k8KwazqdyzLicZnbrt5+hfVQFSiu6H3FOQwn0z8RXRTAETy8V4cOdPfwA9OGvXYQu9Cwsc6aIPRyxpUxP7v7+vSKvWpleX0TZA5EupHodTEYEerpIs1nMzsEYeJcDKmZG9sHntfMSeKXhiIut/Cn+1+XDSwFW5r2kphWa5xjfVTLpNNPohgXJKthNJamXzeEAwvKskM6TL/Lo3PJX1ph2T17ebvZN9mT9HdXaay09WBaWdUQPI3CxEYxIypXUeDwDHT3F8AHK4HGkkcYdW8NfsvAQQ0ny/7mRFLaNwNMQgdB2dQP/AngcyjFWb2kAW86bu3WXH93rprJlhbs8xuNlugE38lyTDumTwZqV01a/LvZslQIDCwaolTvh0fzmOXYEBshPa3Uc6DlCDPIevv4Z56DOvadRubGFB8RfXQ4+uWRNVNbq3AlOm5GL5CHHFXoznEetYjobWO3REijFDzboPdzBOZs4MGaJ5ugIgswy/uT7JfLIOapzYPqkGA4A45s5wbxnwXXRcbxOC/iogQ09wn9rwNYbYotq/rMNmCx8yozf5Squa1WBTmHwmHWvfgkyje/DqZ/IL0BVXy662Xc5z/2p3hQbYX5PMItb0/ZgEuDmXpc3SGBU8+GdiLCTRlMxJcDECSEZzxcgfB/jbse8wph7ZNSxGsjgHZfNu0SrDaTVP57KnAo7j5vAytGj62qEk98YX4qky7koets6cn/eF/nKVD3dBlVXQcOR+LAkKMJbtijczYc7gMKDiiQYyW5P31i4DjcLkmqSAv/+eMFW8F9PXTGpiL5Meb/rr7rDsAyCqJgZmfudkBwqDT/GgYy5U+zZbgCS2V6wWPbyJXRJ5IGjbJmedYZ84R8GcYDNSSA+CB4WENe3aw6C190wjIrlJlRjj+U/g7/H3ADA8AxTli2Y8Y+K/g33oY6IaNHI75ZxVd6A8z4Xz5Vs6bDTsMRDt19NxlGE1Qd6+dD/dqPwOuLbyYavBWeRdNIbLvQPkmBfx4cifDxrRxkaz6AqnHEGBHD9Ed+ffhf/eTy/6MWG2Xk4vs969pYUPXzuybtHIAt+KGVX48sDppxWJrNlX5wIFiicMOR5yemIK5Km06XRq4vDshOyY9IWGCrNAVi1TmwdUzOApk7TbOCORyusUtXaBuutaWwiLLxDcKrcacXBy5RNUvc50At7Z97D2KQYbEms1/6hWD/TpoY0xnxdaTQPaQg6HlTmHFExSAqYmvZrxzWBOG4ta4Y2TDD+mafTwouoXsccFuvLtmBJyXlL3MsNu98hpxbLhCv5WhodsSqeiTvIqGZSMvJ71bJaMBFrOU52P2HuAMLBSOWBL3L2qCd29hx2eVyFu8nxsq87KVEZSwbRPBloY46HI7eIhIEPQLBkXJzOjhl1ok9i+sqKWV8d05mpDMm3iY3W8FhrF400c3MxglEhJHxdDZi+gPXpYnHKkEHUIhLKPNxpY+z6VgLsxRemLntH2aS0iPEyLU2siS7WtSyamLQGtib2VK7XWz//omVomNiYyYaszTuhhMngkP4T/9hkBODBIBOQas6H90BuNNAFgsvplpm+WEjPNUJ2Lk5hjiYg1yftyp2ubTIiSWGWhNVJHSzWoFL9LmfchcmHhX9xEqDH3V+bF44Xb/hgYHCwnTMWr/Szu7LLXFEQdvPgGF7Yy0AuU1GO8Oq2fFqBlw6U653PGzO32hEqFrMQI8/yh8qGu0EQoXL0luF+NXcFD9AjI7AVDBJHzyJHHfUq5K3ToaVyvhvyb+Av8FS5/uPErPtsCyiY3ThI3zxv4Bz+pU4TG3Ry7iMl6h3jbYF3t2mwSM8y8nEG7GdJBTduhzyMdtW6W10mwwBub+GkozsvotLrnqGYwylA2PEG81N5mdTR9U80HQEhCBhz55A2fwhxnLnz5In7M9qXrwOE78L/4w3TWeYd9jqCVNLt4nKP3VcngAGX1qFcXUo2b+NjRTAIXhu1ZFncJm5+7tNHQ5odESGcGv3VPaNte4vVdhKSmQynTQSUwDol1h+cPDtiFRHW4+QaJAtD2Ycn2eVMM/H+B//7dyTK/HLFcG6VJ+CA5BuyK+AYJUxwYjJgOg7kAQfpZCy8vwWc877IqeizD41Rob3xMyEQ1IX3JVJGtze14MT4CCvA+3044nK/ErRN8brpndYhZ3Eduf2nhqLEZQECHrCJ2CROe7n2aRivnRRKz460R/XwGLByUgYyE3q28LH2r57/44NoG/YCY6RqqFVpdsNhlYzgf1pPORIsoSVp+ybDipX0w41DgcVHMOorWmol6won0L/s7nybUwYs1/A8eTE+b665oV0eU3W/byzFBSGMEokPYmSXC6POLBgcwRH2lRixUcguwF6AwXdRn3GsM2TCRHCE3Y4peuFqzqZCks7TL4u4JZ9kCdVKjeIjNRM8rD+eJJG7wBGKt4S88R6Avu7JP57Do9VQx4kSTCwhSNfqdvPwqkQUcDz7yPOyrEEf7nuVUO/FAobC0efW0sJLEzMmbi5bw5BjFCE663uY3mEyrXoyL7QzvZg50CUybRhC7kwAyTGkLToTwwWZwAMNwDB8+mIwt4JjNMVAuMNni/gAwFzMed9NJ2BA/+YSJ5cScKZ8WFkrUL+fwGDlKUc2iVkDj4tmrxJrrk9eOLkJOLvsejDnGltF5jLdHl/WpQQRSl4yLFi3ENUhY4Zfb6328QqvznYfLeEmG8IU8j5/iG30H4l71JgujNyEumT1meuLDhaFj4murc3Ge7ftG6DTYoHUdcAnHeFp3SfaSUjTWuPBeOsLSxwRhkESdSARKpxMnsFoiax95M2oFTHOtLXkaAJGn3PCXfiXWbvXlRF5BzHKXwR33LIsCm8l+HpvwHnE+xNew1V21G4sWMCPnZj4kC9cqLum4CMR+IKYQLxGutBjdnA1OHCZrmvfEdeoFd9Ck5HEXdTkWAw/ugSX7cemkvRjcmSzjNvHq8roS4onSbtDalXq+fOI2a+uYc1ijrIbJvBnWQzoKggx8ZsBouV7UmV3Jxi6V/ecWV+wLZOJQJDcWJ/kZLBvKYBMlQDU+qwr471gJZzwhIOPEjRExyOLt1JOZgqXWEyfLq9vge6zPr9vUn17vO9G6y6fsKZVRYqMhC8GSQ5oQrOmExupQMKUh196ZKWPO64V4H1lhcUbMjEI2tiDrARYz7TE79Rb+K+2WDYiY2VbOcBsKd3zlHBNfVA6Dnj/yPHJg9qLgCjhc4H5Wb15PHU6HvK2GqE9K1/K45tTRLiBzgWDHOyxXeu5XTnGF+thhUYMMinkugQHcxL1zbSC8OHaxQhffCV81PZihtR0AVy9EsWtRreOPogQiFJ7NjiCLWOieDljn02lWMzkOZI3cAzzEjtp+SGyLgSsTkdG8PdHsBMlK++SCgNzFkIG4IKBS3Dg6TzMYwY1OBhgrMEhwe4V+EY1bnpkMpWfgZ1e8oNm2teBh9I0fi7jbzU9PnS8rCNOm8jVQWF+IYuziMhPiJKI9oKc2TmbNajq4AcLTKYFGegUf5dg7q4pSWEBtEk2C2KAY7wt9E4lmmSSb4orB/+p/rZAG5FxQb84X7Oq+ij8jYTnVKxRGncOGqTju6MpyC/p4asDDFqJZRd6jtFlYwjTUajPK6lTB2JwiZFHUUK1KODLOnopYj8k4qnS6MMBjO/SZNgsrTekIYu+eDfBXvvNVSDAyui0W/gGgZXLenrBCNaMYQkS0HzMjXLSOQIt7WfbWdcwNhcukZZg+0oIMCzkWmeQGTxpotwz7RBWaOI3misMotMlZDHlVTyYxNutBcN3KGdR6Dq9qFJ22OW2OMy+iaV+IAujnk9JUb4TrcKRNgBnX+hmbNfnA6OTc71FFZRWz1scp5WVAPW90YZTQVusVXscSrxDtg+tAko4hasSGx36F97y6gPlJNx0Am6AZibcuqf8mAhdtVBckflDYptJiMP35QCrPGGIxGvOcBC/9uBcO1MOC9QNls8E7NXRgw9WK7C5QNiZel+0JrbKNxJIsgo8uYSIDdpDGT8Pjl3PKH/qoHwETm7ek0CliVVRn5+zg/hH8XSTgXdHllvjiPiYIe5vCYo+pZy3lFq3qs0vhspOmKLmb7hG4uE0tOiFKktU9ny+b6iQTMiFQxX2dED36xIJZJ/Z0vZpj6WoUadtzH2lI+1eTXb1fnjk1iTsgmWQv4MfXIm64UKKpEjdJFcUesVEF7nRh+6QC5IwcKx5ANIcXqannmPRpHprHXMDT5Rks3NsFGUr6yUf5WAum+wvjDkkEwhDAvF7dipaIuktUEqFnLWvhx0f+2YLOtp1fPvKMXsK/Xooa+Sw4nrdm3HX2meYyf0BOeDsVQmBmR8S8ajdoopS2cHRC9JFeLIii7+ND5mcCiStlRs9qBGBxQoEJKXkEdCBP6wm/qmdknA3ZVZg0o+Atc4uvymlxsnE5x/DyF5sMCAX0te9FSyewcpTcw1RuJbN1Gbo07UtDfR6kFvVIAJ+oIGwuXJfVK3oK2HXEaHHl5jZRJBALAghEGwgg1mmnIypLAAGQLAFNHnfJAx9ADrrEkH7Kd+h3Z9bZBvbusS3n4BOgmbGLos20OU/xNIEFKiyhQbIiB5iWkaVDXEI10zCVY+9NN8fFMg7++Jg2MgRAOBxnrDJjvHKHLF9yYPjgCdYPT5zP7jPwJ/EESKon6qr2J/D3JokNtQQGT4dCoRBLxKdMSyyoHq9bjlwyRC3rlmHnkZvFPteBHAvrqbNucjkGBtQFi2QLIiAdG3INIMKnVMEQa/lcctCXM2S3H07Tcv2JeXbD+yg+xPzu5WSyFP4tdeHFkWOjMx01UdSLEJ1SgI4vRBOGTdC8H54bfJYl54BLQB2gb8/PPTZEX7eEtjhEQDcs9AvDg4OBsDnV9CGaoUMTq3DLFc6Vj83Dlgp+3J32caIPscMw6nG0gP8SY8k+iO7ZBPpIJZNwzGQe1XolWhjclOG5EDBgrzu8NkOJq/MwEtStahQbJj3hlNXTpk50n2cqaEZaXkoyWochQS4NE66j9mpIx4xD5+gwJ6AmYI4X52e2lzH67oQYoiwLhzOhpSWUwASR8WWiWfmB0DEjKJmMB10rABjmgz8OmhUwDSgNDlFm4TjAxERozuPTU2uC3MUDD+NsoSdgoQM9l3RjMcEz6aeuAReoTjOVgbto6PzVmlysyclWjrWpO+cTjK1OLILwgVI7mQjMkSxMdRI4rcypkxdsLKBDasad8w43mWKnwk/RiUI8t34dSzO5ZdzGuTyXcoHm/KbNrCyGrB2WJ26ykZ9mDi2a5/KGhOX7mnzX/KFI8SFz68NOsslpfFhLIQvvFd08ynD0Avkc11CnV+kBsAxB8tDLdX+JnGFaxUoGKGkiA1c8kDCKpTdjrdgKuLEITwsofEppn8gJtVipD7y2UYsS7HI+vbcO/rf/cxK1kLTJVIgzQHENYYpOcTyvj1vQtWOVMrM7IYusH7rrRMIyjOiey1wzz6cBIlIccLuF2LuJEzLa5c3lLCOiDYMwptLNCEAPA3CllTnWuNUxm1ibZHeXDQo/QdvSz3Awyz5t68XzlMUpz085cmUj0FHEsTufs9EPSFkjsOmcP538u6CXAx0BTxwLomc+54OmucjK1SKRHx4xyhxOVrak84wo8IAVvogxwftaNwIBO7IPF+c4kNlQBF9dDmg5nXGNxHR/GmYg3RagqB3AgK1PgNjhPCQ9Qum8zBXWBA0psA/IlrMZCmocR8GpdXSqTWi+bATXaYSHJiX30Grq0vIKR+6Mh7OBLI9pNFegT/HjkeUQJej7BO7POTqR7MjWOjotuNCrPQTJ1OXaW4X7hbvN3+MQOzpydW5d9TbNuyll7WoqO+exhT0MeJ+xwmyyp8TKEZF2pAvz9DOPt8uxVJZrMH1wZGQkhLaoYoNfmmHlZzlnT0TA36lObIojiQLSh+8OD/PFmRV6J/vMgmZOXfxQYRWfRSB8mF90CfTIgAalQOcDOzPN49utpuCWo3JV5/u0joNH58qPGWSTmB3Nkn5GAdWxx/EI+CEX+xxEYmpWPvpk8x7+62XngAM9BqEs3Hv4rOeTjWjNVujNkkJVp+LmKrjAGoKIl3GuyzeQbPwTxVZzr8TMi2ZZIzClUcskLM4glwbqD1EbwykcXg9vafjgi5RE4C5zkaCTr8unhblA/tSWaESrZ5ednRPGTHr43GtUU5RevJvY1fsTnF0TuHiqwlGf27WUQ7rKO/t5nctw/IBfqFy00lB2HA9ykX99m2yTOD4iMzSjX7m3R61gm32pX+6Wd5T12/XVTMfh0KdEX63uBn84Xr4GV+g3G3WlXjz/5c1/9DeqD/PfXue/L8j7dfTLb/3/+/rnl1f45//ZvTl+/3TxW4J8d/nBt8y3/2jzVz8lv7f8k+998OFltECP16++++He/CrW737w1bN/8hffTMCbv/7mbn2o/00mfv3vfj+KfuX//Kev0B+Nf/yX/ka9Pxy+23z08T/Tf/qffOevTb/qf+7j/+f/B75frIo004p8AAAAAElFTkSuQmCC;" parent="1" vertex="1">
          <mxGeometry x="538" y="622" width="128" height="128" as="geometry" />
        </mxCell>
        <mxCell id="t4ACVStrc7fiuCfUKFq2-10" value="" style="shape=image;verticalLabelPosition=bottom;labelBackgroundColor=default;verticalAlign=top;aspect=fixed;imageAspect=0;image=data:image/png,iVBORw0KGgoAAAANSUhEUgAAAIAAAACACAAAAADmVT4XAAAvtElEQVR4nAXBWa9tW2IY5NGPMfs5V7fXbk5/qm6Vq3E5LgsMxgIRxXZARDIgLCBCKCCSN3hASIhfgcQLP4I3hCKQFRTJSlDs2E6qXM09955mN2uvZvbN6AffB//ElvsP4Kfq5yH9llz/Vqf+2Zyzb6effP6ND9q+Mvuvf9rm+tXjP89ffvptiabnECXdl+/qh7vfff///h8//sf/xotPP1x3n++OxVF//L1/ll5tdYXrf/Hv/PW7S5r5Y7lg//7pn/zU6SIf0V//gy//128RMu7cR+e1dt9Nf/k78G/dad2uEldYGT9mEdQ6Mk4in7m+6CIjUwGgfiMf8kkEYJPRtQXss9Nqd+ZrOlxSBd4u4xLyDys4tmviTSV3p9Bft6iq9VXLpl3Xi8xZFlrCPCybZNiCdO41DomB9Br+xzw85+y5mNYjP27wDJO+Ug2DdKFLuhonh9Q1m3xWozEb30swEefna9wFpmTZgkStlwyf0zOFHc8+J7DSSHJP650O0gRGAAFDYgOdCwnmrV1mRoQlTQbpE86x+z78w6ATfxIUZPLmQQBogcPGlX0Yhd/pOe1c5jpe6dVkZ858oI2OVjAgPI4mwiOPxyJBFzKbeF63xGdL0ivhIIz8iSdi4GAS2mVDpjFMRnVz5Ipr5IGhrCO85xDdETS0r+JyleHPQnUeUMLzSBmxQ2KWorZJzPg25F2LCMGq7xJ6NaaBPYCbIkEJ1inpG2PBjU9DabFNnOCXBERyzDcGoeAgdL5dumDgwGKJ5+AZqX2c9SaELF/QF5IC9PEcdI85VtgtNqBeK2Za4GM2J0m4N9SL2YbJO5gL26eP4lOKN+HXwUfBzd+MYb3crbs4TCYEFjKRJ1YBkrEn14LQqjYmK1jiHPL4NAcuPQGcuzGJ9Wj6lygwf8VvC2U6HzkRdITolBeCkShRy4JnwXYnG86WFByXQYSYg+gsesYBq6da7OI3vnRvj2dCBAorHvFQXV+5VU+9qbRwPo9J0GN07DRgj/ueul2YOhZE1FBGn8k1SScxkscq7sqeOS6SORgM552uCUExR1nf5W+6tgwGU2jcyVgi/IjQsQDvH3PVjnRJPZKA9Ux7oaN+xK/kMnsrfQQK7mlbVQ4Ah6Ihw/sTHygW51gbi9d+xivfIgp6rlbxRBQ2eprPtXVCU6WrtNeNkp1P0H1Ca4UlYUDjaZs0j0TJuIPt9jhymC4hTqslsxOCINY1ejXCzU5kObsnsl8w07N02Pkm94dzzvPImULl9GrXzYyBwsN/n3nJEYdtnCjmTTlrpEDV0SY1ctOmmDAwap9AbSIGm8LhVmfPN06uJB3j1F2c6K4Dny23bEyXscjvV6v+goNok6BE1hOjY8tt+SwQwk+bfBkdwxbopN80I4m+hn+0bOUYmKU8mb3C7RVorvpqgrdPjaWZcckRx9FzxCKLlMkUDpt6sa+P+KpBM5JIA5BSECTyljBE4LIzbEw6Yz1SqBjIyCMboB8Yi5zTCNNPxTZ08xZHw9ilYzyTG3icVKoYV6lLxXhzScgsdLx83ivmICbPW64ViS00DINjGi/TuAV8Hxq9CLCd9E5LQ+cCSh7PUpc77jvRWIu43YyOzsjQngjNLTuKHMnVJMAJqQj6r6HKGu/X5FeErZWCQ/AXfolMHXmP2BT5q0mHBVnNOoYYkYYo57sINcCs6pvVL1OFAF96GrdTBZiek8WbSHppH3KmzEjCkF5+NHjz+jMAULAxO0dZsrx7unWsrRQb/KrbL5WeLuR1Sw7MFfauQ4panMopjlWJyeIZ1UlTQZOFmfvARqoqvP5I98/fsV8yrGTWpfYYQGGmyN1Jt4pQIPAYq0FFBdGQ3lz65LormgRZxUmSELsM9zrSQEGIjL+djQ9vFfxfv76ciCXMSm4muOGgEdfUDTYaLTZTiEykMWloFGSgjIziTHeiKZrt6JdYXKClmpSnmDjRgw2HyxON0Eyp0cDqKHNWQ+gRwsZyw3H6NBc+kXb1THBS969HcnmP/vKgGa6eVKonkOShzZivv2lUaAiwOjUwDI44i7jbCkQcnKNkY+ARPumJTv3C6ASnB8ICdUwgemwQiWkS5QnekOvxMkW9Q4BLVKcuRnamt45Agg0IaiJXZznBP0WjnAd9uImBeHtL3MiG1M3DYWXcozGwoZRBbILZOj4r0EVYYXJ4lrkntGoz+wKGSaZ4VRDP5gJ0AkDzsWXRQ0VRzt9tuLvJoHDX0U4itei2VBWaVAaS4GW/OISLH8EffmX92FNCqUt0e9O92T9+q9JQyd2DmSKVwHhYnZiZV3F4XHNH26lIg1WSHr+PFkTHuVyQ9nE8JeXEO/LxqqUJI170sewJdqxDglCpCR9yMCRNZemSDknDqJViTJvfRH8/4t1V9TJfO0ymsinkx64M9goVf7O92YlNbEd7WVm28ufxrVdJwCtzPvAowV/RJWIKR7P0SESfIGgWktvbwdjF35W2m826lJFhPpgjwcx+94Bn+HrOO6idLgvzHLfhxA7wHzxFULE6AJZ2K4bD4fvNxUeQFaOa1DWtiVQewM1j2Cq74X4OBp0ytam3LQNxL7Q2QucLo8yO+k06yyPYzdVZohgrqGzcE8HCFOLepwV1QbLJKdRt0Gz4AmeQfSG/+K6LDzolZplzuAnL7WezVhcqHsuArsZFCa5S5lqw8iTGj7ed5KzatGOScSXdwjkgcB0YEy7EZbsKOlrfsmXBtQGx1yxRkRyiy/ocJ+XT9TLEx+BNVqiLuJqyj5ROBt0M9jxqAGM8jXb4dFJpWHoynSXFmF0AckNJ7ZxhEJ5AnzzbtY6SJ7xfnZSIxXWuTbxKQwXDVKazGw3Dx8f6AEx6TXqIkj5NyjjLbErjpvirA3yMlyIfo/56ZSOZ7oIyJHd2SUxszKYXMH1YHd9c5U9PUYb15iJ+dNB8ccBHz4hOPwgDF4hcdRDyfs6BkzdwTF67MJ86iFfWOdbwdEnGZsBJDRhXrLVaWukJBEia/taKec5sR0sn44/beDmz6D159TOI+6088CrzpIG+guNAMjgnFr1W/krNQQ2rfd6idFaTxXt32nIpRH7VPcNfbIkPK6A3hPbtWvNMwcuubVOoSKriUYCWwHzmDgGqxRQWo1J1KR2/GDpEwHicdl/Q0Y9TPkZvhZ/RDG0fRp7OqYhYZgzSfWuwv+L1Us0tIlVIH7/sIxxNgTzSN2J37jAcBQrBBfDgmHxZ3ar4HSKbCWmfk+t3ses0A8zaaVqnMCZUZSRhrQE2RtSWJ/st/MkLbTzxBKuo7ASn5JxAPi9z80NG1Xk3uTZ9mN6szRSZweUTeseQP7fp8SuwrcnPRcjiliE5SFMSWtHom/HHNR6eNumJ4y7xltRW5AbbgI1K5ogATlsiQeyesNoNY/RT+F+2kji50wMfWIKLsRhlROvbo+eJG2+PFPoZbM4F7AFyjXi3buMwf76aCrm+QOa8y+pIS3ziMbAv3t8j9SW72V6+jDhbfWJxVEdfY5/TYBa8ssZGX9YqltAkYGAWj9QkE/w789b587oXIGNz/LQzhleTOzBQLls0BnZhdNgl5ERoONo3K82HTqktRmeRB8/X6mPcwBiffEC3t4zWLY/V9/348bm4DDZii1wfYWDFY5Uui7ZJzIdXhz5W0Ljq+To0m/cw+jdLchGJW6hD0YKYngQBMAHRgZMs1NTdyIvYPZOVmkLy6HboPETJOV5u5wyIieBkcGDBzkBUYeplaYYV/92fg0+dfb7TxIzTsjGRCTB2wpKpTwdDi4nEUUMWTy/VC/gHCOFx1URBsgCg3B12w1p82QxUzG9Av11A8rVlSkDR8qvnb3+kQlUjlbbEbqcE2tMtGu2RVUsi7W51iFfKYQ668ExMvblqF2kw6CnkyccX47Cl84hEMmKD8l/tZNoiJfbw394bTSmqIaPrfmRQb85wTSdqgK7oWrdtEdsHXGyXrwtZ2vmdGp6L3WEzXD9BmiuH49OYTZSLSdwchpfRMKStX58mq7nLEvwQ2WHTBXoS2O8nldpFTluXJY/JMY2dzJCG/+O/Bouv4JBBvAyR3YPyG7MTmRu2zqZnLhvHUA61pVH9EOW3CxyjE9iBm8WD+0bo9cjgiJnr393OTE7EA+k7Uxxy4O6waqUx+WBZ80p9I7YDQ6G/sV1EG245GiPu4Q/JX1Hebj6XWjSrwm4GPW83SuCFEzQpQZZOS5VDZfBgyQ6Nj9dKMKIOt8MMTdjExq3Fhy0oGh7b6vkQxUOq1iacIMdnNdjMyIB4bK9l/Wb2lIJ5i2vMVe7E7PM5O4I/hb8Tq5cP1zWdr0w0BhXiQihtUsO4mre8yb/GDJFXi47aLpPWViv85Sndd2numgEyQmeMBYFyZXk0m7peG7kSn6N5o7xhR5qqop93HQRMYRwkAkRttLfeeCzgx+vo8gH+F6eor8b1bC9vp/bWDbaMVvpec3eNjs4NVwYHtiuCmz+umbRLhqAcAUQb4FogQn+ty7xZdPW9r+GxwOxxXErCxbAU4Lx/yBeD5wSkk6GXnc5r3sPImuFKonRQS8SQIdfkLX1KWhL4Nz9eXNYtGQVtk8CN9IvZoJ/nE4jJconZJ85KWUgcdu6M5heDUT5NB31FlL642YmfSeQ816mpkOk6jJ5h8igYXp3Kxi8gIZlylqDEq656OQQ+EVGeRMvIP0Z22jgb7tsffOmgF6kYR3Zjd9YGHruL0Dsir3PhF1LHF+uJi3h3dfsqXl3vY9cmsx+5S8JsH4MylDafjv7LwjkNjYQ4ZjU/xUVaBolmNxMqOBF4DZ4wdJ6Pw2q7u0b/FToCC+KpRM9JioweYF75eOPRahuxcsPwecRfn5A7CwNyhHhmPg6XqdhmT2du4uGGVsWONW4Vu8s5TXkRBsqZDc4jhekMxirtN8HAAzZp+2lUF3ZKQGKoitFGg4fBxAt8/5LMjMcajZ5GMor8klWvfq2DeRufn+bgqQHgbjQ+nyEuh2jq7HcuL1/+dXSmgGifXF7SRasYuGXZ9ICNgcfkGJaJriZmwfuD2rRtrm1qOnE1XUQ0sguhdORCqCakp6onr6sZSTRi5kqcDC6KBXH3g33lks9lWXXtUjjVriS0Ue+e3jzGZTxEboxr8FCUqgAr2zSUJfK4y+e4RpOGO0Apox5HLbq+tC+mOY1Gwm3sBwfGEBrshJ9LLepIqpX+bXJVx2G0Iu6SLmqLEDQ0MX3ZM/1lQouzNm6uykKGOCjU3B1KjeXKlC2nIMkH/vCj3VO8bHrbZBjg4PsyMjoxBhXayC0xG7AsRTjQci6C95p4ubZY+2Ut2adycQG0LfyTk49wW5wJvD3RqzEDlY7Mwy6b+KnTwhGeEOxivjxkYfPhSkma2mUdE/iBN3l8OyaX8RnHdR7mO2NNbNlhXWilr1onOmg36QcIgjHmpe+lBqnLezJVnQUy8h4h8pzV8A9oF4MF0Ag44zfFkBzF69btnkmFfyaaPZSr53LZS9tFuCHA+gzsXbf2eGxi+OLuARv+kD5KmyiQgbOrMOU+Ro2o04kaxAY4bEeFI8cbmikw2EJqywNnFx9D323R78J/2PXOGRYrMRh6DejibcB7k+jMi8U+EXSi69iulmFMdA1TlXV7sojIGPa4pzdzyzauRWeMu7TR8ZB0hhMeBa6zeXauvkpb8s1GtN/9BVYVYAa0VYe5TGCAuE1nQb7A//mXAwJkIJFdSFSURyjHjFeCoeZ2IPIiXI/gHbBk9p8zhllE+x6mdKJxq/ZiwkY4CnpTKRLx8EjdgkjD7Zb3pPiYnDLAbPdynl+3+ed4mtGuQdZsambQkp0zI/p0Df8QoIVBxcvPlbL7yE0QyijHRXstdbv6nGlFEpw5PvBZfdlGN0vjBMG1NxFGxa6dySOKAV9yTa6GT6aATiO/Ab5JiBlquQkyNhsgv2O0CmikqAmiYUtsTeAP3MeCwz/Ciw22orDDdOtZhwzVm8t+menaETXTcnLDjWRkcKtvIVw7i+NF7j8JhlzmHfehJ3rTtspu532sH4IHNPb5MFyb6YS2pudWxeGd5jEPqOvn1Xjp10h1ha+joBiuiJ8qiUwYEBAItxuJhGQNapcoclQTB3th8qHf3PjpIhAeIpwPev3NnR/QHn9Owki2XSaiXsTA3JdPhb3f4n49pRBpH4uzgVhHOu3o6u3DpxDSlWWsmBEnekJiSublZ+T285jWWdk63OrFLEnac+wWLdyCZ3LZAG3dIDA/MrOlalFhPmP3uMUgW1K9bWAGR0pPybAnS0KmKwFwOcW40ht5V8ePYwwhcIUH65vxmX7eLSNXzYYtnbs9+xEatoHwh6+J68Uy7gxmxKnKoaC4zj6/KdhgoKOqqq3bBoz5iyOr6YP1NHZJI9IUZL+ILFlbe6FstX86PilPNn6miq9CejvKztahi5ebqJd9+ZtQfYrRpAmUeDjfLCFFn8XlZlqRr9AywtO7XIWkXXUVT/rNMVd+MwG0qSlPxinxr9SDTA9Hl5q1VLedTgTQLXCX6nB+cWgqlvIvUXrKUJ+fBWWEpZN9LtVt8u1ngpK80H1xd0gjNEXFaVpYR/YI3342gic1UvC/PzxxFRyROUbCh1QmsYZLcdDvnnMLiidcaQFdJZ/R4vPb+zCyrIJHkPR4XcuJO258fDs94Wqmvss0Ejrd0ol+yL8f3fefF34btXQEO4B6lS1ye1+pFsJZtEUDPQU8Q/9uvvcrkfu0t742+NzzNLYkz25HJ3k0I/8spQqPcjtavDQApwi4RvbTqxdk4yMZtaGqli/bqv4wHV7Tm++9eHXn2rHfLzUMEIr4wbJQ7Acau50TdkyxagaTHcnMZSDuoOA/fIrUOX0qPY24m/Lhlq0eCguvnwrcufhTADi2aX0nfVdcwtOPXYsZHzHIQCboZ9iNlF0tOu2i+YQIKRJSxuQEoietfwCWj3wmYr52jZ0E4Wv/OW59/bf+Ml2QWVlxDsaCBd1H9ViCH6EksIsB5Y8IxVd1Sg4Fm0CBShWXsxuhGcBts8TfKVLr6lPCoLT91O6p4MQiGdurpHr58qsX0M2LPQ3HQ8pQa1v/UTffpGwR0O2qAOyGgP7qQ85epeiZ+YJjmO4J3+r4S/5MEOmYNz29UmBaJdloxi1xYPrenPj6clc3Pcbv7KvO7JR3U5aSrjUYZ/22Db+A4/XzBlnOcGoAdach58ZBUJCAlmUPUPasc7VhDeM2jz0E5r4t7lQ6CBu5DD0eqscMO4fk1qo8zj9rsUbLp6LBzROdVnBjCblyA01kOsxdrDueFVBimb99lZ4fmJlNdpfQKyw4aujjvOy5jz71/vpWOLqKA0PgNG6zmOd3G3y4T57l0pF878+gdmacpv8H/jH2x0zhkSXDygiqr/LJTeoW+qhjPtYT0DfnXqX9zKJCXF3WU2gsnnhikPqOXk6m0+x2eY9OQo/QRZSTVfMX29llhFSWLY2Zsq4UAylJ7MFleeZDeRShKRCeIU++TSh5+9EQwvQK1gUBJhLRU0Eh6pK9uTlLtMxM/ZquO+nWodSjZtO4Kp49ng88KRsGt71erywO7bybn5kHLUq12iKqFDIPa3RpV8klPrz2QOn7OKV9dmESx8/vQkPXAR1Aeov+t+4M6uPipyrSwPBZ4/pv+gsz7TgYNlJkweq2ztk7iJbTg0outj9MJHIlIwb4/uupyppXr4cKPU9HThfUAYJst97DyfJQJ0BkhagWJJi0T19rHEVdR5sMz15JMmy2ZkR/m5YZg7mel9lId8k708NDMphzrIWFXxIWh0/EvR7zArLVXI/Xm1UYzylIu7x2Utnub8hnm9R68EUr1qe3pOnxqhlTYWO8zPQ4KhZmPg+QxJtf+wswJSlXnZhVcjQTwEf472UepHW3Xnv0kOICpmf+IaGCiYov0/nyYqaVnkMhx/f4l+tydhj0ylgd75YxZbAZUZwnGM61CEMV0gvHUX6JTvnEuQ36nEIo4KBgBHXN96ETPVnmQnIAgMYG6KImXja7A3iDltARFUJX5CBDywpX6IEAntSrEvWU9ezOTS9F1mJnaXLuXsWDzqNLSKg/xUsZTiXJGzANxA5oQE9k9gj6qOGomKPc0QRm/18eFgVsCphELCTzkk2Z2es9Udlbiftnym+TaSySKeUtMleIaspB6dZPDOitumSxf1hl6OJWAx8mJZjJW+9TT0lT2hdqeouuf56kUOcWDQDMUWyB4V9KD6YN8YBPxF1Hj8v6Me41yUTrmyBs6GELvw//pwM6PqZmNaRFbi4gd1RZKhLijairXiKehqunHiGC/Gu0LCJ0sqZya8ervbRQpcmDtBHz1ZmGxiUEHFI4RiDDTawvFOzS0E9vLvnq5Bsql3EHOgtB3nDRmG5d3r/MyL3p8N0QCNkTMpBhTcfL955gpFMNUTORS+wAaqGzZIXwfS0Y9Xj3JeNa+I/X2I22FtyxxT0+3nJxmVJYDNwvdyaBOJ4t/PwbOsNy28ok2AZX7PZrR6asOV95Hm7Cvaj/Nfx7LcwuV6vOLBsxW7qf2n2nEI3FKNCEnikY39g2QeK2mucumQYT3IDed6dVLXI6rOaK98XTV/JhrPgHCyiXhCGw7mjuQxjrlSX0bLMiQV9y95SGQfDPFHI6MHJImlt8+gn8H+w9XRYBaBwR/gltxRiZ+HzJkc6Jt+jSFdsQ9VUON7hGY9UujfEh06qjnLy6JKCOgi1Q0kzZgIwhrt57DKJoItwJ0T9TIC1YpdHDDp/Bw9tL50IYC5t0nPd4MvEM/zB37XJtF6TC9kVP8XTro/NpiHykYtgWWhb9tt9Qm9VmFc2Za9sMjNN6wBKc3mbRMWAF+X7Gk2PLM4oGle0qEEb0ZZ1hca4WOPlg/fbEv1xPyLNwRD4CYkHukg2pyi9kEwaw/rBbMLmKPrs1wWAP77PyCSHK5XpQr/hkjEyUvBnD3A5wPcaiy7ObYZmZuapBOm7a2C3QToYJYdIESLdErM4LUl6gNJMjbHv5En/DPqbrtPVvvl3gDfPelT7hAJTw96IF8uJepE/f64N+k9crLXo6tes2hDetvQnHcEarK93ZFWO98/MOyRkO1ffO+lM15InJvohX7XjybMkyPQc0BfmuLQ322aISfJl9/mruRPTUKAjiskmyI5MIzXSKPXGggX8ErE2ChP0ttpwLgULZokOfAX+5zl2yuT8R7AANSzxmOyK1OAxvXvxFiArC7xsnfuNxFUR49orMboMqreUUoMMCw705zlsynvOcmYEHQBbHmIOgMVDygdnQM0Ti/4SgrIs7IM3LkWAwr9Y41EgVzitjJ0THrGgVta9/zqPRchU741LgHl7icxQ/p1cHeEYHqrFHqiudFl3zW2dEaO8tE0982IBIvWgjeBoE04gjO6T9UMF55+0Il6uaRNH/DjffXYfFETCXCAT9Prv+dgO/ZMvyDWRplL+o6X2W6H4mkiRoNaFsOspVhopcdUrFWC6fU+8xAtiz2NyDtOp29q3afr2WinwG+UARwXYowoHpyi0smbQKgeg1PUpPWfsWkPf7ccoXIV/Bvl5voDyNDNPGT3edC94e9oG5r76AWmQo8ADxR0oY0xCsNDyLtn650aHhYkSxlLbf0vLbeE7/yr3Ln9XqU2kG1iMcd+F4U/aNr7yfcYtD7FMVp1T5sN++QPyookmc1NJMhMMGmK2ZyMl6m6NE1ZmXd19JfUmTVirpiqfCTtGkmf7lB/+KydRzUbzMe8ots6O4IB8W3fIbKOn0S2AXYDxFLo/iB9AXHleU5tlo58UsXy/jcgD484FQTgyYNqVfri6uEcPC3ezziTUJj/qXSFGXf/DV4LeAQtzvW82mXOUnD5ZviAfwNv2I6W8eqYStlxXvgYVjuoS2qqh8wClA4NqPi6iy2uYmHcd7AvIlq+lQ0ZwM/eYb9G8tAXAGD0PpKUjAsR7ZCimqgI7Veql1++t/GQXUKNcjCyxEJY5l3tsTkahpmP6/7yvaqWs925vkCiIECqlP0zmLwQCLJIut6mbaTacJUG3MQl7oovEooi9mf6I86r+Qfz5UOhi5zl2HMhlbVmnUF5qDq3ixM9DSTcqQH56NAOtBwPxjMbMT7dN6M4Jtor37NCX5w/5JdSPd3PJLepzKX24SskVqmc5FoSypORNN3mTxyAnhyfY0LsONZCuJRvIC/gcXvfII8fy0bk3BHWNIKuQQeZHUYTjQF4EtQ9llxrGV3LW9vxnos9k4YyaUwiYG91c7aJPwS5LSUInwpZS6HHbFs1+mEKAIo583OMfD/e009jmxMEzw5iGScUA6JAX88RpTP8XAoGTYhNLA4he3wwxvxRAXHX4wgmIm9aY8ALyiL+Z6IY7PcyD1Fh2xI9QRede7R8QTlXDDGiHnWwgTE/sPd6cln70BBpWqS7PReBefMudQCNSDNj7vNiRBb0GYRkzH1Ln3HJL16vyig+s9Piba7JK1VhfWoW1ickkH3n/CuQEP5P0Py2syl3dF17t2TQrw8uol6Wx3CxID0KXv5jzQXbMubJklpIise8FkPiLDkEwdSrFDPZ9LQn4h4X8EXEdx5JFb03IUVe1lyLpNpx1jleqbYuSpn6ZN/doPYPnOuSJP2uf8eW3D9Xi68qZ5NWbym10+fgmm2CoNRgGmFcUBsKXeRu1MuVUIDKF4Io7OXle9NRvDaJB2Ejfwv/kIuSw+R/K7OoNRkHHLrsab/ryaAiSqxQal8NqMcygsukSzFjHX9ee0wrnw16SNB/Q51nnkQILOfVbLHPnEBwaWFJkRYfbMBNQusrLeOhC08p46iAxbUsWHRH5C0y70plvj9FnrUp0+/7o5+GII1BVcLn2EQsQyXOsNPlsZ5RL3oVvMbSnU+q48f3OWzt3hH+yfgHbf1uprSJYsCa1EI28vsZPTMDqa+/MxZpUlfe0D04w4BQ02Z77t6z+G//U3u37KiG+305ti8B9p4fH3zrRf9UuOH9kCK3pdR+jrHKVWHYsmo57ihUBBp4zU1IIyHn3a1V1k72rvpmyoTFAkCnTdsunqCeUSPicT7bbGTUgWdYY6V8LuptUeuXREYq39psfGzmsbw/JdamPwyX0hfUgJ2pHEWP03jTyS47GNEF0qvYwD2eMY9uV89pkfxyXgRatqxo+za3cGNcQbOzH0nCXx46v1tI0tqciLMI4xxpc1si8FsttnSjOaLgn8Y4emdEqWqhPlNlvMLJzVSrkVw4FWcmyKBQIAIPF2kgb4Ag3vWsr3n32P9DakTZFN9apTKh/jWcJ04qMorAYoSvz63giD8DIKzi7zTFp8rUxixlInzXJ9iTWxJcGL5XVVv4wsyuVTAq1mPkoWiZ+rIbM3KFw8LJoMLgTbgEDSJ1cKKq3TPgg/ZiC9ngk5nyoRk35ZnVtNg1euKwhdrhAY6ph4uZY7dfdPbk0VuRjJhGxqyEktHZb0EUWIONGSw733l2cnmwcBwzjOaEk68+R7famiGOaMGSL4KtuyTW5H8iwTNQEAzNi5X43WatIs1gdkVg1QSLaKzEju7k9C8Huj3sw7fXP6iuciMEwFe68QW6Y8AZTwCn61xpFZLygImLVTelXvn6swkmkvu2LJhbm/qkFpkJoxhTQ7VTa0GZaY09U3BPXbqc9jwB8cMVBQTJm/TBx5NGZE2NSgDsXdds6/xz6EDyj7832ouNSlX4ZUu5mCWd3Af/TrroBovFLCJWLublA0NFSV10MycxMqp6Rvd2M6SLnvxyIyUe0WeZcDB62yiZ+Gqq2ic/XIURvhqEJJ9xzwRgcb1ZH8waKOgdGMDjC14gNYguSZhR9eRYfsmIcJND9EObiBPopGjbhpW7qUg1r3MZ9JrU7h8K/OWYQ4e+F89CoUG9xmrRJLOn8GOIOATsxUceGa8cuGNaBA2+TllL2/rpCLmch99WTRuzdXPuulfnbPuQZfqiJOku/zLyllbNlEd/8n/O8OnWJ2PVG10VZh+D6+QGRX0T3hNj8zGmPtJrtDYA6LjrW8s7+Kkilbx4fKPs6lMdbHlIxCQrqsuMuSrf487ecnQD0+Z/uZ+sttdO8Yny/ti9pFjE2xPd4YMHisZsDRLFJsNjCm4uDjRKwMSJJEnB59NKkmMHvUBnMKR7dxauVHK3/x3bvg1SOiqm2wWujmlscun0DbXU025h3mJBniGwolz+3BDl1KlnU+TVxsFRf9TNMlvB4efRkTRHYr+N+ezUibN3U1rM44f9yNt0uCoUMIiWe4txUm+MNVS7yfo35lBhrN6WePg4CF7tiUc+9JoMtACozdQhh65WpNlnxGTWBdEfUHUJRr0vQSxkOkF3zZeDQvLHKjoxgbD393bUm/6ldjMuF80MsmIi7qsgiBWA3oer75Ei85Gs4+drE7FT6Jn3tcCO2iewwjK/q3T2sjURL78cuuJzQ/8xSDSdZX6T0ietWLZXUlwf3Ig6yC7JIIwHCJ4OznbIKtIGLWKRzQ0J3g64MuQYWmXEdQ28CWgbQ9goxrMO6WWmggnkIq+GqJvame1xooNKwkfIpsFuGGsC4KVnMZtNDm9mKlp1tYkptx8HMWsBFkmaPdxaZ96gKm3Ig5sajE1zZhudltr47xGq+axwDLeE0W+LVqhw/+i33CfDSTy8JoDIhyZi+Fnvh465mMXaNlwmptv62ZSa20y1J7mLiRz5s+Tt4wjsYWpM7OlrL4OUMYpdEQxxwm4zNjIUmRhqe4maS2prtRAR9HQJY20+zObtgq5N/M8IUlLAcZvOKeJRFACzmMfQe+CRGfkhekM2O5n4o6YCPndjknlekMl2xZA+beiNmLLSaljsags8lH58m75gH7Xr6JNYQpqTlrS5AMApmDEJe5ctJez64hZTSkTu/vCpafGemD0SE3+PpJqKSrU4L8GWcGx8tu2g2x4CvgwK0Ok6NmXSdmrVu71fYvFar411CnrkweFEqKNqxaSmEvYiAHn2U5/PtWAkkUAjJOrBLUYItu1MAkDlupJKfVzQGEAcv+TZ+683eeaz7Ym2N2TJYktfGcAGDoOeMUKTrBqTyVTBnATLBqyZnzqoo+cyc0LpCeoUvHwacTJNGMB8KbOcC/KzM6YeqUK7zFAeaufgM85d+uHISDOLIk80G7KOMKOJKhYZbfvpEDSsdsXI1xn5W+p3HLmeENgHqP0EB7Mq/1Mm6sijQYIot5CzIQTXMBlOcmGYNvPablZeIOXb+BT/MMFbRuRPjmRbS6HshFJ695DCB0V7PDwELqx9MF63Q8SynReYIb5A7hFBmqhykyLfamjKKE5n3LkgvEG+3TPUGFjyANcclDIbn2XC4KS/RokxEnGoyLO71Dv4GWNUl1BuMWWOnyFzTft9YfpG3DWETjTj0dOlsUEMZt6duwYH0V5fMQFylnFxEdAzp3cSIVbclkBwQvlxiqxWl0mqfRWlWWwnpoYj4w7IFhfCzVQ0LrbRzv8vUI/5c/y4NCaMiZ9d0VvTms46+RX6t6g8NoCtBxmSQ931rmwiCmFj5tAJKSw4CydmMJMXhR+3mumgrE6hxjC0VNjS7QxCJ2KGM5x8O8xNOtDh6ZccqVXdvZFJoF8niF4d958dknGDvTZ2t3DLRK66sz0aijDEOImApT6iKXrAWsSafLXrkBu7HyqQyEsCeak6nUc1rISOJZBWvX/jnSpWLGYl0wzF0XXficl81kEmOTAQXX7bQmrUvtziPWbzLS14oX0XzKROLl7Wg0VmvuBhxbA0DKtbplxoLX2iaX4YhKpqqE9CFOmCg8GtigEqfE4rVe41U0kzWmA3BjiMWAeBPtRBJW+CJWN6C46KELYWUlRWKvxfBDJKte9CWNnjUJiTQYyJ8tsASEYcLglKYYOOmnM1t8N67ZOCAmHd2bacZX3G3w7Q3Kpsi5arjgKt0uVOLKhegaJrOFFrLoND59MGV6HHg/BcZWn2CmBMFFdEnqpHZ/Cv+uj8FzPlQO+/w5wpB4m8H8mXJPBsYMXbetTdB6kqoohJ/uEbi+Txy6IMqy6llM+65o5oQoAFZp0yVETT7RXunIn19ul0SZBidT6KhNJGDNO7lsP+UjpyZ2F7iI7DX8ccGigfMlbsvEz4vhcUBMqsCdKewUrQCtkeP5AUbWvY7tZUzZGBe+fi4j0Nyc4Up/rtC8Rr/4bjE2jOn+RvlTLAKYHJa71X1Uc34ZYpkKf9fjCbxv0TcrLk23vH6iCbmFv09FB0IGPItGN16N9lYxmR+Iib2fCxFj5mZEwzLu4MIZqdHkmZi4LTZMw/voOfcTxditppxd5AxCVaPA2DIJEWygp/WMXzUTNs776DZIzQj+BMPq27LfnEKcyxy++V4fYWaDufUD6/gMCkDYAWTz9cJcW4UuzYfSUJA7qeN2xl70PKZUFqFPmw05e+QHolV05+cmkxgQ7wMIWGsIAjVJbwVUGUABLjRBdSWa8guVIQVtbnBv4zv0txcy2TYM7jhkEofIO258VQ6lcc0SzwtY48Iw6meW5x6iLDJsSlZASuzmfOydGReRr2Lgj4eskcADxOC8QJkYC6Q9ZVElvBFTIFg/PXG8uJ+DfxnNiKWqRyEdPsD/dLLAo4BxCGROFLWJRHzJ9IJjbMcXHaMhXqKODlXYeeg1P2fWk0tmHQnOTjZHUKNLyeKpB3FYAh1zFQBG50wiGOvpTjIwljNi9+/Gubj5mb27p0scPSfsy5vFxDn8g2Yb2EVgqwvL2ijuBRCXLKDLy7gJ096reJheGtJMJWeIz4BBhz+eX3lskHtZE9qQIJBqeRgqw4GFEDGZLvQgFHZQ0pz0TNFE+kgfrnAkTlftIcr1OVLUJxNmW/gfWpycPB9ejrgTJpmF4Sb1sLOrqEXQzRmRRYQ98nqCOztUpDqPA4bjpsax4VNAgrBm2TWp6qt0AYaQVhQzHa3HiEAXoYm0vL/p0ykVwQY8y9j3JMikON+ZzlbovTIBUJaH5sJ4riEhIAJoeikULV5TKShByaxs6DrqXLuc/HmYcQETB2OnA6EGTSNKTAR1IS7Hzga5jyYRZu2gx6E0gZwKsjGY4JmMS9+FG9QmhSnAMZ0l3glSrfXoc0Oa2FzejChylloEwYESPdoI6EiWtrwIEOV26uWeLaWzUEq0WO9Rm0t2zrwUF4Kh7N06kWqxq7iPs+Xyes6hzh76VM/llPRTdYlUNvF64chhtRT3AibPmry3/zSK8DF3++O1ZKMz+LKWQpUuGLY76lA7g0wGW6iTfX4MeE0Cfurm/bjHzrFFJhMFbiDJDLliAdpJrJ0ez5ZeBTvn4FxB4XNKh2yZyRPV8q03Gowggr6g6hwc+vBnUWKXchaPqVgWHDvLAn4mQSd90ru5xmVGN9ryCC/HP/fw8jQatSY7daVMyOHo57LUoKNWEA+ZH2Yf/XK6LFFJlwl3F4sXL+3UaNCBBNNivzeziiORSkpGBrLVgsrITWjw2yGp+9V1THhMkkuBXNFF8MyjyDR1MvkRLtoybAYfmsZ+i+x6oFOgsWOOdyIU0ah5LpKsKiL55ohQbElc6ZzKBRJgIM9dFUGCj7VuGAJy5C/KngMiZ4zQm71Cq7mGPeHLuR1N0P46kKifkeQWJDDa4RzEI0VCloVGBocph/6ATantXDDrGQhe7+KmMb771MVEFzGZuxg9QW+oi/I9FrolY++RKFIiZBmmDF8uOMckY7+JeNsltMdpoCuU2nVSovWxkWgamJJqBGOGDt2vxk5oqphquj76NKBhBKgHczUarR0abSDHi8rAbo1jOPeNbUa5NZf30YOpc62R0/M1jsp58qQ3SS5BhefVJjE16g2Gfxz1XsfEIs10/YPhWV/3MJNXakxC6E3s42NOZVTHgZBF3g0xDFDDhgjgsoVeuKHJw8Ywf+QwW9X5Ke2SEGCbAiWCkFw6EsfzwiwY4oDZjElTgC6BHOuxMOJz1cH/TLTAIjyBAJNSHeDVTEdM6Ehz9FBRKLuYn3bOAjFgz7wlmU2+EFT4FjGnuVXCkmTIR0CmJBr4FIoaR8pBfwP7xBvXvJoO2L/8GOMIPGWeRFi6oaxztXehVpx5tFlvRz8RhG18/hAMqD1IsqNGq+cBKTMEKuoMdqbvikXPUZ5O7mFKFzDscDlzPmqH+bBc5jJ5UcUVi+KGOrnIkKND4wwY00e3r/ITRXOe7SayzIPn0G7SpgeXZXUVUvT7rdz5l5ufrP7Rb5cvkt/Pkz/B8BT7nx7gX+y+V1Xwh//6os+/OWe/F+N31e0r8PJflN//Bvy9/Nsf7m/3RITL5uruaoA/JeH8V1/Sf/qz70T+2x99OWSn7g8h/N0/+oqG3/nrPyvQX13++vs/GbvplD/cvPvz4V/9529+svyG/v6LX/3/PpsCv/wnoJ8AAAAASUVORK5CYII=;" parent="1" vertex="1">
          <mxGeometry x="398" y="622" width="128" height="128" as="geometry" />
        </mxCell>
        <mxCell id="t4ACVStrc7fiuCfUKFq2-11" value="&lt;font style=&quot;font-size: 20px;&quot;&gt;`x_T`&lt;/font&gt;" style="ellipse;whiteSpace=wrap;html=1;aspect=fixed;strokeWidth=2;fillColor=#f5f5f5;fontColor=#333333;strokeColor=#666666;" parent="1" vertex="1">
          <mxGeometry x="712" y="540" width="60" height="60" as="geometry" />
        </mxCell>
        <mxCell id="t4ACVStrc7fiuCfUKFq2-12" value="&lt;font style=&quot;font-size: 20px;&quot;&gt;`x_0`&lt;/font&gt;" style="ellipse;whiteSpace=wrap;html=1;aspect=fixed;strokeWidth=2;fillColor=#f5f5f5;fontColor=#333333;strokeColor=#666666;" parent="1" vertex="1">
          <mxGeometry x="-504" y="540" width="60" height="60" as="geometry" />
        </mxCell>
        <mxCell id="t4ACVStrc7fiuCfUKFq2-13" value="&lt;font style=&quot;font-size: 20px;&quot;&gt;`x_{t-1}`&lt;/font&gt;" style="ellipse;whiteSpace=wrap;html=1;aspect=fixed;strokeWidth=2;fillColor=#f5f5f5;fontColor=#333333;strokeColor=#666666;" parent="1" vertex="1">
          <mxGeometry x="-224" y="540" width="60" height="60" as="geometry" />
        </mxCell>
        <mxCell id="t4ACVStrc7fiuCfUKFq2-14" value="&lt;font style=&quot;font-size: 20px;&quot;&gt;`x_t`&lt;/font&gt;" style="ellipse;whiteSpace=wrap;html=1;aspect=fixed;strokeWidth=2;fillColor=#f5f5f5;fontColor=#333333;strokeColor=#666666;" parent="1" vertex="1">
          <mxGeometry x="432" y="540" width="60" height="60" as="geometry" />
        </mxCell>
        <mxCell id="t4ACVStrc7fiuCfUKFq2-20" value="" style="ellipse;whiteSpace=wrap;html=1;aspect=fixed;fillColor=#dae8fc;strokeColor=#6c8ebf;" parent="1" vertex="1">
          <mxGeometry x="-354" y="557" width="6" height="6" as="geometry" />
        </mxCell>
        <mxCell id="t4ACVStrc7fiuCfUKFq2-21" value="" style="ellipse;whiteSpace=wrap;html=1;aspect=fixed;fillColor=#dae8fc;strokeColor=#6c8ebf;" parent="1" vertex="1">
          <mxGeometry x="-337" y="557" width="6" height="6" as="geometry" />
        </mxCell>
        <mxCell id="t4ACVStrc7fiuCfUKFq2-22" value="" style="ellipse;whiteSpace=wrap;html=1;aspect=fixed;fillColor=#dae8fc;strokeColor=#6c8ebf;" parent="1" vertex="1">
          <mxGeometry x="-320" y="557" width="6" height="6" as="geometry" />
        </mxCell>
        <mxCell id="t4ACVStrc7fiuCfUKFq2-26" value="" style="endArrow=blockThin;html=1;rounded=0;strokeWidth=2;startArrow=none;startFill=0;fontSize=20;endFill=1;fillColor=#dae8fc;strokeColor=#6c8ebf;" parent="1" edge="1">
          <mxGeometry width="50" height="50" relative="1" as="geometry">
            <mxPoint x="-438" y="559.23" as="sourcePoint" />
            <mxPoint x="-368" y="560" as="targetPoint" />
          </mxGeometry>
        </mxCell>
        <mxCell id="t4ACVStrc7fiuCfUKFq2-27" value="" style="endArrow=blockThin;html=1;rounded=0;strokeWidth=2;startArrow=none;startFill=0;fontSize=20;endFill=1;fillColor=#dae8fc;strokeColor=#6c8ebf;" parent="1" edge="1">
          <mxGeometry width="50" height="50" relative="1" as="geometry">
            <mxPoint x="-300" y="559.62" as="sourcePoint" />
            <mxPoint x="-230" y="560.39" as="targetPoint" />
          </mxGeometry>
        </mxCell>
        <mxCell id="t4ACVStrc7fiuCfUKFq2-28" value="" style="ellipse;whiteSpace=wrap;html=1;aspect=fixed;fillColor=#dae8fc;strokeColor=#6c8ebf;" parent="1" vertex="1">
          <mxGeometry x="583" y="557" width="6" height="6" as="geometry" />
        </mxCell>
        <mxCell id="t4ACVStrc7fiuCfUKFq2-29" value="" style="ellipse;whiteSpace=wrap;html=1;aspect=fixed;fillColor=#dae8fc;strokeColor=#6c8ebf;" parent="1" vertex="1">
          <mxGeometry x="600" y="557" width="6" height="6" as="geometry" />
        </mxCell>
        <mxCell id="t4ACVStrc7fiuCfUKFq2-30" value="" style="ellipse;whiteSpace=wrap;html=1;aspect=fixed;fillColor=#dae8fc;strokeColor=#6c8ebf;" parent="1" vertex="1">
          <mxGeometry x="617" y="557" width="6" height="6" as="geometry" />
        </mxCell>
        <mxCell id="t4ACVStrc7fiuCfUKFq2-31" value="" style="endArrow=blockThin;html=1;rounded=0;strokeWidth=2;startArrow=none;startFill=0;fontSize=20;endFill=1;fillColor=#dae8fc;strokeColor=#6c8ebf;" parent="1" edge="1">
          <mxGeometry width="50" height="50" relative="1" as="geometry">
            <mxPoint x="499" y="559.23" as="sourcePoint" />
            <mxPoint x="569" y="560" as="targetPoint" />
          </mxGeometry>
        </mxCell>
        <mxCell id="t4ACVStrc7fiuCfUKFq2-32" value="" style="endArrow=blockThin;html=1;rounded=0;strokeWidth=2;startArrow=none;startFill=0;fontSize=20;endFill=1;fillColor=#dae8fc;strokeColor=#6c8ebf;" parent="1" edge="1">
          <mxGeometry width="50" height="50" relative="1" as="geometry">
            <mxPoint x="637" y="559.62" as="sourcePoint" />
            <mxPoint x="707" y="560.39" as="targetPoint" />
          </mxGeometry>
        </mxCell>
        <mxCell id="huw-fAoAILaJOdz1j0V9-23" style="edgeStyle=orthogonalEdgeStyle;rounded=0;orthogonalLoop=1;jettySize=auto;html=1;exitX=0.5;exitY=1;exitDx=0;exitDy=0;entryX=0.5;entryY=0;entryDx=0;entryDy=0;endArrow=none;endFill=0;fillColor=#ffe6cc;strokeColor=#d79b00;strokeWidth=2;" edge="1" parent="1" source="t4ACVStrc7fiuCfUKFq2-35" target="t4ACVStrc7fiuCfUKFq2-66">
          <mxGeometry relative="1" as="geometry" />
        </mxCell>
        <mxCell id="t4ACVStrc7fiuCfUKFq2-35" value="&lt;font style=&quot;font-size: 20px;&quot;&gt;`p(x_{t-1} | x_t)`&lt;/font&gt;" style="rounded=1;whiteSpace=wrap;html=1;strokeWidth=2;fillColor=#ffe6cc;strokeColor=#d79b00;arcSize=50;" parent="1" vertex="1">
          <mxGeometry x="44" y="600" width="160" height="40" as="geometry" />
        </mxCell>
        <mxCell id="t4ACVStrc7fiuCfUKFq2-50" value="" style="endArrow=blockThin;html=1;rounded=0;strokeWidth=2;startArrow=none;startFill=0;fontSize=20;endFill=1;fillColor=#dae8fc;strokeColor=#6c8ebf;" parent="1" edge="1">
          <mxGeometry width="50" height="50" relative="1" as="geometry">
            <mxPoint x="-160" y="561" as="sourcePoint" />
            <mxPoint x="420" y="561" as="targetPoint" />
          </mxGeometry>
        </mxCell>
        <mxCell id="huw-fAoAILaJOdz1j0V9-24" style="edgeStyle=orthogonalEdgeStyle;rounded=0;orthogonalLoop=1;jettySize=auto;html=1;exitX=0.5;exitY=0;exitDx=0;exitDy=0;entryX=0.5;entryY=1;entryDx=0;entryDy=0;endArrow=none;endFill=0;fillColor=#dae8fc;strokeColor=#6c8ebf;strokeWidth=2;" edge="1" parent="1" source="t4ACVStrc7fiuCfUKFq2-53" target="xl2lfIINvYw0Gv0UvHsg-11">
          <mxGeometry relative="1" as="geometry" />
        </mxCell>
        <mxCell id="t4ACVStrc7fiuCfUKFq2-53" value="&lt;font style=&quot;font-size: 20px;&quot;&gt;`q(x_t | x_{t-1})`&lt;/font&gt;" style="rounded=1;whiteSpace=wrap;html=1;strokeWidth=2;fillColor=#dae8fc;strokeColor=#6c8ebf;arcSize=50;" parent="1" vertex="1">
          <mxGeometry x="50.01" y="505" width="160" height="40" as="geometry" />
        </mxCell>
        <mxCell id="t4ACVStrc7fiuCfUKFq2-55" value="" style="ellipse;whiteSpace=wrap;html=1;aspect=fixed;fillColor=#ffe6cc;strokeColor=#d79b00;" parent="1" vertex="1">
          <mxGeometry x="-353.5" y="580" width="6" height="6" as="geometry" />
        </mxCell>
        <mxCell id="t4ACVStrc7fiuCfUKFq2-56" value="" style="ellipse;whiteSpace=wrap;html=1;aspect=fixed;fillColor=#ffe6cc;strokeColor=#d79b00;" parent="1" vertex="1">
          <mxGeometry x="-336.5" y="580" width="6" height="6" as="geometry" />
        </mxCell>
        <mxCell id="t4ACVStrc7fiuCfUKFq2-57" value="" style="ellipse;whiteSpace=wrap;html=1;aspect=fixed;fillColor=#ffe6cc;strokeColor=#d79b00;" parent="1" vertex="1">
          <mxGeometry x="-319.5" y="580" width="6" height="6" as="geometry" />
        </mxCell>
        <mxCell id="t4ACVStrc7fiuCfUKFq2-58" value="" style="endArrow=none;html=1;rounded=0;strokeWidth=2;startArrow=blockThin;startFill=1;fontSize=20;endFill=0;fillColor=#ffe6cc;strokeColor=#d79b00;" parent="1" edge="1">
          <mxGeometry width="50" height="50" relative="1" as="geometry">
            <mxPoint x="-437.5" y="582.23" as="sourcePoint" />
            <mxPoint x="-367.5" y="583" as="targetPoint" />
          </mxGeometry>
        </mxCell>
        <mxCell id="t4ACVStrc7fiuCfUKFq2-59" value="" style="endArrow=none;html=1;rounded=0;strokeWidth=2;startArrow=blockThin;startFill=1;fontSize=20;endFill=0;fillColor=#ffe6cc;strokeColor=#d79b00;" parent="1" edge="1">
          <mxGeometry width="50" height="50" relative="1" as="geometry">
            <mxPoint x="-299.5" y="582.62" as="sourcePoint" />
            <mxPoint x="-229.5" y="583.39" as="targetPoint" />
          </mxGeometry>
        </mxCell>
        <mxCell id="t4ACVStrc7fiuCfUKFq2-60" value="" style="ellipse;whiteSpace=wrap;html=1;aspect=fixed;fillColor=#ffe6cc;strokeColor=#d79b00;" parent="1" vertex="1">
          <mxGeometry x="583.5" y="580" width="6" height="6" as="geometry" />
        </mxCell>
        <mxCell id="t4ACVStrc7fiuCfUKFq2-61" value="" style="ellipse;whiteSpace=wrap;html=1;aspect=fixed;fillColor=#ffe6cc;strokeColor=#d79b00;" parent="1" vertex="1">
          <mxGeometry x="600.5" y="580" width="6" height="6" as="geometry" />
        </mxCell>
        <mxCell id="t4ACVStrc7fiuCfUKFq2-62" value="" style="ellipse;whiteSpace=wrap;html=1;aspect=fixed;fillColor=#ffe6cc;strokeColor=#d79b00;" parent="1" vertex="1">
          <mxGeometry x="617.5" y="580" width="6" height="6" as="geometry" />
        </mxCell>
        <mxCell id="t4ACVStrc7fiuCfUKFq2-63" value="" style="endArrow=none;html=1;rounded=0;strokeWidth=2;startArrow=blockThin;startFill=1;fontSize=20;endFill=0;fillColor=#ffe6cc;strokeColor=#d79b00;" parent="1" edge="1">
          <mxGeometry width="50" height="50" relative="1" as="geometry">
            <mxPoint x="499.5" y="582.23" as="sourcePoint" />
            <mxPoint x="569.5" y="583" as="targetPoint" />
          </mxGeometry>
        </mxCell>
        <mxCell id="t4ACVStrc7fiuCfUKFq2-64" value="" style="endArrow=none;html=1;rounded=0;strokeWidth=2;startArrow=blockThin;startFill=1;fontSize=20;endFill=0;fillColor=#ffe6cc;strokeColor=#d79b00;" parent="1" edge="1">
          <mxGeometry width="50" height="50" relative="1" as="geometry">
            <mxPoint x="637.5" y="582.62" as="sourcePoint" />
            <mxPoint x="707.5" y="583.39" as="targetPoint" />
          </mxGeometry>
        </mxCell>
        <mxCell id="t4ACVStrc7fiuCfUKFq2-65" value="" style="endArrow=none;html=1;rounded=0;strokeWidth=2;startArrow=blockThin;startFill=1;fontSize=20;endFill=0;fillColor=#ffe6cc;strokeColor=#d79b00;" parent="1" edge="1">
          <mxGeometry width="50" height="50" relative="1" as="geometry">
            <mxPoint x="-160" y="584" as="sourcePoint" />
            <mxPoint x="420" y="584" as="targetPoint" />
          </mxGeometry>
        </mxCell>
        <mxCell id="huw-fAoAILaJOdz1j0V9-28" style="edgeStyle=orthogonalEdgeStyle;rounded=0;orthogonalLoop=1;jettySize=auto;html=1;exitX=0.5;exitY=1;exitDx=0;exitDy=0;entryX=0.5;entryY=0;entryDx=0;entryDy=0;endArrow=blockThin;endFill=1;strokeWidth=2;fillColor=#ffe6cc;strokeColor=#d79b00;" edge="1" parent="1" source="t4ACVStrc7fiuCfUKFq2-66" target="huw-fAoAILaJOdz1j0V9-27">
          <mxGeometry relative="1" as="geometry" />
        </mxCell>
        <mxCell id="t4ACVStrc7fiuCfUKFq2-66" value="&lt;span style=&quot;font-size: 16px;&quot;&gt;&lt;font face=&quot;Helvetica&quot;&gt;Reverse diffusion process&lt;/font&gt;&lt;/span&gt;" style="text;html=1;align=center;verticalAlign=middle;whiteSpace=wrap;rounded=1;fontSize=20;fontFamily=Verdana;fontStyle=1;fillColor=#ffe6cc;strokeColor=#d79b00;dashed=1;strokeWidth=1;" parent="1" vertex="1">
          <mxGeometry x="-15.999999999999998" y="660" width="280" height="60" as="geometry" />
        </mxCell>
        <mxCell id="huw-fAoAILaJOdz1j0V9-2" value="" style="shape=trapezoid;perimeter=trapezoidPerimeter;whiteSpace=wrap;html=1;fixedSize=1;rotation=90;fillColor=#fff2cc;strokeColor=#d6b656;" vertex="1" parent="1">
          <mxGeometry x="32.37" y="845" width="120" height="60" as="geometry" />
        </mxCell>
        <mxCell id="huw-fAoAILaJOdz1j0V9-3" value="" style="shape=trapezoid;perimeter=trapezoidPerimeter;whiteSpace=wrap;html=1;fixedSize=1;rotation=-90;fillColor=#fff2cc;strokeColor=#d6b656;" vertex="1" parent="1">
          <mxGeometry x="95.62" y="845" width="120" height="60" as="geometry" />
        </mxCell>
        <mxCell id="huw-fAoAILaJOdz1j0V9-6" value="" style="rounded=0;whiteSpace=wrap;html=1;fillColor=#f8cecc;strokeColor=#b85450;" vertex="1" parent="1">
          <mxGeometry x="103.36" y="845" width="7" height="60" as="geometry" />
        </mxCell>
        <mxCell id="huw-fAoAILaJOdz1j0V9-7" value="" style="rounded=0;whiteSpace=wrap;html=1;fillColor=#f8cecc;strokeColor=#b85450;" vertex="1" parent="1">
          <mxGeometry x="88.86" y="845" width="7" height="60" as="geometry" />
        </mxCell>
        <mxCell id="huw-fAoAILaJOdz1j0V9-8" value="" style="rounded=0;whiteSpace=wrap;html=1;fillColor=#f8cecc;strokeColor=#b85450;" vertex="1" parent="1">
          <mxGeometry x="74.36" y="845" width="7" height="60" as="geometry" />
        </mxCell>
        <mxCell id="huw-fAoAILaJOdz1j0V9-16" style="edgeStyle=orthogonalEdgeStyle;rounded=0;orthogonalLoop=1;jettySize=auto;html=1;entryX=0.5;entryY=1;entryDx=0;entryDy=0;endArrow=blockThin;endFill=1;curved=1;exitX=0.5;exitY=1;exitDx=0;exitDy=0;fillColor=#f5f5f5;strokeColor=#666666;dashed=1;" edge="1" parent="1" source="huw-fAoAILaJOdz1j0V9-9" target="huw-fAoAILaJOdz1j0V9-8">
          <mxGeometry relative="1" as="geometry">
            <Array as="points">
              <mxPoint x="169.99" y="945" />
              <mxPoint x="77.99000000000001" y="945" />
            </Array>
          </mxGeometry>
        </mxCell>
        <mxCell id="huw-fAoAILaJOdz1j0V9-9" value="" style="rounded=0;whiteSpace=wrap;html=1;fillColor=#e1d5e7;strokeColor=#9673a6;" vertex="1" parent="1">
          <mxGeometry x="166.61" y="845" width="7" height="60" as="geometry" />
        </mxCell>
        <mxCell id="huw-fAoAILaJOdz1j0V9-17" style="edgeStyle=orthogonalEdgeStyle;rounded=0;orthogonalLoop=1;jettySize=auto;html=1;exitX=0.5;exitY=1;exitDx=0;exitDy=0;entryX=0.5;entryY=1;entryDx=0;entryDy=0;endArrow=blockThin;endFill=1;curved=1;fillColor=#f5f5f5;strokeColor=#666666;dashed=1;" edge="1" parent="1" source="huw-fAoAILaJOdz1j0V9-10" target="huw-fAoAILaJOdz1j0V9-7">
          <mxGeometry relative="1" as="geometry">
            <Array as="points">
              <mxPoint x="155.99" y="935" />
              <mxPoint x="91.99000000000001" y="935" />
            </Array>
          </mxGeometry>
        </mxCell>
        <mxCell id="huw-fAoAILaJOdz1j0V9-10" value="" style="rounded=0;whiteSpace=wrap;html=1;fillColor=#e1d5e7;strokeColor=#9673a6;" vertex="1" parent="1">
          <mxGeometry x="152.11" y="845" width="7" height="60" as="geometry" />
        </mxCell>
        <mxCell id="huw-fAoAILaJOdz1j0V9-18" style="edgeStyle=orthogonalEdgeStyle;rounded=0;orthogonalLoop=1;jettySize=auto;html=1;exitX=0.5;exitY=1;exitDx=0;exitDy=0;entryX=0.5;entryY=1;entryDx=0;entryDy=0;endArrow=blockThin;endFill=1;curved=1;fillColor=#f5f5f5;strokeColor=#666666;dashed=1;" edge="1" parent="1" source="huw-fAoAILaJOdz1j0V9-11" target="huw-fAoAILaJOdz1j0V9-6">
          <mxGeometry relative="1" as="geometry">
            <Array as="points">
              <mxPoint x="140.99" y="925" />
              <mxPoint x="106.99000000000001" y="925" />
            </Array>
          </mxGeometry>
        </mxCell>
        <mxCell id="huw-fAoAILaJOdz1j0V9-11" value="" style="rounded=0;whiteSpace=wrap;html=1;fillColor=#e1d5e7;strokeColor=#9673a6;" vertex="1" parent="1">
          <mxGeometry x="137.61" y="845" width="7" height="60" as="geometry" />
        </mxCell>
        <mxCell id="huw-fAoAILaJOdz1j0V9-19" value="&lt;font style=&quot;font-size: 16px;&quot;&gt;`p(x_{t-1} | x_t)` = &lt;b&gt;Denoising U-Net at timestep&lt;/b&gt; `t`&lt;/font&gt;" style="rounded=1;whiteSpace=wrap;html=1;strokeWidth=1;fillColor=#fff2cc;strokeColor=#d6b656;dashed=1;" vertex="1" parent="1">
          <mxGeometry x="-65.19" y="962" width="378.37" height="40" as="geometry" />
        </mxCell>
        <mxCell id="huw-fAoAILaJOdz1j0V9-29" style="edgeStyle=orthogonalEdgeStyle;rounded=0;orthogonalLoop=1;jettySize=auto;html=1;exitX=0.5;exitY=1;exitDx=0;exitDy=0;entryX=0.5;entryY=0;entryDx=0;entryDy=0;endArrow=none;endFill=0;strokeWidth=2;fillColor=#ffe6cc;strokeColor=#d79b00;" edge="1" parent="1" source="huw-fAoAILaJOdz1j0V9-27" target="huw-fAoAILaJOdz1j0V9-20">
          <mxGeometry relative="1" as="geometry" />
        </mxCell>
        <mxCell id="huw-fAoAILaJOdz1j0V9-27" value="&lt;span style=&quot;font-size: 16px;&quot;&gt;&lt;b&gt;U-Net&lt;/b&gt;&lt;/span&gt;" style="rounded=1;whiteSpace=wrap;html=1;strokeWidth=2;fillColor=#fff2cc;strokeColor=#d6b656;" vertex="1" parent="1">
          <mxGeometry x="90" y="754" width="68" height="31" as="geometry" />
        </mxCell>
      </root>
    </mxGraphModel>
  </diagram>
</mxfile>
